<?xml version="1.0" encoding="UTF-8"?>
<svg id="AW" xmlns="http://www.w3.org/2000/svg" viewBox="0 0 551 100.53">
  <defs>
    <style>
      .cls-1 {
        fill: #fff;
        stroke-width: 0px;
      }
    </style>
  </defs>
  <path class="cls-1" d="m242.16,16.97h-33.46v66.84h16.95s0-19.92,0-19.92v-4.57s24.18,1.33,31-7.7c5.09-5.82,5.38-15.1,3.28-22.29-2.78-8.17-8.87-12.37-17.78-12.36Zm1.92,30.11c-3.97,4.68-12.71,4.62-18.53,4.22l.06-26.8s15.06-2.1,19.03,4.74c2.29,4.09,2.83,13.3-.57,17.85Zm-143.97,47.63c-6.07-2.26-14.78-9-19.8-15.17-6.49-7.41-22.02-28.31-22.02-28.31-7.99-10.31-18.68-27.44-29.25-36.07v68.51h9.44v-34.58c6.64,8.47,14.43,19.3,20.26,26.14,2.57,3.07,9.2,10.25,11.08,11.83,12.15,11.85,34.46,17.16,53.07,10.66v-.65c-6.4,1.37-14.65.87-22.77-2.37ZM42.57,21c6.49,7.41,22.02,28.31,22.02,28.31,7.99,10.31,18.68,27.44,29.25,36.07V16.87h-9.44v34.58c-6.64-8.47-14.43-19.3-20.26-26.14-2.57-3.07-9.2-10.25-11.08-11.83C40.92,1.62,18.61-3.7,0,2.8v.65c6.4-1.37,14.65-.87,22.78,2.37,6.07,2.26,14.78,9,19.8,15.17Zm106.5,3.45l.05-7.48h-45.77v66.84h45.77l-.05-7.48c-8.77.22-19.77,1.61-28.79.73v-24c7.31-.39,16.19-.26,22.98.37v-7.93c-6.91.88-15.61.81-22.98.35v-22.08c9.02-.93,20.03.51,28.79.68Zm47.32,26.88c-7.73-6.7-17.12-8.8-23.74-13.34-4.65-3.58-3.93-8.21-1.58-10.71,5.57-6.21,17.19-3.28,19.89-2.65,3.42,1.01,5.26,2.08,8.53,3.54v-8.38c-13.86-4.04-36.04-7.9-44.79,6.05-3.22,5.74-4.05,16.15,5.2,22.2,9.33,7.42,24.65,10.97,26.55,16.96,1.17,3.27-.24,6.41-2.44,8.63-8.29,7.68-21.57,2.86-30.15-.95l-.02,8.27c9.29,4.17,21.04,5.24,31.46,2.99,7.15-1.59,15.16-7.89,16.44-15.66,1.31-7.66-.32-12.67-5.37-16.95Zm126.24,28.99l-2.07-3.93c-4.44-8.29-7.99-15.23-11.88-24.22.41-.29.32-.15,1.48-.71,6.19-2.95,10.29-8.3,10.18-17.54-.29-11.34-10.66-16.96-19.71-16.95h-33.9v66.84h17.04s0-27.62,0-27.62h9.69c3.23,5.39,9.81,20.71,10.84,23.12l2.01,4.5h18.17l-1.64-3.11c-.07-.12-.13-.25-.2-.38Zm-21.01-35.89c-4,4.8-12.27,4.45-18,4.43v-24.49s14.56-2.18,18.57,4.82c2.07,3.92,2.32,11.29-.57,15.24Zm216.26-28.47c-4.43-.03-33.08.44-33.2,34.17,0,33.49,28.29,34.82,33.2,34.78,4.89.03,33.21-1.3,33.13-34.78-.05-33.73-28.67-34.2-33.12-34.17Zm.11,59.63h-.25c-1.86,0-15.55.58-15.46-26.75.11-25.35,13.42-24.63,15.61-24.63,2.2,0,15.49-.72,15.61,24.63.1,27.33-13.61,26.75-15.51,26.75Zm-94.65-24.27c-7.73-6.7-17.12-8.8-23.74-13.34-4.65-3.58-3.94-8.21-1.58-10.71,5.57-6.21,17.19-3.28,19.89-2.65,3.42,1.01,5.26,2.08,8.53,3.54v-8.38c-13.85-4.04-36.04-7.9-44.79,6.05-3.21,5.74-4.05,16.15,5.21,22.2,9.33,7.42,24.65,10.97,26.55,16.96,1.17,3.27-.24,6.41-2.44,8.63-8.28,7.68-21.57,2.86-30.15-.95l-.02,8.27c9.29,4.17,21.04,5.24,31.46,2.99,7.15-1.59,15.16-7.89,16.45-15.66,1.31-7.66-.32-12.67-5.37-16.95Zm51.9,0c-7.71-6.7-17.11-8.8-23.69-13.34-4.67-3.58-3.97-8.21-1.63-10.71,5.56-6.21,17.17-3.28,19.89-2.65,3.44,1.01,5.29,2.08,8.55,3.54v-8.38c-13.89-4.04-36.06-7.9-44.8,6.05-3.25,5.74-4.09,16.15,5.21,22.2,9.36,7.42,24.67,10.97,26.53,16.96,1.2,3.27-.18,6.41-2.45,8.63-8.25,7.68-21.55,2.86-30.1-.95l-.06,8.27c9.31,4.17,21.05,5.24,31.49,2.99,7.19-1.59,15.16-7.89,16.5-15.66,1.25-7.66-.37-12.67-5.44-16.95Zm-145.14,32.48h45.73v-7.48c-8.81.22-19.81,1.61-28.81.73v-24c7.3-.39,16.2-.26,23.02.37v-7.93c-6.97.88-15.65.81-23.04.35,0-1.42.02-22.08.02-22.08,9-.93,20,.51,28.81.68v-7.48h-45.73v66.84Z"/>
</svg>