<svg id="Layer_1" data-name="Layer 1" xmlns="http://www.w3.org/2000/svg" viewBox="0 0 2400 410"><defs><style>.cls-1{fill:#fff;}</style></defs><path class="cls-1" d="M1156.37,199.82a21.37,21.37,0,0,0,3.84,2.49c1.28.64,2.55,1.34,3.84,2.11a5.86,5.86,0,0,0-1,2.11,3.33,3.33,0,0,1-1,1.73q-20,26.49-39.73,53t-41.64,51.43q-6.54,7.29-13.24,13.63l-13.63,12.85a40.55,40.55,0,0,1-15.93,9.6,32.88,32.88,0,0,1-18.61,0q-7.3-1.92-14.59-3.26a79.56,79.56,0,0,1-14.2-4,34.61,34.61,0,0,1-14.78-9.79,45.33,45.33,0,0,1-9-15.93,97.59,97.59,0,0,1-4.6-23.8,128.57,128.57,0,0,1,.77-24.18A223.43,223.43,0,0,1,980,205.19a290.67,290.67,0,0,1,32.43-55.65q5.76-8.07,11.9-15.93T1037,118.06a215.88,215.88,0,0,1,21.31-20.72A93.34,93.34,0,0,1,1083.83,82a43,43,0,0,1,10.75-3.07,76.07,76.07,0,0,1,10.74-.77A29.13,29.13,0,0,1,1118.18,81a34.08,34.08,0,0,1,10.36,7.68,33.27,33.27,0,0,1,6.72,10.94,27.85,27.85,0,0,1,1.54,13,63.63,63.63,0,0,1-6.53,22.26,167.66,167.66,0,0,1-16.5,27.64,191.29,191.29,0,0,1-21.11,24.18,17.77,17.77,0,0,1-3.07,3.07c-1,.76-2.18,1.66-3.46,2.68q-6.53,4.6-13.05.39-1.92-1.16-4-2.5a25.78,25.78,0,0,0-4-2.11q-7.68-3.06-6.91-11.9a25.1,25.1,0,0,1,.39-5.37,56.54,56.54,0,0,1,9.59-22.07A85.26,85.26,0,0,1,1085,131.88a7.15,7.15,0,0,0,2.3.38q4.6,3.08,7.1,4.8a7.19,7.19,0,0,1,3.07,3.65,7.33,7.33,0,0,1-.38,4.6q-1,2.7-3.26,7.68a53.71,53.71,0,0,0-3.84,8.83,1.13,1.13,0,0,0,.38.77c.26-.26.45-.39.58-.39s.32-.12.58-.38q8.43-10,15.92-20.73a134.13,134.13,0,0,0,12.86-23q1.92-5.37,3.26-10.55a28.27,28.27,0,0,0,.58-10.94c-.52-3.84-2.43-5.76-5.76-5.76a28.26,28.26,0,0,0-8.06.39,16.81,16.81,0,0,0-6.91,3.07l-12.28,8.44a81.74,81.74,0,0,0-11.51,9.6q-57.57,61-78.69,144.31a202.94,202.94,0,0,0-4.6,24.95,96.07,96.07,0,0,0,.38,25.72A54.14,54.14,0,0,0,999.39,318c1.28,3.58,2.55,7.16,3.84,10.75a14.79,14.79,0,0,0,2.11,3.65q1.33,1.72,2.88,3.64c2.55,2.56,4.73,4,6.52,4.42s4.22-.33,7.29-2.11q5-2.7,9.79-5.76a68.65,68.65,0,0,0,9-6.91q19.58-17.26,37.62-35.5a435.67,435.67,0,0,0,34.16-39q8.82-11.13,18.23-21.88t18.61-21.88a43.33,43.33,0,0,1,3.27-3.64C1153.88,202.7,1155.09,201.35,1156.37,199.82Z"/><path class="cls-1" d="M1194.75,181q8.82-7.68,20.73-4.61a32.07,32.07,0,0,1,11.13,5.18,54.2,54.2,0,0,1,9.21,8.64q6.9,8.84,3.84,20.73-2.31,8.84-5,17.08t-6.14,16.31a195.14,195.14,0,0,1-13.25,24.37,128.29,128.29,0,0,1-17.46,21.69,99.48,99.48,0,0,1-7.87,7.1c-2.68,2.18-5.44,4.41-8.25,6.72a22.17,22.17,0,0,1-7.29,3.83,14.34,14.34,0,0,1-8.06,0q-6.15-1.53-12.29-3.26a65,65,0,0,1-11.51-4.41,30.22,30.22,0,0,1-16.12-27.25,146,146,0,0,1,5.57-45.87q6.33-21.67,24.37-39.34a53.68,53.68,0,0,1,13.43-10.75,19.75,19.75,0,0,1,10.75-3.45q5.37,0,10.75,5A13.4,13.4,0,0,0,1194.75,181Zm-36.46,117.06q3.06-1.9,6.14-3.45a27.53,27.53,0,0,0,5.37-3.45q4.6-4.23,9-8.64a97.33,97.33,0,0,0,8.25-9.4q7.68-10.74,15-21.69t14.2-22.07c1.54-2.81,2.94-5.62,4.23-8.44a52.65,52.65,0,0,0,3.07-8.83A47,47,0,0,0,1226,201a19.92,19.92,0,0,0-2.49-11.52,10.75,10.75,0,0,0-7.1.77,46,46,0,0,0-6,3.84,92.86,92.86,0,0,0-25,29.94c-.77,1.53-1.6,3.07-2.5,4.6s-1.86,3.33-2.88,5.38q-2.69-1.92-5-3.46l-4.6-3.07q2.29-5.76,4.22-11.32t4.22-11.32a14.78,14.78,0,0,0-2.68,1.53,159.64,159.64,0,0,0-17.85,33.59,104.35,104.35,0,0,0-6.72,37.8,79.94,79.94,0,0,0,1.34,10.17A24.65,24.65,0,0,0,1158.29,298.07Z"/><path class="cls-1" d="M1285.33,209a130.11,130.11,0,0,1-13.24-18q-5.56-9.21-10.55-19.19-4.23-9.6-2.31-16.7t11.14-12.47a34.92,34.92,0,0,1,18.42-5.38q8.43,0,11.51,5.76a58,58,0,0,1,7.68,16.12q1.53,4.6-1.34,7.68c-1.92,2.05-4.68,3.07-8.26,3.07a26,26,0,0,0,1.92-4.61q1.92-7.29-4.6-5.37a33.83,33.83,0,0,0-18.81,12.28c-.52.77-1.09,1.6-1.73,2.5s-1.34,2-2.11,3.26q5.37,6.52,10.56,13.24t10.94,14a151.16,151.16,0,0,1,30.51-8.44q15.92-2.69,32-5a26,26,0,0,0,1.53,3.26,28.15,28.15,0,0,1,1.54,3.26,5.87,5.87,0,0,1-1.54,1.15l-1.53.77q-8.05,2.31-16.31,4.61t-16.7,5q-5.38,1.92-10.94,4.22t-11.32,4.6c1,2.82,1.92,5.13,2.69,6.91a104.25,104.25,0,0,0,4.22,9.6,42.16,42.16,0,0,1,3.45,10q6.13,24.18-11.9,42.22a65.6,65.6,0,0,1-16.12,11.9,95.45,95.45,0,0,1-18.42,7.29q-13.44,3.45-23.41-5.76l-6.91-6.91a87,87,0,0,1-6.53-7.29q-9.21-9.58-4.22-21.11a52,52,0,0,1,5.76-10.75,129.34,129.34,0,0,1,39.92-37.23c2.3-1.28,4.66-2.62,7.1-4S1282.52,210.56,1285.33,209Zm8.83,15a5.86,5.86,0,0,1-2.3.76,2.21,2.21,0,0,0-1.54.77,131.06,131.06,0,0,0-37.61,31.86,50.34,50.34,0,0,0-5.37,8.25q-2.31,4.42-4.61,8.64a16.22,16.22,0,0,0-1.54,5,8.57,8.57,0,0,0,1.54,5.75q3.06-.76,5.76-1.34a40.62,40.62,0,0,0,5.75-1.73,78.69,78.69,0,0,0,33-24.94Q1297.62,243.18,1294.16,224Z"/><path class="cls-1" d="M1433.49,209.8a14.77,14.77,0,0,1,2.5,1.53,25.1,25.1,0,0,0,2.11,1.54,3,3,0,0,1-.39,1.92q-19.57,25.32-36.46,46.82a459.81,459.81,0,0,1-36.46,41.07,14.4,14.4,0,0,1-7.1,4.22,17.61,17.61,0,0,1-7.3,0,29.44,29.44,0,0,1-7.1-2.49c-2.3-1.15-4.6-2.36-6.91-3.65Q1326,296.93,1323.72,285q-3.08-26.08,5.76-48a155.8,155.8,0,0,1,23.41-39.92q7.66-5.76,12.47-2.3a41,41,0,0,1,9,9.21,175.22,175.22,0,0,0-12.86,22.07,92.11,92.11,0,0,0-6.52,18.61,119.15,119.15,0,0,0-2.69,20.35q-.57,11.13-1,27.25a197.29,197.29,0,0,0,22.84-19q10.93-10.56,21.3-21.5T1415.26,230Q1424.67,219,1433.49,209.8Zm-30.32-59.88q-4.61,5.76-8.44,9.79t-7.49,7.67c-2.43,2.44-4.93,5-7.48,7.68s-5.38,5.82-8.45,9.4q-3.84-1.53-4.6-4a13.28,13.28,0,0,0-3.46-5.18q-2.68-3.45-1.53-8.63a38.66,38.66,0,0,1,4-10.37,56.06,56.06,0,0,1,6.71-9.59,33.35,33.35,0,0,1,6.91-6.34,16.62,16.62,0,0,1,7.68-1.72,13.51,13.51,0,0,1,6.33,1.92,23.31,23.31,0,0,1,5.18,4.22C1400.1,146.41,1401.63,148.13,1403.17,149.92Z"/></svg>