<svg id="Layer_1" data-name="Layer 1" xmlns="http://www.w3.org/2000/svg" viewBox="0 0 2400 410"><defs><style>.cls-1{fill:#fff;}</style></defs><path class="cls-1" d="M780.5,88.12q-6.91,2.31-13.44,4.42a75.29,75.29,0,0,0-12.28,5.18q-6.53,2.31-10.36-.19c-2.56-1.66-4.74-4.42-6.53-8.25q1.15-3.84,11.9-9.22a203,203,0,0,1,24.76-10.17q14-4.78,28.21-8.63a188.69,188.69,0,0,1,22.64-5h6.72a7.42,7.42,0,0,1,4.22,1.15,10.36,10.36,0,0,1,3.07,3.45c.9,1.54,2,3.72,3.26,6.53.51,1,.2,2-.95,2.88a19.19,19.19,0,0,1-4.61,2.49q-2.88,1.16-6.14,2.3a33.41,33.41,0,0,1-5.57,1.54,30.37,30.37,0,0,0-11.9,4.8,18.3,18.3,0,0,0-7.29,9q-9.6,34.16-18.81,67.93t-16.5,68.71q-3.07,14.6-5.37,29.55t-4.61,29.94a40.18,40.18,0,0,0-.38,5.76v6.14c2-.25,4-.51,6-.77a45.89,45.89,0,0,1,6-.38q3.82-.39,6.14-.39a7.24,7.24,0,0,1,3.84,1,9.86,9.86,0,0,1,2.87,3.07c.9,1.41,2.11,3.4,3.65,5.95-.26,1.28-1.28,2.17-3.07,2.69s-3.45,1-5,1.53q-18,6.15-35.5,11.9t-34.74,11.9a61.7,61.7,0,0,1-6.72,2.11,7.24,7.24,0,0,1-4.41-.19,9.35,9.35,0,0,1-3.65-2.88,70.59,70.59,0,0,1-4.41-6.33,69.2,69.2,0,0,1,15.54-10q8.25-3.84,15.55-8.06A497.85,497.85,0,0,1,740,206.15a998.92,998.92,0,0,1,33.59-98.83q1.14-2.31,2.3-5.38c.77-2,1.54-4,2.3-6s1.41-3.58,1.92-5S780.75,88.64,780.5,88.12Z"/><path class="cls-1" d="M916,301.14c2,.52,3.58.52,4.61,0s2.55-.51,4.61,0a9.36,9.36,0,0,0-1,2.69,3.52,3.52,0,0,1-1,1.92q-4.6,8.44-9,16.51a68.45,68.45,0,0,1-9.79,13.81,31.64,31.64,0,0,1-12.09,8.26q-6.72,2.49-16.31.19-11.91-9.21-14.2-24.95a97.23,97.23,0,0,1,1.15-33.2,160.79,160.79,0,0,1,11.32-34.93,238.51,238.51,0,0,1,15.93-30.13,6.86,6.86,0,0,0,.77-4.61l-5.76,5.76a153.73,153.73,0,0,0-19,23Q858,257.77,849.2,270.06q-5.38,8.06-11.13,15.92t-11.52,15.93a6.1,6.1,0,0,0-1.15,1.54,6.13,6.13,0,0,1-1.15,1.53,19.61,19.61,0,0,1-11.13,6.72,17.85,17.85,0,0,1-12.67-2.11,6.15,6.15,0,0,1-2.68-3.46c-.51-2-1-4.08-1.54-6.14a16.76,16.76,0,0,1-.38-6.14,235.39,235.39,0,0,1,9.4-51.24,174.56,174.56,0,0,1,22.46-47,71.55,71.55,0,0,1,5.75-7.86q3.07-3.64,6.14-7.49c2.82-3.07,4.86-4.73,6.14-5s3.2.26,5.76,1.54a7.61,7.61,0,0,1,3.26,4.6,15.24,15.24,0,0,1,0,6,35.6,35.6,0,0,1-1.91,6.72,53.9,53.9,0,0,0-2.12,6.52q-5,14.6-9.78,29t-9.41,29c-.51,1.28-1,2.56-1.34,3.84a13.45,13.45,0,0,0-.58,3.84,302,302,0,0,1,17.66-25.14,280.31,280.31,0,0,1,21.49-24.57A305.64,305.64,0,0,1,893,194.44a221.31,221.31,0,0,1,25.34-18,11.94,11.94,0,0,1,4.22,5.57,13.23,13.23,0,0,0,4.6,5.95,6.14,6.14,0,0,1,2.5,5.18,34.21,34.21,0,0,1-1,6q-4.23,11.52-7.1,18t-5.37,11.7q-2.5,5.19-5.76,11.14t-8.25,15.54a108.51,108.51,0,0,0-6.91,17.27,216.76,216.76,0,0,0-5.76,21.69,108.52,108.52,0,0,0-2.49,20c-.14,6,.7,10,2.49,11.9s4.8,1.15,9-2.31S908.56,312.91,916,301.14Z"/><path class="cls-1" d="M1017.69,305q13.43-26.09,25.72-45.48a258.08,258.08,0,0,1,26.1-34.74c1,.52,2.11,1.1,3.26,1.73s2.49,1.35,4,2.11q-10.36,17.28-20.34,34.16T1038,297.31q-3.08,5.37-6.52,12.66a140.67,140.67,0,0,1-7.49,13.82,56.42,56.42,0,0,1-8.82,11.13q-4.82,4.6-9.79,4.61l-8.06-1.73a9,9,0,0,1-4-1.73,7.73,7.73,0,0,1-2.11-3.84q-.78-2.69-2.31-8.44A91.65,91.65,0,0,1,987,294a255,255,0,0,0,1.53-27.44q-7.68,9.6-14,18.81A75.2,75.2,0,0,1,958.2,302.3a15.54,15.54,0,0,1-6.53,3.26,14.63,14.63,0,0,1-5.75,0,18.67,18.67,0,0,1-5.38-2.11c-1.79-1-3.7-2.17-5.75-3.46a22.81,22.81,0,0,1-10.37-10.17,41.58,41.58,0,0,1-3.84-14,73.42,73.42,0,0,1,0-15,98.41,98.41,0,0,1,2.69-14.58q8.06-31.47,30.71-53a33.91,33.91,0,0,1,12.66-9.59,45.91,45.91,0,0,1,15.74-4,44.89,44.89,0,0,1,15.93,1.72,30.6,30.6,0,0,1,13.24,7.68,38.48,38.48,0,0,0,2.49-5.18q1-2.49,2.12-4.8,7.67-16.5,16.5-33.2a100.54,100.54,0,0,1,22.26-28.6q5.37-4.61,8.25-4.41t6.72,6.72q-13.44,20-19.77,38.19t-11.7,34.73a402.54,402.54,0,0,0-13.82,53q-5,26.49-8.44,53.74a21.69,21.69,0,0,0,.76,5C1017.18,304.73,1017.43,305,1017.69,305ZM959,281.57l35.69-44.91a66.22,66.22,0,0,0,7.87-19.57q2.49-10.74,5.57-20.34a24.76,24.76,0,0,0-13.05.38,32.49,32.49,0,0,0-10.75,6.14q-18.42,15-26.49,32.82a167.1,167.1,0,0,0-11.89,38.57,86,86,0,0,0-1,13.24c.12,2.69.7,4.17,1.72,4.42s2.56-.58,4.61-2.5A108.55,108.55,0,0,0,959,281.57Z"/><path class="cls-1" d="M1110.57,181q8.82-7.68,20.73-4.61a32.07,32.07,0,0,1,11.13,5.18,54.2,54.2,0,0,1,9.21,8.64q6.91,8.84,3.84,20.73-2.31,8.84-5,17.08t-6.14,16.31a195.14,195.14,0,0,1-13.25,24.37,128.29,128.29,0,0,1-17.46,21.69,99.48,99.48,0,0,1-7.87,7.1c-2.69,2.18-5.44,4.41-8.25,6.72a22.17,22.17,0,0,1-7.29,3.83,14.34,14.34,0,0,1-8.06,0q-6.15-1.53-12.28-3.26a64.86,64.86,0,0,1-11.52-4.41,30.25,30.25,0,0,1-16.12-27.25,146,146,0,0,1,5.57-45.87q6.33-21.67,24.37-39.34a53.68,53.68,0,0,1,13.43-10.75,19.75,19.75,0,0,1,10.75-3.45q5.37,0,10.75,5A13.4,13.4,0,0,0,1110.57,181Zm-36.46,117.06q3.06-1.9,6.14-3.45a27.53,27.53,0,0,0,5.37-3.45q4.61-4.23,9-8.64a97.33,97.33,0,0,0,8.25-9.4q7.68-10.74,15-21.69t14.2-22.07c1.54-2.81,2.94-5.62,4.23-8.44a52.65,52.65,0,0,0,3.07-8.83,47,47,0,0,0,2.49-11.13,19.92,19.92,0,0,0-2.49-11.52,10.74,10.74,0,0,0-7.1.77,46,46,0,0,0-6,3.84,92.86,92.86,0,0,0-25,29.94c-.77,1.53-1.6,3.07-2.5,4.6S1097,231.93,1096,234q-2.7-1.92-5-3.46t-4.61-3.07q2.29-5.76,4.22-11.32t4.22-11.32a14.78,14.78,0,0,0-2.68,1.53,159.4,159.4,0,0,0-17.85,33.59,104.35,104.35,0,0,0-6.72,37.8,78.15,78.15,0,0,0,1.35,10.17A24.5,24.5,0,0,0,1074.11,298.07Z"/><path class="cls-1" d="M1270.62,301.14c2.05.52,3.58.52,4.61,0s2.55-.51,4.6,0a10,10,0,0,0-1,2.69,3.45,3.45,0,0,1-1,1.92q-4.61,8.44-9,16.51a68,68,0,0,1-9.78,13.81,31.64,31.64,0,0,1-12.09,8.26q-6.72,2.49-16.32.19-11.9-9.21-14.2-24.95a97.74,97.74,0,0,1,1.15-33.2A161.38,161.38,0,0,1,1229,251.44a238.51,238.51,0,0,1,15.93-30.13,6.91,6.91,0,0,0,.76-4.61l-5.75,5.76a153.73,153.73,0,0,0-19,23q-8.26,12.28-17.08,24.57-5.38,8.06-11.13,15.92t-11.52,15.93a6.1,6.1,0,0,0-1.15,1.54,6.13,6.13,0,0,1-1.15,1.53,19.61,19.61,0,0,1-11.13,6.72,17.85,17.85,0,0,1-12.67-2.11,6.17,6.17,0,0,1-2.69-3.46c-.51-2-1-4.08-1.53-6.14a16.54,16.54,0,0,1-.38-6.14,235.39,235.39,0,0,1,9.4-51.24,174.53,174.53,0,0,1,22.45-47,73,73,0,0,1,5.76-7.86q3.08-3.64,6.14-7.49,4.21-4.61,6.14-5t5.76,1.54a7.61,7.61,0,0,1,3.26,4.6,15.24,15.24,0,0,1,0,6,34.92,34.92,0,0,1-1.92,6.72,53.76,53.76,0,0,0-2.11,6.52q-5,14.6-9.79,29t-9.4,29c-.51,1.28-1,2.56-1.34,3.84a13.11,13.11,0,0,0-.58,3.84,302,302,0,0,1,17.66-25.14,280.31,280.31,0,0,1,21.49-24.57,305.64,305.64,0,0,1,24.18-22.07,222.1,222.1,0,0,1,25.33-18,11.9,11.9,0,0,1,4.23,5.57,13.17,13.17,0,0,0,4.6,5.95,6.17,6.17,0,0,1,2.5,5.18,34.21,34.21,0,0,1-1,6q-4.23,11.52-7.1,18t-5.38,11.7q-2.49,5.19-5.75,11.14t-8.26,15.54a109.56,109.56,0,0,0-6.9,17.27,214.09,214.09,0,0,0-5.76,21.69,108.59,108.59,0,0,0-2.5,20q-.2,9,2.5,11.9c1.78,1.91,4.8,1.15,9-2.31S1263.2,312.91,1270.62,301.14Z"/><path class="cls-1" d="M1312.45,249a148.53,148.53,0,0,0-1,19.57,52,52,0,0,0,3.64,18q1.92,5.38,3.46,6.33t6.91.2a28.2,28.2,0,0,0,16.12-6.15q8.82-8.06,17.84-15.93t17.85-15.92q10-8.84,19.39-18.23t19-18.62a7.73,7.73,0,0,1,4.8-2.5,15.79,15.79,0,0,1,6,1c-.77,1.29-1.47,2.44-2.11,3.46s-1.34,2.05-2.11,3.07q-13.44,15.36-26.29,30.51t-26.29,30.13a114,114,0,0,1-8.83,8.64q-4.61,4-9.6,7.87a31,31,0,0,1-14.39,6.52q-7.48,1.16-15.55-3.84-5.37-3.45-10.93-6.9t-10.94-6.53a31.06,31.06,0,0,1-11.13-11.71,40.9,40.9,0,0,1-4.23-15.16q-5.74-53.34,36.47-84a34.65,34.65,0,0,1,4.22-2.88A36.28,36.28,0,0,0,1329,173a23.66,23.66,0,0,1,10.75-5.37,39,39,0,0,1,12.28-.39,9.9,9.9,0,0,1,4,1,8.32,8.32,0,0,1,3.26,2.5l9.21,11.51a104.56,104.56,0,0,1,8.45,12.28,27.57,27.57,0,0,1,3.65,14.2,40.27,40.27,0,0,1-3.27,14.59,50.1,50.1,0,0,1-12.09,18.23,73,73,0,0,1-17.85,12.47,30.39,30.39,0,0,1-15.35,3.46,27.26,27.26,0,0,1-15-5.76,5.25,5.25,0,0,0-1.72-1.15A21.53,21.53,0,0,1,1312.45,249Zm1.92-6.53q19.19,1.54,31.85-10.36a62.19,62.19,0,0,0,11.33-14.2,98,98,0,0,0,7.48-16.51,28.76,28.76,0,0,0,1.15-5c.25-1.79.51-3.7.77-5.76a3.31,3.31,0,0,0-1.15-3.45,4.84,4.84,0,0,0-3.84-.77,21.14,21.14,0,0,0-4.61.77,28.17,28.17,0,0,0-13,6.14,126,126,0,0,0-10.36,10,57.83,57.83,0,0,0-12.09,17.66A145.36,145.36,0,0,0,1314.37,242.42Z"/><path class="cls-1" d="M1429.9,209a129.3,129.3,0,0,1-13.24-18q-5.58-9.21-10.56-19.19-4.23-9.6-2.3-16.7t11.13-12.47a34.92,34.92,0,0,1,18.42-5.38q8.45,0,11.52,5.76a57.65,57.65,0,0,1,7.67,16.12q1.53,4.6-1.34,7.68t-8.25,3.07a26,26,0,0,0,1.92-4.61q1.91-7.29-4.61-5.37a33.87,33.87,0,0,0-18.81,12.28c-.51.77-1.09,1.6-1.72,2.5s-1.35,2-2.11,3.26q5.37,6.52,10.55,13.24t10.94,14a151.16,151.16,0,0,1,30.51-8.44q15.93-2.69,32.05-5a24.58,24.58,0,0,0,1.54,3.26,26.67,26.67,0,0,1,1.53,3.26,5.68,5.68,0,0,1-1.53,1.15l-1.54.77q-8.06,2.31-16.31,4.61t-16.7,5q-5.37,1.92-10.94,4.22t-11.32,4.6c1,2.82,1.92,5.13,2.69,6.91q1.92,5,4.22,9.6a41.28,41.28,0,0,1,3.45,10q6.13,24.18-11.89,42.22a66,66,0,0,1-16.12,11.9,95.54,95.54,0,0,1-18.43,7.29q-13.44,3.45-23.41-5.76-3.45-3.45-6.91-6.91a88.72,88.72,0,0,1-6.52-7.29q-9.23-9.58-4.23-21.11A53,53,0,0,1,1375,254.7a129.56,129.56,0,0,1,39.92-37.23c2.3-1.28,4.66-2.62,7.1-4S1427.08,210.56,1429.9,209Zm8.82,15a5.86,5.86,0,0,1-2.3.76,2.21,2.21,0,0,0-1.53.77,131.11,131.11,0,0,0-37.62,31.86,50.34,50.34,0,0,0-5.37,8.25q-2.31,4.42-4.61,8.64a16.48,16.48,0,0,0-1.53,5,8.61,8.61,0,0,0,1.53,5.75q3.07-.76,5.76-1.34a40.34,40.34,0,0,0,5.76-1.73,78.75,78.75,0,0,0,33-24.94Q1442.17,243.18,1438.72,224Z"/><path class="cls-1" d="M1578.05,209.8a14.37,14.37,0,0,1,2.5,1.53c.64.52,1.34,1,2.11,1.54a3.1,3.1,0,0,1-.38,1.92q-19.58,25.32-36.47,46.82a459.81,459.81,0,0,1-36.46,41.07,14.4,14.4,0,0,1-7.1,4.22,17.56,17.56,0,0,1-7.29,0,29.14,29.14,0,0,1-7.1-2.49c-2.31-1.15-4.61-2.36-6.91-3.65q-10.37-3.83-12.67-15.74-3.06-26.08,5.76-48a155.8,155.8,0,0,1,23.41-39.92q7.68-5.76,12.48-2.3a41.44,41.44,0,0,1,9,9.21,174,174,0,0,0-12.86,22.07,92.16,92.16,0,0,0-6.53,18.61,118.2,118.2,0,0,0-2.68,20.35q-.59,11.13-1,27.25a197.2,197.2,0,0,0,22.83-19q10.95-10.56,21.31-21.5T1559.82,230Q1569.23,219,1578.05,209.8Zm-30.32-59.88q-4.61,5.76-8.44,9.79t-7.49,7.67c-2.43,2.44-4.92,5-7.48,7.68s-5.37,5.82-8.44,9.4c-2.57-1-4.1-2.36-4.61-4a13.35,13.35,0,0,0-3.45-5.18q-2.7-3.45-1.54-8.63a38.66,38.66,0,0,1,4-10.37,56.11,56.11,0,0,1,6.72-9.59,32.85,32.85,0,0,1,6.91-6.34,16.56,16.56,0,0,1,7.67-1.72,13.52,13.52,0,0,1,6.34,1.92,23.77,23.77,0,0,1,5.18,4.22C1544.66,146.41,1546.2,148.13,1547.73,149.92Z"/><path class="cls-1" d="M1645.22,290.78q3.08-3.06,6.14-6.33t5.76-6.72q9.21-12.27,18.23-24.56t18.23-24.57q2.31-3.06,5-6.33t6.14-7.48c.77,1.28,1.41,2.36,1.92,3.26s1.15,2,1.92,3.26q-4.23,6.52-8.44,13.43t-8.83,13.44q-7.68,11.13-15.54,22.45t-15.93,22.46a16.86,16.86,0,0,1-2.5,3.26,38.89,38.89,0,0,0-2.88,3.26q-3.84,3.08-6.33,3.26c-1.67.13-4.16-.44-7.48-1.73q-11.14-4.22-15.93-12.28a42.53,42.53,0,0,1-5.57-19.19,35.23,35.23,0,0,1-.57-4,49.42,49.42,0,0,0-1-5.56q-2.31,3.07-4.23,5.56c-1.28,1.67-2.43,3.26-3.45,4.8q-5,6.53-9.4,12.86t-9.79,12.86a59,59,0,0,1-5.76,5.75c-2,1.8-4.09,3.72-6.14,5.76a6.36,6.36,0,0,1-8.06.38,66.85,66.85,0,0,0-6.72-3.64,39.26,39.26,0,0,1-6.71-4q-8.83-6.13-8.83-15.74,0-5.76.38-11.51A53.76,53.76,0,0,1,1550.8,262a178.06,178.06,0,0,1,18.42-43.38,149.66,149.66,0,0,1,30.33-36.08,43.06,43.06,0,0,1,12.47-8.25,58.38,58.38,0,0,1,14.39-4,39.6,39.6,0,0,1,14,.19,25.61,25.61,0,0,1,12.48,6.72q5-2.68,9.59-5.76t11.13-1.53a8.5,8.5,0,0,1,6.15,4c1.27,2.18,2.55,4.41,3.83,6.72a155.88,155.88,0,0,0-26.1,39.53,186.53,186.53,0,0,0-13.81,44.91,47.35,47.35,0,0,0-1.35,12.47q.2,6,1,12.47A6.86,6.86,0,0,1,1645.22,290.78Zm-71.77,0,2.3,1.15q4.21-4.21,8.06-7.87t7.68-7.86q6.51-6.92,12.85-14.2t12.86-14.59a17.57,17.57,0,0,0,3.46-7.29,144.46,144.46,0,0,1,18-44.14,15.27,15.27,0,0,0,1.34-2.5,23.89,23.89,0,0,1,2.11-3.64,57.57,57.57,0,0,0-5.57,2.11c-1.4.64-2.75,1.22-4,1.73q-28,15.34-43,44.9a135.89,135.89,0,0,0-8.83,21.11,213.82,213.82,0,0,0-5.76,21.88c-.26,1.54-.45,3.07-.57,4.61A20.39,20.39,0,0,1,1573.45,290.78Z"/></svg>