<svg id="Layer_1" data-name="Layer 1" xmlns="http://www.w3.org/2000/svg" viewBox="0 0 2400 410"><defs><style>.cls-1{fill:#fff;}</style></defs><path class="cls-1" d="M497.25,86.21a116.13,116.13,0,0,0-22.46,14.58,70.34,70.34,0,0,0-17.08,21.49,77,77,0,0,0-4.79,13.05q-1.74,6.54.95,14.59-9.58-2.31-10.36-12.28a30.1,30.1,0,0,1,.77-13.44,58.56,58.56,0,0,1,12.28-24.56,121,121,0,0,1,19-17.46A83.44,83.44,0,0,1,498,70.47a6.79,6.79,0,0,1,5.57-.58,24.14,24.14,0,0,1,5.57,3.27q9.58,7.68,11.89,17.46a47.89,47.89,0,0,1,0,20.92q-2.68,12.28-5.56,24.75t-6.33,24.76Q501.08,190.23,495.9,220t-9.78,59.68q-1.94,11.14-2.88,21.88t-1.73,21.88a11.76,11.76,0,0,0,1.53,8.06q1.15-2.31,2.31-4.8a44.49,44.49,0,0,1,2.3-4.41Q502.23,290,517.4,259.12t31.85-60.46q16.71-29.55,35.32-57.38a580.54,580.54,0,0,1,40.11-53.16,183.27,183.27,0,0,1,14.77-16.69q7.86-7.86,16.31-14.78,4.23,3.08,4.8,4.22c.39.77-.45,2.44-2.49,5q-7.3,10-14.78,19.77T628.9,105.78a1356.77,1356.77,0,0,0-72.55,115.53q-31.86,57.19-60.26,115.15a1.11,1.11,0,0,0-.38.76,1.13,1.13,0,0,1-.38.77q-4.23,6.92-6.14,10a10.13,10.13,0,0,1-4,4,12.53,12.53,0,0,1-5.19,1q-3.08,0-9.21.39c-3.58.25-6.4-.46-8.44-2.12a21,21,0,0,1-5.37-7.1,85.52,85.52,0,0,1-6.34-18.23,185.57,185.57,0,0,1-3.26-19.38,231.44,231.44,0,0,1,.19-54.12,451.58,451.58,0,0,1,9.79-53,439.13,439.13,0,0,1,14.58-46.06q8.44-22.25,18-44.52,2.31-5.37,4.42-10.55c1.4-3.46,2.74-7,4-10.56C498.4,87.23,498,86.72,497.25,86.21Z"/><path class="cls-1" d="M684.55,209.8a14.64,14.64,0,0,1,2.49,1.53c.64.52,1.34,1,2.11,1.54a3.1,3.1,0,0,1-.38,1.92q-19.57,25.32-36.47,46.82a459.81,459.81,0,0,1-36.46,41.07,14.4,14.4,0,0,1-7.1,4.22,17.56,17.56,0,0,1-7.29,0,29.14,29.14,0,0,1-7.1-2.49c-2.31-1.15-4.61-2.36-6.91-3.65q-10.37-3.83-12.67-15.74-3.06-26.08,5.76-48a156.09,156.09,0,0,1,23.41-39.92q7.68-5.76,12.48-2.3a41.44,41.44,0,0,1,9,9.21,175.22,175.22,0,0,0-12.86,22.07,92.16,92.16,0,0,0-6.53,18.61,118.2,118.2,0,0,0-2.68,20.35q-.58,11.13-1,27.25a198.14,198.14,0,0,0,22.84-19q10.93-10.56,21.3-21.5T666.31,230Q675.72,219,684.55,209.8Zm-30.33-59.88q-4.61,5.76-8.44,9.79t-7.49,7.67c-2.43,2.44-4.92,5-7.48,7.68s-5.37,5.82-8.44,9.4q-3.84-1.53-4.61-4a13.35,13.35,0,0,0-3.45-5.18q-2.7-3.45-1.54-8.63a38.66,38.66,0,0,1,4-10.37,56.11,56.11,0,0,1,6.72-9.59,33.1,33.1,0,0,1,6.91-6.34,16.56,16.56,0,0,1,7.67-1.72,13.52,13.52,0,0,1,6.34,1.92,23.54,23.54,0,0,1,5.18,4.22C651.15,146.41,652.69,148.13,654.22,149.92Z"/><path class="cls-1" d="M688.77,249a146.83,146.83,0,0,0-1,19.57,52,52,0,0,0,3.64,18q1.92,5.38,3.46,6.33t6.91.2a28.2,28.2,0,0,0,16.12-6.15q8.82-8.06,17.84-15.93t17.85-15.92q10-8.84,19.38-18.23t19-18.62a7.71,7.71,0,0,1,4.8-2.5,15.79,15.79,0,0,1,6,1c-.77,1.29-1.47,2.44-2.11,3.46s-1.34,2.05-2.11,3.07q-13.44,15.36-26.29,30.51T746,283.87a114,114,0,0,1-8.83,8.64c-3.07,2.69-6.28,5.31-9.6,7.87a31,31,0,0,1-14.39,6.52q-7.49,1.16-15.55-3.84-5.37-3.45-10.94-6.9t-10.93-6.53a31.16,31.16,0,0,1-11.14-11.71,41.09,41.09,0,0,1-4.22-15.16q-5.76-53.34,36.47-84a34.65,34.65,0,0,1,4.22-2.88,36.28,36.28,0,0,0,4.22-2.88A23.66,23.66,0,0,1,716,167.58a39,39,0,0,1,12.28-.39,9.9,9.9,0,0,1,4,1,8.32,8.32,0,0,1,3.26,2.5l9.21,11.51a105.4,105.4,0,0,1,8.45,12.28,27.46,27.46,0,0,1,3.64,14.2,40,40,0,0,1-3.26,14.59,50.1,50.1,0,0,1-12.09,18.23,73.21,73.21,0,0,1-17.85,12.47,30.39,30.39,0,0,1-15.35,3.46,27.26,27.26,0,0,1-15-5.76,5.19,5.19,0,0,0-1.73-1.15A22.2,22.2,0,0,1,688.77,249Zm1.92-6.53q19.18,1.54,31.85-10.36a61.87,61.87,0,0,0,11.32-14.2,97.27,97.27,0,0,0,7.49-16.51,28.76,28.76,0,0,0,1.15-5q.38-2.67.77-5.76a3.31,3.31,0,0,0-1.15-3.45,4.85,4.85,0,0,0-3.84-.77,21.14,21.14,0,0,0-4.61.77,28.17,28.17,0,0,0-13,6.14,126,126,0,0,0-10.36,10,57.83,57.83,0,0,0-12.09,17.66A145.36,145.36,0,0,0,690.69,242.42Z"/><path class="cls-1" d="M881.44,301.14c2,.52,3.58.52,4.61,0s2.55-.5,4.6,0a10,10,0,0,0-1,2.69,3.45,3.45,0,0,1-1,1.92q-4.61,8.44-9,16.51a68,68,0,0,1-9.78,13.81,31.64,31.64,0,0,1-12.09,8.26q-6.72,2.49-16.32.19-11.89-9.21-14.2-24.95a97.74,97.74,0,0,1,1.15-33.2,161.38,161.38,0,0,1,11.33-34.93,239.85,239.85,0,0,1,15.92-30.13,6.86,6.86,0,0,0,.77-4.61l-5.75,5.76a153.73,153.73,0,0,0-19,23q-8.26,12.28-17.08,24.57-5.38,8.06-11.13,15.92T792,301.91a6.1,6.1,0,0,0-1.15,1.54,6.13,6.13,0,0,1-1.15,1.53,19.64,19.64,0,0,1-11.13,6.72,17.85,17.85,0,0,1-12.67-2.11,6.18,6.18,0,0,1-2.69-3.45L761.69,300a16.54,16.54,0,0,1-.38-6.14,235.39,235.39,0,0,1,9.4-51.24,174.53,174.53,0,0,1,22.45-47,73,73,0,0,1,5.76-7.86q3.06-3.64,6.14-7.49,4.22-4.61,6.14-5t5.76,1.54a7.61,7.61,0,0,1,3.26,4.6,15.24,15.24,0,0,1,0,6,34.92,34.92,0,0,1-1.92,6.72,53.76,53.76,0,0,0-2.11,6.52q-5,14.6-9.79,29t-9.4,29c-.52,1.28-1,2.56-1.34,3.84a13.11,13.11,0,0,0-.58,3.84,302,302,0,0,1,17.66-25.14,278.66,278.66,0,0,1,21.49-24.57,305.64,305.64,0,0,1,24.18-22.07,221.22,221.22,0,0,1,25.33-18A11.9,11.9,0,0,1,888,182a13.17,13.17,0,0,0,4.6,5.95,6.17,6.17,0,0,1,2.5,5.18,34.21,34.21,0,0,1-1,6q-4.23,11.52-7.1,18t-5.38,11.7q-2.49,5.19-5.75,11.14t-8.26,15.54a110.44,110.44,0,0,0-6.91,17.27A216.7,216.7,0,0,0,855,294.43a108.59,108.59,0,0,0-2.5,20q-.19,9,2.5,11.9c1.78,1.91,4.8,1.15,9-2.31S874,312.91,881.44,301.14Z"/><path class="cls-1" d="M1003.87,301.14c2,.52,3.58.52,4.61,0s2.55-.5,4.61,0a9.36,9.36,0,0,0-1,2.69,3.52,3.52,0,0,1-1,1.92q-4.6,8.44-9,16.51a68.45,68.45,0,0,1-9.79,13.81,31.64,31.64,0,0,1-12.09,8.26q-6.72,2.49-16.31.19-11.91-9.21-14.2-24.95a97.23,97.23,0,0,1,1.15-33.2,160.79,160.79,0,0,1,11.32-34.93,238.51,238.51,0,0,1,15.93-30.13,6.86,6.86,0,0,0,.77-4.61l-5.76,5.76a153.73,153.73,0,0,0-19,23q-8.26,12.28-17.08,24.57Q931.71,278.12,926,286t-11.52,15.93a6.1,6.1,0,0,0-1.15,1.54,6.13,6.13,0,0,1-1.15,1.53A19.61,19.61,0,0,1,901,311.7a17.85,17.85,0,0,1-12.67-2.11,6.16,6.16,0,0,1-2.68-3.45c-.51-2.05-1-4.09-1.54-6.15a16.76,16.76,0,0,1-.38-6.14,235.39,235.39,0,0,1,9.4-51.24,174.56,174.56,0,0,1,22.46-47,71.55,71.55,0,0,1,5.75-7.86q3.07-3.64,6.14-7.49c2.82-3.07,4.86-4.73,6.15-5s3.19.26,5.75,1.54a7.61,7.61,0,0,1,3.26,4.6,15.24,15.24,0,0,1,0,6,35.6,35.6,0,0,1-1.91,6.72,53.9,53.9,0,0,0-2.12,6.52q-5,14.6-9.78,29t-9.41,29c-.51,1.28-1,2.56-1.34,3.84a13.45,13.45,0,0,0-.58,3.84,302,302,0,0,1,17.66-25.14,280.31,280.31,0,0,1,21.49-24.57,304,304,0,0,1,24.19-22.07,220.35,220.35,0,0,1,25.33-18,11.94,11.94,0,0,1,4.22,5.57,13.19,13.19,0,0,0,4.61,5.95,6.16,6.16,0,0,1,2.49,5.18,34.21,34.21,0,0,1-1,6q-4.23,11.52-7.1,18t-5.37,11.7q-2.51,5.19-5.76,11.14t-8.25,15.54a108.51,108.51,0,0,0-6.91,17.27,219.49,219.49,0,0,0-5.76,21.69,107.66,107.66,0,0,0-2.49,20c-.14,6,.7,10,2.49,11.9s4.8,1.15,9-2.31S996.45,312.91,1003.87,301.14Z"/><path class="cls-1" d="M1103.66,290.78q3.08-3.06,6.14-6.33t5.76-6.72q9.21-12.27,18.23-24.56T1152,228.6q2.31-3.06,5-6.33t6.14-7.48c.77,1.28,1.41,2.36,1.92,3.26s1.16,2,1.92,3.26q-4.23,6.52-8.44,13.43t-8.83,13.44q-7.68,11.13-15.54,22.45t-15.93,22.46a16.86,16.86,0,0,1-2.5,3.26,38.89,38.89,0,0,0-2.88,3.26q-3.84,3.08-6.33,3.26c-1.67.13-4.16-.44-7.48-1.73q-11.14-4.22-15.93-12.28a42.66,42.66,0,0,1-5.57-19.19,35.23,35.23,0,0,1-.57-4,49.42,49.42,0,0,0-1-5.56q-2.31,3.07-4.22,5.56c-1.29,1.67-2.44,3.26-3.46,4.8q-5,6.53-9.4,12.86t-9.79,12.86a59,59,0,0,1-5.76,5.75c-2.05,1.8-4.09,3.72-6.14,5.76a6.36,6.36,0,0,1-8.06.38,66.85,66.85,0,0,0-6.72-3.64,39.65,39.65,0,0,1-6.71-4q-8.84-6.13-8.83-15.74,0-5.76.38-11.51a53.76,53.76,0,0,1,1.92-11.13,177.7,177.7,0,0,1,18.43-43.38A149.62,149.62,0,0,1,1058,182.54a43.2,43.2,0,0,1,12.47-8.25,58.38,58.38,0,0,1,14.39-4,39.6,39.6,0,0,1,14,.19,25.61,25.61,0,0,1,12.48,6.72q5-2.68,9.59-5.76c3.08-2,6.78-2.55,11.13-1.53a8.5,8.5,0,0,1,6.15,4c1.27,2.18,2.55,4.41,3.83,6.72a155.88,155.88,0,0,0-26.1,39.53,187,187,0,0,0-13.81,44.91,47.35,47.35,0,0,0-1.35,12.47q.2,6,1,12.47A6.74,6.74,0,0,1,1103.66,290.78Zm-71.77,0,2.3,1.15q4.21-4.21,8.06-7.87t7.68-7.86q6.51-6.92,12.86-14.2t12.85-14.59a17.57,17.57,0,0,0,3.46-7.29,144.71,144.71,0,0,1,18-44.14,15.27,15.27,0,0,0,1.34-2.5,24.78,24.78,0,0,1,2.11-3.64A56.25,56.25,0,0,0,1095,192c-1.41.64-2.76,1.22-4,1.73q-28,15.34-43,44.9a135.89,135.89,0,0,0-8.83,21.11,213.82,213.82,0,0,0-5.76,21.88c-.25,1.54-.45,3.07-.57,4.61A19.85,19.85,0,0,1,1031.89,290.78Z"/><path class="cls-1" d="M1383.84,155.68a29.77,29.77,0,0,0,11.13,4,14.88,14.88,0,0,0,11.14-2.5,105.58,105.58,0,0,0,23.22-20.53q9.78-11.7,13.24-29,.38-2.69.57-5.37c.13-1.79.2-3.71.2-5.76q-.39-6.13-3.84-9.21a15.91,15.91,0,0,0-8.25-3.84,27.56,27.56,0,0,0-10.18.38,30,30,0,0,0-9.21,3.46,79,79,0,0,0-16.5,15.73,151.42,151.42,0,0,0-13.82,20.54,213.3,213.3,0,0,0-10.94,22.45q-4.8,11.52-7.87,21.5-12.66,38.76-25.52,77.72t-25.52,70.43q8.82,3.84,17.65,7.87A66.5,66.5,0,0,0,1347,329a44.24,44.24,0,0,0,17.84-1q9-2.29,18.24-10.74A155,155,0,0,0,1410.33,285a244.89,244.89,0,0,0,19.57-38.38q1.92-5,3.84-10.36t3.84-11.13c1.53.51,3.07,1.09,4.6,1.73a27.41,27.41,0,0,1,4.61,2.49,273.43,273.43,0,0,1-3.26,30.13,103.84,103.84,0,0,1-9,28.6,122.78,122.78,0,0,1-18,26.67,139.19,139.19,0,0,1-23.8,21.3,28,28,0,0,1-14.2,4.8,68.09,68.09,0,0,1-15.35-.57,250.65,250.65,0,0,1-29-5.76,215.59,215.59,0,0,1-27.83-9.21q-6.13,7.28-10.94,14.2a73.44,73.44,0,0,1-10.17,11.9,31.33,31.33,0,0,1-12.28,7.1q-6.92,2.1-17.27-.2c-3.07-.76-6.14-1.47-9.21-2.11a41,41,0,0,1-8.45-2.68,19.89,19.89,0,0,1-6.52-4.61q-2.68-2.88-3.46-8.25a65,65,0,0,1,.77-20q1.92-9.6,11.51-15a50.46,50.46,0,0,1,18.43-5.37,67.17,67.17,0,0,1,18.81,1.15q1.9-5.37,3.83-10.36t3.84-10.37q8.07-25.33,16.31-50.66t17.08-51A336.92,336.92,0,0,1,1336.83,135a204.22,204.22,0,0,1,25.9-39.53,99,99,0,0,1,15.74-15.36,64.85,64.85,0,0,1,18.42-10,43.3,43.3,0,0,1,20.54-2.49q9.78,1.35,18.61,9.4a106.88,106.88,0,0,1,14.59,15.16q5.76,7.48,5,18.62-.78,20.73-11.52,33.58a101.79,101.79,0,0,1-26.1,22.07,22.06,22.06,0,0,1-9.59,3.07,24,24,0,0,1-9.6-1.15,27.4,27.4,0,0,1-8.63-4.79A23.69,23.69,0,0,1,1383.84,155.68ZM1274.46,309.21q-8.46.77-15,1.91t-10,8.45a21.38,21.38,0,0,0-2.88,12.66,33.8,33.8,0,0,0,4.41,13.44,53.79,53.79,0,0,0,13.63-16.51Q1269.46,319.95,1274.46,309.21Z"/><path class="cls-1" d="M1511.27,168.73q4.21,3.45,6.52,5.56a14.87,14.87,0,0,1,3.27,4,7.84,7.84,0,0,1,.57,4.61,37.06,37.06,0,0,1-1.92,6.91q-3.45,10-7.29,19.76t-7.68,19.77q-5,12.28-9.21,24.95a216,216,0,0,0-6.91,26.1,12.9,12.9,0,0,0-.38,3.07,32.64,32.64,0,0,1-.38,4.22,31.92,31.92,0,0,1,3.45-3.07A13.44,13.44,0,0,0,1494,282q13.43-15.72,27.06-31.28T1548.12,219a14.76,14.76,0,0,0,3.07-4.61c.76-1.79,1.53-3.7,2.3-5.76a115,115,0,0,1,8.25-17.46,65.71,65.71,0,0,1,11.71-14.78,22,22,0,0,1,4.41-4q2.49-1.73,4.8-3.64,6.91,5,7.87,7.67c.63,1.8-.07,5-2.11,9.6a283.22,283.22,0,0,0-11.33,30.7q-4.8,15.75-8.25,31.86-1.15,6.91-2.11,13.63T1565,275.81a6.16,6.16,0,0,0-.19,2.69,40.19,40.19,0,0,1,.19,4.61q14.6-18,28.6-34.74a323.75,323.75,0,0,1,30.51-31.67l3.27,3.27a40.82,40.82,0,0,1,2.87,3.26,22.13,22.13,0,0,1-1.72,2.88,20.39,20.39,0,0,1-2.11,2.49q-12.3,17.28-25,33.78t-25,33.78a42.81,42.81,0,0,0-3.46,4.22q-5.74,8.83-16.12,5.37-11.13-3.45-14.58-7.87T1538.52,282a87.44,87.44,0,0,1,0-16.5c.51-2.81,1-5.57,1.34-8.25s.83-5.69,1.35-9c-1,.77-1.86,1.41-2.5,1.92A8.27,8.27,0,0,0,1537,252q-4.61,6.14-9,12.28t-9.4,12.28q-5.38,6.92-11.51,13.43l-12.29,13.05a17.81,17.81,0,0,1-8.63,5.19q-4.43.94-9.79-2.11a24.38,24.38,0,0,0-4.8-2.5c-1.66-.64-3.38-1.34-5.18-2.11q-6.52-3.07-8.83-7.1T1456,283.49c.26-3.07.57-6.08,1-9a40.67,40.67,0,0,1,2.11-8.64q4.61-12.66,9-25.52a251.15,251.15,0,0,1,10.17-25.14A133.66,133.66,0,0,1,1490,195.4q6.71-9.39,13.24-19a34.65,34.65,0,0,1,3.64-3.83Q1509,170.65,1511.27,168.73Z"/><path class="cls-1" d="M1712.39,301.14q3.06.78,4.61,0c1-.5,2.55-.5,4.6,0a9.67,9.67,0,0,0-1,2.69,3.45,3.45,0,0,1-1,1.92q-4.61,8.44-9,16.51a68,68,0,0,1-9.78,13.81,31.6,31.6,0,0,1-12.1,8.26q-6.72,2.49-16.31.19-11.9-9.21-14.2-24.95a97.74,97.74,0,0,1,1.15-33.2,160.83,160.83,0,0,1,11.33-34.93,239.85,239.85,0,0,1,15.92-30.13,6.86,6.86,0,0,0,.77-4.61l-5.76,5.76a154.34,154.34,0,0,0-19,23q-8.25,12.28-17.08,24.57-5.37,8.06-11.13,15.92T1623,301.91a5.87,5.87,0,0,0-1.15,1.54,6.13,6.13,0,0,1-1.15,1.53,19.68,19.68,0,0,1-11.13,6.72,17.85,17.85,0,0,1-12.67-2.11,6.18,6.18,0,0,1-2.69-3.45l-1.53-6.15a16.76,16.76,0,0,1-.39-6.14,236,236,0,0,1,9.41-51.24,174.53,174.53,0,0,1,22.45-47,73,73,0,0,1,5.76-7.86q3.06-3.64,6.14-7.49,4.21-4.61,6.14-5t5.76,1.54a7.65,7.65,0,0,1,3.26,4.6,15.64,15.64,0,0,1,0,6,35.65,35.65,0,0,1-1.92,6.72,53.76,53.76,0,0,0-2.11,6.52q-5,14.6-9.79,29t-9.4,29c-.52,1.28-1,2.56-1.34,3.84a13.11,13.11,0,0,0-.58,3.84,302,302,0,0,1,17.66-25.14,278.66,278.66,0,0,1,21.49-24.57,305.64,305.64,0,0,1,24.18-22.07,221.22,221.22,0,0,1,25.33-18,11.81,11.81,0,0,1,4.22,5.57,13.26,13.26,0,0,0,4.61,5.95,6.13,6.13,0,0,1,2.49,5.18,34.16,34.16,0,0,1-1,6q-4.23,11.52-7.1,18t-5.38,11.7c-1.67,3.46-3.58,7.17-5.76,11.14s-4.93,9.15-8.25,15.54a110.44,110.44,0,0,0-6.91,17.27,216.7,216.7,0,0,0-5.75,21.69,108.59,108.59,0,0,0-2.5,20q-.2,9,2.5,11.9c1.78,1.91,4.79,1.15,9-2.31S1705,312.91,1712.39,301.14Z"/><path class="cls-1" d="M1771.88,286.18q-2.31,3.07-4.61,6.33a76.58,76.58,0,0,1-5,6.33,128.24,128.24,0,0,1-9.6,10.75q-4.22,4.21-10,1.53-14.2-6.9-21.5-18.23t-3.84-28.59a221.64,221.64,0,0,1,7.49-25.14A102.88,102.88,0,0,1,1737,215.94a74.47,74.47,0,0,1,23.41-23q15.35-9.21,35.31-8.06a29.93,29.93,0,0,1,18.81,7.67l6.14-5.37c2.05-1.79,4.09-3.45,6.14-5a28,28,0,0,1,3.26-2.11,34.05,34.05,0,0,1,3.65-1.73c4.09-1.53,6.91-2,8.44-1.34s3.33,3,5.38,7.1q-2.68,4.23-5.38,8.64t-5.37,8.63a256.69,256.69,0,0,0-20.15,44.52q-7.87,23-16.31,46.06-3.08,7.68-5.57,15.36t-5.56,15.35a17.37,17.37,0,0,0,3.26.38,11.81,11.81,0,0,1,2.88.39q8.43.76,16.89,1.15t16.88,1.15a13.86,13.86,0,0,1,5.38,1.73q2.3,1.33,3.07,5.56a10.54,10.54,0,0,0-2.11.19,4.13,4.13,0,0,1-2.11-.19q-10.76,0-21.11-.19t-21.11-.58c-4.36-.25-7.55,1.92-9.6,6.53a161.81,161.81,0,0,1-25,39.53,80.93,80.93,0,0,1-25,20,58,58,0,0,1-30.32,6.53,35.59,35.59,0,0,1-12.47-3.65,57,57,0,0,1-10.56-7.1q-5.37-5-3.07-11.51a37.15,37.15,0,0,1,2.31-6.91,51.81,51.81,0,0,1,3.45-6.53,63.58,63.58,0,0,1,12.67-14,102.35,102.35,0,0,1,15.73-10.55,116.46,116.46,0,0,1,20.92-10.17,180.65,180.65,0,0,1,22.84-6.72,10.4,10.4,0,0,0,7.67-6.53q3.08-8.82,6.34-17.27t6.33-16.89A2.23,2.23,0,0,0,1771.88,286.18Zm-19.58,52.2a240.38,240.38,0,0,0-28.21,9,83.8,83.8,0,0,0-24.37,14.77,33.25,33.25,0,0,0-6.72,7.3q-2.88,4.21-6,8.44a14.75,14.75,0,0,0-1.15,13.43q7.68,1.92,17.27-1.15A59.82,59.82,0,0,0,1722,379.83,99.67,99.67,0,0,0,1739.25,362,94.3,94.3,0,0,0,1752.3,338.38Zm56-138.95a37.83,37.83,0,0,1-3.84-.19,13.05,13.05,0,0,0-3.84.19q-11.13,1.94-21.49,10.75a100.16,100.16,0,0,0-26.49,32.62,130,130,0,0,0-12.28,40.31,33.88,33.88,0,0,0-.57,8.25,42.38,42.38,0,0,0,1.72,9.78,558.67,558.67,0,0,0,39.54-47.21A175.79,175.79,0,0,0,1808.34,199.43Z"/><path class="cls-1" d="M1898.92,181q8.82-7.68,20.72-4.61a32,32,0,0,1,11.13,5.18,53.89,53.89,0,0,1,9.22,8.64q6.9,8.84,3.83,20.73-2.29,8.84-5,17.08t-6.14,16.31a195.07,195.07,0,0,1-13.24,24.37A128.29,128.29,0,0,1,1902,290.4a99.48,99.48,0,0,1-7.87,7.1c-2.69,2.18-5.44,4.41-8.25,6.72a22.21,22.21,0,0,1-7.3,3.83,14.34,14.34,0,0,1-8.06,0q-6.13-1.53-12.28-3.26a64.75,64.75,0,0,1-11.51-4.41,30.25,30.25,0,0,1-16.12-27.25,146.25,146.25,0,0,1,5.56-45.87q6.33-21.67,24.37-39.34A53.93,53.93,0,0,1,1874,177.17a19.74,19.74,0,0,1,10.74-3.45q5.37,0,10.75,5A13.66,13.66,0,0,0,1898.92,181Zm-36.47,117.06c2-1.27,4.09-2.42,6.14-3.45a27.61,27.61,0,0,0,5.38-3.45q4.6-4.23,9-8.64a97.33,97.33,0,0,0,8.25-9.4q7.68-10.74,15-21.69t14.2-22.07q2.31-4.22,4.22-8.44a50.92,50.92,0,0,0,3.07-8.83,47,47,0,0,0,2.5-11.13,19.93,19.93,0,0,0-2.5-11.52,10.75,10.75,0,0,0-7.1.77,46.68,46.68,0,0,0-5.95,3.84A92.84,92.84,0,0,0,1889.71,224c-.77,1.53-1.61,3.07-2.5,4.6s-1.86,3.33-2.88,5.38q-2.68-1.92-5-3.46l-4.6-3.07q2.29-5.76,4.22-11.32t4.22-11.32a15,15,0,0,0-2.69,1.53,159.81,159.81,0,0,0-17.84,33.59,104.35,104.35,0,0,0-6.72,37.8,79.94,79.94,0,0,0,1.34,10.17A24.62,24.62,0,0,0,1862.45,298.07Z"/></svg>