<svg id="Layer_1" data-name="Layer 1" xmlns="http://www.w3.org/2000/svg" viewBox="0 0 2400 410"><defs><style>.cls-1{fill:#fff;}</style></defs><path class="cls-1" d="M911.38,53.2q6.9,3.84,8.25,5.95t-.19,9.4a367.92,367.92,0,0,1-9.21,40.3q-7.68,26.49-15.74,53t-13.82,49.51q12.68-5,26.68-10.17t26.29-9.79c5.63-2,9.4-2.69,11.32-1.92s4.28,4.22,7.1,10.37c-1,1-2,1.92-2.88,2.68s-2,1.67-3.26,2.69a105.61,105.61,0,0,1-14.39,8.64q-8.64,4.41-18,8.63t-18.42,7.87q-9,3.66-15.17,6.33a13,13,0,0,0-8.44,10q-4.23,21.51-8.06,39.73t-8.83,39.72a171.24,171.24,0,0,1-4.6,18q-2.7,8.83-11.9,9.22c-5.38,0-8.83-.65-10.36-1.92s-2.44-4.74-2.69-10.37a214.09,214.09,0,0,1,1.73-37.61q2.49-18.42,6.71-36.85,1.15-4.22,2.11-8.44c.64-2.81,1.35-5.89,2.11-9.21a14.4,14.4,0,0,1-3.45,1,27.15,27.15,0,0,0-3.07.57q-10.36,2.69-20.73,5.37t-20.72,5a13.24,13.24,0,0,0-5.38,2.31,20.61,20.61,0,0,0-3.83,4.22q-7.31,11.13-14.4,22.45t-14.78,22.46a64.94,64.94,0,0,1-6.9,8.63q-3.85,4-8.06,8.25-6.15,6.13-13.44,6.34a42,42,0,0,1-15-2.5q-5.37-1.92-7.29-8.83t1.15-11.89a4,4,0,0,1,2.5-1,14.58,14.58,0,0,0,3.64-1q1.15,5.76,1.73,10.94t6.33,9.4a43.2,43.2,0,0,1,4-2.88,23.81,23.81,0,0,0,4-3.26q5.37-6.54,10.56-12.67a144.12,144.12,0,0,0,9.79-13.05q5.37-7.66,10.17-16.12t10.17-16.5a3.47,3.47,0,0,0,.38-1.54,6.25,6.25,0,0,1,.39-1.92q-3.84-.76-7.49-1.15a60.07,60.07,0,0,1-7.1-1.15,47.58,47.58,0,0,1-25-12.67q-5.76-5-4.6-13,5.76.39,6.91,6.53c.76,3.58,3.07,5.76,6.9,6.52a68.7,68.7,0,0,0,19,1.92,121.44,121.44,0,0,0,19-2.3,5.42,5.42,0,0,0,3.27-2.11,36.58,36.58,0,0,0,2.49-3.65q11.13-18.42,22.07-36.27t22.07-36.27q14.58-25.34,31.09-49.51t34.93-47.21c1.27-1.54,2.49-3,3.64-4.42s2.37-2.74,3.65-4A29.31,29.31,0,0,1,911.38,53.2ZM798.15,239l1.15,1.15,4.61-1.15q8.82-3.47,18-7.3t18.42-7.29a7.25,7.25,0,0,0,4.42-2.69,15.11,15.11,0,0,0,2.11-5q7.67-23.79,15-47.4t15-47.4a6.21,6.21,0,0,0,.77-2.69,699.36,699.36,0,0,0-41.07,59.11Q817.72,208.65,798.15,239Z"/><path class="cls-1" d="M943.23,229.37a18.41,18.41,0,0,0,7.1-2.69,33.28,33.28,0,0,0,5.19-4.22q6.13-6.53,11.7-12.86l11.32-12.85q6.91-7.29,14.59-.39a7.07,7.07,0,0,1,2.69,4.22,11.42,11.42,0,0,1-.39,5q-3.07,9.21-5.75,18.43t-5.76,18a142.56,142.56,0,0,0-6.14,24.56q-1.93,12.28-3.07,24.57a6.17,6.17,0,0,0,.19,1.53c.12.52.32,1.28.57,2.3a40.65,40.65,0,0,0,9-5.94,91.61,91.61,0,0,0,7.1-7.11q11.13-11.51,22.65-23t22.65-22.65l3.45-3.46c1,.52,2,1,2.88,1.54s1.73,1,2.49,1.54a1.37,1.37,0,0,0-.19,1.15.62.62,0,0,1-.19.76q-10,13.44-19.58,27.06a193.17,193.17,0,0,1-21.49,25.53q-4.23,4.23-8.64,8.06t-9,7.29q-7.29,6.13-15.35,1.54-1.53-.77-2.88-1.35c-.9-.38-1.86-.82-2.87-1.34q-8.46-1.92-11.33-7.68a38.24,38.24,0,0,1-3.64-13.43,69,69,0,0,1,1.15-19.38q1.91-9.41,4.22-18.62a24.38,24.38,0,0,0,1.15-3.64,40.06,40.06,0,0,1,1.15-4c-1,.26-2.3.65-3.84,1.16a14.11,14.11,0,0,1-14.2-.77,50.85,50.85,0,0,0-6.52-2.69q-10.36-5-12.67-16.89a69.42,69.42,0,0,1-1.15-21.68,73,73,0,0,1,5.37-20.54A178.67,178.67,0,0,1,937.28,154a65.58,65.58,0,0,1,17.47-18.23q1.53-1.16,2.88-2.31a14,14,0,0,1,2.88-1.91q7.28-3.84,12.09-2.5t9,8.25a4.47,4.47,0,0,1,.76,4.22l-1.53,3.84q-6.54,11.15-14.2,23.8a152.94,152.94,0,0,0-12.86,25.52,275.94,275.94,0,0,0-9,27.06A48,48,0,0,0,943.23,229.37Z"/><path class="cls-1" d="M1060.29,235.9a48.89,48.89,0,0,0,2.88-4,23.33,23.33,0,0,1,3.26-4,198.89,198.89,0,0,1,21.5-24.57,112.94,112.94,0,0,1,26.1-18.81,26.67,26.67,0,0,0,3.26-1.53,27.38,27.38,0,0,1,3.26-1.54q10.37-4.21,20,3.84,9.21,8.06,11.13,17.27t-1.92,20.35a321.54,321.54,0,0,1-14.39,36.46,213.51,213.51,0,0,1-19.77,33.78,4.27,4.27,0,0,1-.57,1,4.07,4.07,0,0,0-.58,1,54.16,54.16,0,0,1-6.14,7.1,15.38,15.38,0,0,1-5.56,3.46,11.31,11.31,0,0,1-6.53,0,68,68,0,0,1-9-3.26l-8.06-3.46q-6.91-2.29-6.14-9.59a105.18,105.18,0,0,1,2.88-17.08q2.1-8.25,4.8-17.08c1.53.76,2.93,1.41,4.22,1.92l3.84,1.53q-.39,5.38-.58,10.36t-.58,10a.78.78,0,0,1,.58.2.78.78,0,0,0,.58.19l3.45-4.61q4.21-8.06,8.44-15.93T1109,242.8q4.21-7.67,8.25-15.16t7.87-15.16a71,71,0,0,0,4.6-9.4q1.92-4.8,4.23-10.17-3.09-1.16-5-.39l-3.84,1.54a82.18,82.18,0,0,0-16.31,9.4,162.26,162.26,0,0,0-14.4,12.09,197.55,197.55,0,0,0-21.87,25.91,280.47,280.47,0,0,0-17.66,28.6,89.64,89.64,0,0,0-10.17,26.29q-2.88,13.62-5.57,27.44-1.92,8.44-3.45,16.89t-3.46,16.89q-1.9,7.67-4.41,15t-5.18,15c-.77,3.07-2.94,4.85-6.53,5.37a38.26,38.26,0,0,0-3.84.19c-1.27.13-2.55.32-3.83.58a20.89,20.89,0,0,1-2.88-7.68c-.39-2.56-.83-5.12-1.35-7.68a95,95,0,0,1-.76-24q1.14-11.71,3.07-23.61a545.55,545.55,0,0,1,15.35-64.1q9.6-31.47,20.73-62.56a107,107,0,0,1,6.33-12.86q3.65-6.33,7.1-12.86a26.13,26.13,0,0,1,5-6.52q3.45-3.84,6.91-1.92a24.81,24.81,0,0,1,4.22,2.68q1.92,1.55,1.15,5c-.51,3.07-1.09,6.15-1.72,9.22s-1.35,6.14-2.12,9.21l-9.21,34.54-1.15,4.61c.25.26.44.38.58.38S1060,235.64,1060.29,235.9Z"/><path class="cls-1" d="M1187.72,249a148.53,148.53,0,0,0-1,19.57,52,52,0,0,0,3.65,18q1.92,5.38,3.45,6.33t6.91.2a28.17,28.17,0,0,0,16.12-6.15q8.82-8.06,17.85-15.92t17.85-15.93q10-8.84,19.38-18.24t19-18.61a7.68,7.68,0,0,1,4.8-2.5,15.82,15.82,0,0,1,6,1c-.77,1.29-1.48,2.44-2.12,3.46s-1.34,2.05-2.11,3.07q-13.44,15.36-26.29,30.51t-26.29,30.13a114,114,0,0,1-8.83,8.64q-4.61,4-9.59,7.87a31,31,0,0,1-14.4,6.52q-7.48,1.16-15.54-3.84-5.38-3.45-10.94-6.9t-10.94-6.53a31.13,31.13,0,0,1-11.13-11.71,40.9,40.9,0,0,1-4.22-15.16q-5.76-53.34,36.46-84a36.28,36.28,0,0,1,4.22-2.88,36.42,36.42,0,0,0,4.23-2.88,23.63,23.63,0,0,1,10.74-5.37,39,39,0,0,1,12.28-.39,10,10,0,0,1,4,1,8.32,8.32,0,0,1,3.26,2.5l9.21,11.51a104.49,104.49,0,0,1,8.44,12.28,27.37,27.37,0,0,1,3.65,14.2,40.25,40.25,0,0,1-3.26,14.59,50.1,50.1,0,0,1-12.09,18.23,73.21,73.21,0,0,1-17.85,12.47,30.41,30.41,0,0,1-15.35,3.46,27.21,27.21,0,0,1-15-5.76,5.29,5.29,0,0,0-1.73-1.15A22.84,22.84,0,0,1,1187.72,249Zm1.92-6.53q19.18,1.54,31.86-10.36a62.14,62.14,0,0,0,11.32-14.2,97.24,97.24,0,0,0,7.48-16.51,29,29,0,0,0,1.16-5c.25-1.79.51-3.7.76-5.76a3.29,3.29,0,0,0-1.15-3.45,4.83,4.83,0,0,0-3.84-.77,21.07,21.07,0,0,0-4.6.77,28.17,28.17,0,0,0-13.05,6.14,126.14,126.14,0,0,0-10.37,10,57.83,57.83,0,0,0-12.09,17.66A146.52,146.52,0,0,0,1189.64,242.42Z"/><path class="cls-1" d="M1317.45,286.18c-1.54,2.05-3.07,4.16-4.61,6.33a74.51,74.51,0,0,1-5,6.33,129.94,129.94,0,0,1-9.59,10.75q-4.23,4.21-10,1.53-14.19-6.9-21.49-18.23T1263,264.3a221.62,221.62,0,0,1,7.48-25.14,103.7,103.7,0,0,1,12.09-23.22,74.47,74.47,0,0,1,23.41-23q15.36-9.21,35.32-8.06a29.85,29.85,0,0,1,18.8,7.67c2-1.78,4.09-3.58,6.14-5.37s4.1-3.45,6.15-5a28,28,0,0,1,3.26-2.11,32.32,32.32,0,0,1,3.65-1.73c4.08-1.53,6.9-2,8.44-1.34s3.32,3,5.37,7.1q-2.68,4.23-5.37,8.64c-1.79,2.94-3.59,5.82-5.37,8.63a255.94,255.94,0,0,0-20.15,44.52q-7.87,23-16.32,46.06-3.07,7.69-5.56,15.36t-5.57,15.35a17.46,17.46,0,0,0,3.26.38,11.68,11.68,0,0,1,2.88.39q8.45.76,16.89,1.15t16.89,1.15a13.81,13.81,0,0,1,5.37,1.73q2.31,1.33,3.07,5.56a10.68,10.68,0,0,0-2.11.19,4.13,4.13,0,0,1-2.11-.19q-10.75,0-21.11-.19t-21.11-.58q-6.53-.37-9.6,6.53a161.76,161.76,0,0,1-24.94,39.53,81.16,81.16,0,0,1-24.95,20,58,58,0,0,1-30.32,6.53,35.58,35.58,0,0,1-12.48-3.65,56.88,56.88,0,0,1-10.55-7.1q-5.37-5-3.07-11.51a36.38,36.38,0,0,1,2.3-6.91,53.14,53.14,0,0,1,3.45-6.53,63.58,63.58,0,0,1,12.67-14,102,102,0,0,1,15.74-10.55,116,116,0,0,1,20.91-10.17,181.63,181.63,0,0,1,22.84-6.72,10.43,10.43,0,0,0,7.68-6.53q3.06-8.82,6.33-17.27t6.33-16.89A2.2,2.2,0,0,0,1317.45,286.18Zm-19.57,52.2a240.55,240.55,0,0,0-28.22,9,84.06,84.06,0,0,0-24.37,14.77,33.5,33.5,0,0,0-6.72,7.3q-2.86,4.21-6,8.44a14.78,14.78,0,0,0-1.15,13.43q7.68,1.92,17.28-1.15a59.88,59.88,0,0,0,18.8-10.36A99.67,99.67,0,0,0,1284.82,362,94,94,0,0,0,1297.88,338.38Zm56-138.95a38,38,0,0,1-3.84-.19,13,13,0,0,0-3.83.19q-11.15,1.94-21.5,10.75a100.13,100.13,0,0,0-26.48,32.62A129.71,129.71,0,0,0,1286,283.11a33.87,33.87,0,0,0-.58,8.25,42.44,42.44,0,0,0,1.73,9.78,558.53,558.53,0,0,0,39.53-47.21A175.57,175.57,0,0,0,1353.91,199.43Z"/><path class="cls-1" d="M1431.82,286.18c-1.53,2.05-3.07,4.16-4.6,6.33a76.58,76.58,0,0,1-5,6.33,128.24,128.24,0,0,1-9.6,10.75q-4.23,4.21-10,1.53-14.19-6.9-21.49-18.23t-3.84-28.59a221.64,221.64,0,0,1,7.49-25.14,102.88,102.88,0,0,1,12.09-23.22,74.47,74.47,0,0,1,23.41-23q15.35-9.21,35.31-8.06a29.88,29.88,0,0,1,18.81,7.67l6.14-5.37c2-1.79,4.09-3.45,6.14-5a28,28,0,0,1,3.26-2.11,33.16,33.16,0,0,1,3.65-1.73c4.09-1.53,6.91-2,8.44-1.34s3.33,3,5.38,7.1q-2.7,4.23-5.38,8.64t-5.37,8.63a256.69,256.69,0,0,0-20.15,44.52q-7.87,23-16.31,46.06-3.07,7.69-5.57,15.36t-5.56,15.35a17.37,17.37,0,0,0,3.26.38,11.81,11.81,0,0,1,2.88.39q8.43.76,16.89,1.15t16.88,1.15a13.86,13.86,0,0,1,5.38,1.73q2.29,1.33,3.07,5.56a10.54,10.54,0,0,0-2.11.19,4.13,4.13,0,0,1-2.11-.19q-10.76,0-21.11-.19t-21.11-.58q-6.54-.37-9.6,6.53a161.81,161.81,0,0,1-25,39.53,81,81,0,0,1-25,20,58,58,0,0,1-30.32,6.53,35.59,35.59,0,0,1-12.47-3.65,57,57,0,0,1-10.56-7.1q-5.37-5-3.07-11.51a37.1,37.1,0,0,1,2.3-6.91,53.19,53.19,0,0,1,3.46-6.53,63.79,63.79,0,0,1,12.66-14,102.93,102.93,0,0,1,15.74-10.55,116.46,116.46,0,0,1,20.92-10.17,180.65,180.65,0,0,1,22.84-6.72,10.4,10.4,0,0,0,7.67-6.53q3.07-8.82,6.34-17.27t6.33-16.89A2.23,2.23,0,0,0,1431.82,286.18Zm-19.57,52.2a240.38,240.38,0,0,0-28.21,9,83.8,83.8,0,0,0-24.37,14.77,33.25,33.25,0,0,0-6.72,7.3q-2.88,4.21-6,8.44a14.75,14.75,0,0,0-1.15,13.43q7.68,1.92,17.27-1.15a59.82,59.82,0,0,0,18.81-10.36A99.67,99.67,0,0,0,1399.2,362,94.3,94.3,0,0,0,1412.25,338.38Zm56-138.95a37.83,37.83,0,0,1-3.84-.19,13.05,13.05,0,0,0-3.84.19q-11.13,1.94-21.49,10.75a100,100,0,0,0-26.49,32.62,130,130,0,0,0-12.28,40.31,33.4,33.4,0,0,0-.57,8.25,42.38,42.38,0,0,0,1.72,9.78A558.67,558.67,0,0,0,1441,253.93,175.79,175.79,0,0,0,1468.29,199.43Z"/><path class="cls-1" d="M1602.62,209.8a14.77,14.77,0,0,1,2.5,1.53,25.1,25.1,0,0,0,2.11,1.54,3.09,3.09,0,0,1-.39,1.92q-19.58,25.32-36.46,46.82a459.81,459.81,0,0,1-36.46,41.07,14.48,14.48,0,0,1-7.1,4.22,17.61,17.61,0,0,1-7.3,0,29.44,29.44,0,0,1-7.1-2.49c-2.3-1.15-4.6-2.36-6.91-3.65q-10.37-3.83-12.66-15.74-3.07-26.08,5.75-48A155.83,155.83,0,0,1,1522,197.13q7.67-5.76,12.47-2.3a41.22,41.22,0,0,1,9,9.21,175.22,175.22,0,0,0-12.86,22.07,92.11,92.11,0,0,0-6.52,18.61,119.15,119.15,0,0,0-2.69,20.35q-.57,11.13-1,27.25a197.29,197.29,0,0,0,22.84-19q10.93-10.56,21.3-21.5T1584.39,230Q1593.8,219,1602.62,209.8Zm-30.32-59.88q-4.6,5.76-8.45,9.79t-7.48,7.67c-2.44,2.44-4.93,5-7.49,7.68s-5.37,5.82-8.44,9.4q-3.84-1.53-4.61-4a13.06,13.06,0,0,0-3.45-5.18q-2.69-3.45-1.53-8.63a38.33,38.33,0,0,1,4-10.37,55.51,55.51,0,0,1,6.71-9.59,33.35,33.35,0,0,1,6.91-6.34,16.6,16.6,0,0,1,7.68-1.72,13.51,13.51,0,0,1,6.33,1.92,23.31,23.31,0,0,1,5.18,4.22C1569.23,146.4,1570.76,148.13,1572.3,149.92Z"/><path class="cls-1" d="M1642.15,181q8.83-7.68,20.73-4.61a32.07,32.07,0,0,1,11.13,5.18,54.2,54.2,0,0,1,9.21,8.64q6.91,8.84,3.84,20.73-2.31,8.84-5,17.08t-6.14,16.31a195.07,195.07,0,0,1-13.24,24.37,128.35,128.35,0,0,1-17.47,21.69,99.48,99.48,0,0,1-7.87,7.1c-2.68,2.18-5.44,4.41-8.25,6.72a22.17,22.17,0,0,1-7.29,3.83,14.34,14.34,0,0,1-8.06,0q-6.15-1.53-12.28-3.26a64.86,64.86,0,0,1-11.52-4.41,30.22,30.22,0,0,1-16.12-27.25,146,146,0,0,1,5.57-45.87q6.33-21.67,24.37-39.34a53.68,53.68,0,0,1,13.43-10.75,19.75,19.75,0,0,1,10.75-3.45q5.37,0,10.75,5A13.58,13.58,0,0,0,1642.15,181Zm-36.46,117.06q3.06-1.9,6.14-3.45a27.23,27.23,0,0,0,5.37-3.45q4.6-4.23,9-8.64a98.81,98.81,0,0,0,8.26-9.4q7.66-10.74,15-21.69t14.21-22.07q2.3-4.22,4.22-8.44a51.77,51.77,0,0,0,3.07-8.83,46.55,46.55,0,0,0,2.49-11.13,19.92,19.92,0,0,0-2.49-11.52,10.75,10.75,0,0,0-7.1.77,46,46,0,0,0-5.95,3.84,92.86,92.86,0,0,0-25,29.94c-.77,1.53-1.6,3.07-2.49,4.6s-1.86,3.33-2.88,5.38q-2.7-1.92-5-3.46l-4.61-3.07q2.31-5.76,4.22-11.32t4.23-11.32a14.64,14.64,0,0,0-2.69,1.53,159.4,159.4,0,0,0-17.85,33.59,104.35,104.35,0,0,0-6.72,37.8,81.75,81.75,0,0,0,1.35,10.17A24.5,24.5,0,0,0,1605.69,298.07Z"/></svg>