<svg id="Layer_1" data-name="Layer 1" xmlns="http://www.w3.org/2000/svg" viewBox="0 0 2400 410"><defs><style>.cls-1{fill:#fff;}</style></defs><path class="cls-1" d="M567.86,131.88A86.92,86.92,0,0,0,546,134.57a191.37,191.37,0,0,0-20,6.33q-9.6,3.65-18.8,7.87t-18.43,7.67q-1.53-3.06-3.83-6.9,6.14-7.68,17.65-15.93a260.34,260.34,0,0,1,24.57-15.55q13-7.28,25.52-13t20.92-8.83a23.69,23.69,0,0,0,8.83-4.41,25.44,25.44,0,0,0,6.14-8.25,85.18,85.18,0,0,1,6.91-11.9q3.06-4.22,7.67-10.75a57,57,0,0,1,7.1,5.57,7.3,7.3,0,0,1,2.31,4.6,16.34,16.34,0,0,1-1.16,6.34,96.29,96.29,0,0,0-2.87,10.74q8.82-1.53,19-3.07t20.54-2.68q10.36-1.16,20.53-1.54a154.68,154.68,0,0,1,19,.39,15.43,15.43,0,0,1,7.68,4.41,34.44,34.44,0,0,1,5.37,7.68,60.17,60.17,0,0,1,3.84,9c1,3.07,1.92,5.75,2.69,8.06a7.22,7.22,0,0,0,2.11,2.49c.63.38,1.08.52,1.34.38s.19-.19-.19-.19a9.31,9.31,0,0,0-2.49.77,12.7,12.7,0,0,1-4.8,1.34c-1.67.14-3.4.33-5.18.58q-22.65,1.92-48.17,5.37t-47,5.38a7.82,7.82,0,0,0-5.18,2.3,15.19,15.19,0,0,0-2.88,5.37q-5.38,23-13.63,48.94t-13.62,48.55q-2.7,11.91-4.61,21.69t-3.84,19q-1.92,9.21-3.64,19t-4,22.07q-2.31,10-5.57,19.76T538.31,353q-1.93,5.37-7.3,4.61l-7.48-.58a5.63,5.63,0,0,1-3.65-1.34,6.48,6.48,0,0,1-1.53-3.65q-.39-2.5-1.15-7.87a85.72,85.72,0,0,1-1-19q.57-9.4,1.34-19A294.68,294.68,0,0,1,524.49,263q5-20.92,11.71-41.46t14.39-40.68q7.67-20.16,15.35-40.88c.25-1,.51-2,.77-3.07S567.34,134.18,567.86,131.88Z"/><path class="cls-1" d="M646.92,181q8.83-7.68,20.73-4.61a32.07,32.07,0,0,1,11.13,5.18,54.2,54.2,0,0,1,9.21,8.64q6.91,8.84,3.84,20.73-2.3,8.84-5,17.08t-6.14,16.31a195.07,195.07,0,0,1-13.24,24.37A128.29,128.29,0,0,1,650,290.4a103.14,103.14,0,0,1-7.87,7.1c-2.69,2.18-5.44,4.41-8.26,6.72a22.07,22.07,0,0,1-7.29,3.83,14.34,14.34,0,0,1-8.06,0q-6.13-1.53-12.28-3.26a64.75,64.75,0,0,1-11.51-4.41,30.79,30.79,0,0,1-11.9-11.33,30.47,30.47,0,0,1-4.23-15.92,146.25,146.25,0,0,1,5.57-45.87q6.33-21.67,24.37-39.34A53.57,53.57,0,0,1,622,177.17a19.74,19.74,0,0,1,10.74-3.45q5.37,0,10.75,5A13.76,13.76,0,0,0,646.92,181ZM610.46,298.07c2-1.27,4.09-2.42,6.14-3.45a27.61,27.61,0,0,0,5.38-3.45q4.6-4.23,9-8.64a98.71,98.71,0,0,0,8.25-9.4q7.66-10.74,15-21.69t14.2-22.07q2.3-4.22,4.22-8.44a51.77,51.77,0,0,0,3.07-8.83,47,47,0,0,0,2.5-11.13,19.93,19.93,0,0,0-2.5-11.52,10.75,10.75,0,0,0-7.1.77,46.68,46.68,0,0,0-6,3.84A92.86,92.86,0,0,0,637.71,224c-.76,1.53-1.6,3.07-2.49,4.6s-1.86,3.33-2.88,5.38q-2.69-1.92-5-3.46l-4.61-3.07c1.54-3.84,2.94-7.61,4.23-11.32s2.68-7.49,4.22-11.32a14.64,14.64,0,0,0-2.69,1.53,160.57,160.57,0,0,0-17.85,33.59,104.35,104.35,0,0,0-6.71,37.8,79.94,79.94,0,0,0,1.34,10.17A24.62,24.62,0,0,0,610.46,298.07Z"/><path class="cls-1" d="M729.83,272.74q-5.39,7.68-9.79,15.35t-9,15.36q-1.92,3.07-6.91,5a30.82,30.82,0,0,1-9.78,2.11,14.53,14.53,0,0,1-8.06-1.73c-2.18-1.28-2.88-3.7-2.12-7.29q6.54-28,13.25-55.46a389.54,389.54,0,0,1,17.46-53.93c.25-.77.64-1.92,1.15-3.45l-6.91-3.46q-13-6.53-17.85-15.93t-1.72-24q5-24.56,24.18-43,2.68-3.08,3.84-2.88c.76.13,2.55,1.21,5.37,3.26q-3.07,5.39-6.14,10.94t-6.14,10.94a76.53,76.53,0,0,0-4.8,14.39,86.74,86.74,0,0,0-2.69,19.58,38.48,38.48,0,0,0,3.07,16.88q3.25,7.11,12.48,5.95a25.07,25.07,0,0,0,2.68-5.37q6.14-11.52,11.71-23T745,130.34a169.69,169.69,0,0,1,14.2-21.11,105.52,105.52,0,0,1,18.23-18q4.23-2.69,9.21-5.76a50.79,50.79,0,0,1,10-4.8,23.25,23.25,0,0,1,9.6-1.34A14.93,14.93,0,0,1,815,83.52q9.59,8.83,13.05,19.57a27.61,27.61,0,0,1-1.92,21.5A91.46,91.46,0,0,1,802,157.21q-3.07,2.31-9,6.91t-12.67,9.21q-6.72,4.6-12.86,8.45a49.86,49.86,0,0,1-9.59,5q-12.68,6.9-17.66,18.42-3.45,12.66-8.06,26.1t-7.29,24.56q5.76-10,12.86-20.53a213.59,213.59,0,0,1,15.35-20.15,150.72,150.72,0,0,1,17.66-17.46,74.31,74.31,0,0,1,19.76-12.09q10.37-4.62,18,2.68a49.82,49.82,0,0,1,10.56,10.75,49.28,49.28,0,0,1,6.71,12.86,31.67,31.67,0,0,1,1.73,13.24,22,22,0,0,1-4.8,11.9q-18.42,28-52.58,28.78a27.65,27.65,0,0,1-7.29-1.53c-2.05-.77-4.22-1.66-6.53-2.69q.38,13,.58,22.65t.19,18.42a151.78,151.78,0,0,0,4.61,35.12,48,48,0,0,0,17.65,26.68Q792,371,803.91,368.89a58.11,58.11,0,0,0,22.26-9,97.29,97.29,0,0,0,19-16.7,178.08,178.08,0,0,0,14.77-19q1.92.76,6.53,2.12a43.38,43.38,0,0,1,6.91,2.49,192.67,192.67,0,0,1-12.67,17.46,129.65,129.65,0,0,1-15.93,16.51,101,101,0,0,1-18.23,12.66A43.88,43.88,0,0,1,807.36,381a36.44,36.44,0,0,1-14.2-1.34,70.27,70.27,0,0,1-14-5.76,94.66,94.66,0,0,1-12.67-8.25q-6-4.61-10.94-9.21a74.85,74.85,0,0,1-18.61-26.68,96.51,96.51,0,0,1-6.72-32.05q-.39-6.53-.38-12.47Zm75.23-75.61a46,46,0,0,0-17.47,6.52A85.28,85.28,0,0,0,773,215.36q-6.72,6.72-12.86,14.2t-11.9,14a4.81,4.81,0,0,0-1.15,2.11,9,9,0,0,1-1.15,2.5q7.66,3.45,18,.77t21.49-11.14A59.57,59.57,0,0,0,801,220.54Q806.58,211,805.06,197.13Zm-48.75-27.25q13.44-8.44,25.91-18a127.43,127.43,0,0,0,22.45-22.26c1.79-2.31,3.71-5.05,5.76-8.25a52,52,0,0,0,5-10,44.08,44.08,0,0,0,2.5-10.18A13.79,13.79,0,0,0,815.8,92a13.4,13.4,0,0,0-10.55,2.31,52.71,52.71,0,0,0-10,8.82,101.49,101.49,0,0,0-8.64,11.13l-6.14,9.22q-6.9,11.13-13.24,22.64A182.05,182.05,0,0,0,756.31,169.88Z"/><path class="cls-1" d="M890.26,263.53a36.52,36.52,0,0,1-3.45,3.84q-5,6.9-9.79,13.62t-9.78,13.63c-1.29,1.54-2.5,3.14-3.65,4.8a31.94,31.94,0,0,1-3.65,4.41q-3.45,3.45-6.33,3.65a15.47,15.47,0,0,1-7.1-1.73q-11.13-5-15.35-13.63a38.21,38.21,0,0,1-3.46-19.76v-4a10.78,10.78,0,0,1,.77-4,235.12,235.12,0,0,1,11.32-35.89,146.48,146.48,0,0,1,19-33.2,45.65,45.65,0,0,1,6.53-7.29,26.49,26.49,0,0,1,8.82-5l4,4.8q2.12,2.49,4.42,5.18-5.39,12.28-10.75,24.75t-10.75,24.76a198.82,198.82,0,0,0-7.29,19.19,162.2,162.2,0,0,0-5,20,21.78,21.78,0,0,0,.39,10.75c1-.77,2-1.54,2.87-2.31s1.86-1.66,2.88-2.68Q865.32,275,875.87,263t20.92-24.38a16.75,16.75,0,0,0,2.5-4.41c.63-1.66,1.21-3.26,1.72-4.8a162,162,0,0,1,8.25-20.15,95,95,0,0,1,12.09-18.62q2.31-2.29,4.8-4.41a36.83,36.83,0,0,0,4.42-4.41q6.9,4.23,8.06,6.91t-1.16,9.21q-7.68,20.72-13.81,41.64t-11.13,42.8q-1.93,7.68-4.42,15.54t-5.18,15.93a23.64,23.64,0,0,0-.57,3.07,15.08,15.08,0,0,1-1,3.46H911q10.74-.39,21.3.19a127.61,127.61,0,0,1,20.92,2.88,28,28,0,0,1,6.53,2.3q3.06,1.53,4.22,6.14c-2.82-.52-5.38-1-7.68-1.34s-4.74-.71-7.29-1a122.87,122.87,0,0,0-23.8-1.54q-11.9.38-23.79,1.15a8.68,8.68,0,0,0-4.8,1.92,12.69,12.69,0,0,0-2.88,3.84,138.28,138.28,0,0,1-34.93,44.14,90.72,90.72,0,0,1-44.14,20q-9.21,1.92-15.54-2.11A71,71,0,0,1,787,387.12a7.24,7.24,0,0,1-2.11-4.8,11.82,11.82,0,0,1,1-5.56,24.21,24.21,0,0,1,2.11-4.61,37.52,37.52,0,0,1,2.87-4.22,65.35,65.35,0,0,1,11.52-12.86,85.4,85.4,0,0,1,14.2-9.79,183.22,183.22,0,0,1,46.06-18.8A14.18,14.18,0,0,0,873,318.8a150.27,150.27,0,0,0,10.37-26.87Q887.19,278.12,890.26,263.53Zm-31.08,75.61a58.2,58.2,0,0,0-12.86,3.46,134.88,134.88,0,0,0-14.2,6.33A116.27,116.27,0,0,0,818.68,357a60.21,60.21,0,0,0-10.17,8.64,38.78,38.78,0,0,0-5.18,6.33,74.84,74.84,0,0,0-4,7.1,10.23,10.23,0,0,0-1,3.65,34.6,34.6,0,0,1-1,5.18q21.89-5.38,35.89-18.62A199.46,199.46,0,0,0,859.18,339.14Z"/><path class="cls-1" d="M1002.72,181q8.84-7.68,20.73-4.61a32.07,32.07,0,0,1,11.13,5.18,54.2,54.2,0,0,1,9.21,8.64q6.92,8.84,3.84,20.73-2.31,8.84-5,17.08t-6.14,16.31a195.07,195.07,0,0,1-13.24,24.37,128.35,128.35,0,0,1-17.47,21.69,99.48,99.48,0,0,1-7.87,7.1c-2.68,2.18-5.44,4.41-8.25,6.72a22.17,22.17,0,0,1-7.29,3.83,14.34,14.34,0,0,1-8.06,0q-6.15-1.53-12.28-3.26a64.86,64.86,0,0,1-11.52-4.41,30.25,30.25,0,0,1-16.12-27.25A146.25,146.25,0,0,1,940,227.26q6.33-21.67,24.37-39.34a53.68,53.68,0,0,1,13.43-10.75,19.75,19.75,0,0,1,10.75-3.45q5.37,0,10.75,5A13.76,13.76,0,0,0,1002.72,181ZM966.26,298.07q3.06-1.9,6.14-3.45a27.23,27.23,0,0,0,5.37-3.45q4.61-4.23,9-8.64a98.81,98.81,0,0,0,8.26-9.4q7.66-10.74,15-21.69t14.21-22.07q2.29-4.22,4.22-8.44a51.77,51.77,0,0,0,3.07-8.83A46.55,46.55,0,0,0,1034,201a19.92,19.92,0,0,0-2.49-11.52,10.75,10.75,0,0,0-7.1.77,46,46,0,0,0-6,3.84,92.86,92.86,0,0,0-25,29.94c-.77,1.53-1.6,3.07-2.49,4.6s-1.86,3.33-2.88,5.38q-2.7-1.92-5-3.46l-4.61-3.07q2.31-5.76,4.22-11.32T987,204.81a14.64,14.64,0,0,0-2.69,1.53,159.64,159.64,0,0,0-17.85,33.59,104.35,104.35,0,0,0-6.72,37.8,81.75,81.75,0,0,0,1.35,10.17A24.5,24.5,0,0,0,966.26,298.07Z"/><path class="cls-1" d="M1290.2,155.68a29.64,29.64,0,0,0,11.13,4,14.86,14.86,0,0,0,11.13-2.5,105.36,105.36,0,0,0,23.22-20.53q9.79-11.7,13.24-29c.25-1.79.45-3.58.58-5.37s.19-3.71.19-5.76c-.26-4.09-1.53-7.16-3.84-9.21a15.87,15.87,0,0,0-8.25-3.84,27.5,27.5,0,0,0-10.17.38,29.81,29.81,0,0,0-9.21,3.46,79.24,79.24,0,0,0-16.51,15.73,150.74,150.74,0,0,0-13.81,20.54A211.35,211.35,0,0,0,1277,146.08q-4.82,11.52-7.87,21.5-12.67,38.76-25.53,77.72T1218,315.73q8.82,3.84,17.66,7.87a66.43,66.43,0,0,0,17.65,5.37,44.3,44.3,0,0,0,17.85-1q9-2.29,18.23-10.74A154.38,154.38,0,0,0,1316.68,285a244.92,244.92,0,0,0,19.58-38.38q1.9-5,3.83-10.36t3.84-11.13c1.54.51,3.07,1.09,4.61,1.73a27.81,27.81,0,0,1,4.61,2.49,273.47,273.47,0,0,1-3.27,30.13,103.67,103.67,0,0,1-9,28.59,122.24,122.24,0,0,1-18,26.68,139.13,139.13,0,0,1-23.79,21.3,28.05,28.05,0,0,1-14.2,4.8,67.56,67.56,0,0,1-15.36-.58,248.47,248.47,0,0,1-29-5.75,214.93,214.93,0,0,1-27.82-9.21q-6.15,7.28-10.94,14.2a73.44,73.44,0,0,1-10.17,11.9,31.44,31.44,0,0,1-12.29,7.1q-6.9,2.1-17.27-.2c-3.07-.76-6.14-1.47-9.21-2.11a40.71,40.71,0,0,1-8.44-2.68,20.19,20.19,0,0,1-6.53-4.61,14.87,14.87,0,0,1-3.45-8.25,65,65,0,0,1,.76-20q1.93-9.6,11.52-15a50.35,50.35,0,0,1,18.42-5.37,67.17,67.17,0,0,1,18.81,1.15c1.28-3.58,2.55-7,3.84-10.36s2.55-6.78,3.84-10.37q8.06-25.33,16.31-50.66t17.08-51A335.51,335.51,0,0,1,1243.18,135a203.81,203.81,0,0,1,25.91-39.53,98.6,98.6,0,0,1,15.74-15.36,64.59,64.59,0,0,1,18.42-10,43.28,43.28,0,0,1,20.53-2.49q9.79,1.35,18.62,9.4A107.3,107.3,0,0,1,1357,92.15q5.76,7.48,5,18.62-.77,20.73-11.51,33.58a102.13,102.13,0,0,1-26.1,22.07,22.1,22.1,0,0,1-9.6,3.07,24,24,0,0,1-9.59-1.15,27.38,27.38,0,0,1-8.64-4.8A23.4,23.4,0,0,1,1290.2,155.68ZM1180.81,309.21c-5.63.5-10.62,1.15-15,1.91s-7.68,3.59-10,8.45a21.53,21.53,0,0,0-2.88,12.66,33.83,33.83,0,0,0,4.42,13.44A53.61,53.61,0,0,0,1171,329.16Q1175.82,319.95,1180.81,309.21Z"/><path class="cls-1" d="M1417.62,168.73q4.23,3.45,6.53,5.56a14.66,14.66,0,0,1,3.26,4,7.76,7.76,0,0,1,.58,4.61,37.06,37.06,0,0,1-1.92,6.91q-3.46,10-7.3,19.76t-7.67,19.77q-5,12.28-9.21,24.95a213.64,213.64,0,0,0-6.91,26.1,12.42,12.42,0,0,0-.39,3.07,32.64,32.64,0,0,1-.38,4.22,33.94,33.94,0,0,1,3.45-3.07,13.44,13.44,0,0,0,2.69-2.69q13.43-15.74,27.06-31.28T1454.47,219a14.59,14.59,0,0,0,3.07-4.61c.77-1.79,1.54-3.7,2.3-5.76a115,115,0,0,1,8.26-17.46,65.67,65.67,0,0,1,11.7-14.78,22,22,0,0,1,4.42-4q2.49-1.73,4.79-3.64,6.91,5,7.87,7.67c.64,1.8-.06,5-2.11,9.6a285.29,285.29,0,0,0-11.32,30.7q-4.8,15.75-8.25,31.86-1.15,6.91-2.11,13.63t-1.73,13.62a5.88,5.88,0,0,0-.19,2.69,42.67,42.67,0,0,1,.19,4.61q14.58-18,28.59-34.74a322.69,322.69,0,0,1,30.52-31.67c1.27,1.29,2.36,2.37,3.26,3.27a42.85,42.85,0,0,1,2.88,3.26,22.88,22.88,0,0,1-1.73,2.88,19.41,19.41,0,0,1-2.11,2.49q-12.29,17.28-25,33.78t-25,33.78a43.11,43.11,0,0,0-3.45,4.22q-5.76,8.83-16.12,5.37c-7.43-2.3-12.28-4.92-14.59-7.87s-3.58-8.25-3.83-15.93a87.44,87.44,0,0,1,0-16.5c.5-2.81.95-5.57,1.34-8.25s.83-5.69,1.34-9c-1,.77-1.86,1.41-2.49,1.92a8.05,8.05,0,0,0-1.73,1.92q-4.6,6.14-9,12.28t-9.4,12.28q-5.39,6.92-11.52,13.43l-12.28,13.05a17.88,17.88,0,0,1-8.64,5.19q-4.41.94-9.78-2.12a25.17,25.17,0,0,0-4.8-2.49q-2.49-1-5.18-2.11-6.53-3.07-8.83-7.1t-1.54-10.94q.39-4.61,1-9a41.29,41.29,0,0,1,2.11-8.64q4.61-12.66,9-25.52a256,256,0,0,1,10.17-25.14,134.54,134.54,0,0,1,11.71-19.77q6.71-9.39,13.24-19a33.88,33.88,0,0,1,3.65-3.83C1414.61,171.29,1416.09,170,1417.62,168.73Z"/><path class="cls-1" d="M1618.74,301.14c2,.52,3.58.52,4.61,0s2.55-.51,4.61,0a9.36,9.36,0,0,0-1,2.69,3.52,3.52,0,0,1-1,1.92q-4.61,8.44-9,16.5a68.24,68.24,0,0,1-9.79,13.82,31.64,31.64,0,0,1-12.09,8.26q-6.72,2.49-16.31.19-11.91-9.21-14.21-24.95a97.49,97.49,0,0,1,1.16-33.2,160.79,160.79,0,0,1,11.32-34.93A238.51,238.51,0,0,1,1593,221.31a6.86,6.86,0,0,0,.77-4.61l-5.76,5.76a153.73,153.73,0,0,0-19,23q-8.26,12.28-17.08,24.57-5.39,8.06-11.13,15.92t-11.52,15.93a6.1,6.1,0,0,0-1.15,1.54A6.13,6.13,0,0,1,1527,305a19.61,19.61,0,0,1-11.13,6.72,17.85,17.85,0,0,1-12.67-2.11,6.15,6.15,0,0,1-2.68-3.46q-.77-3.06-1.54-6.14a16.76,16.76,0,0,1-.38-6.14,235.39,235.39,0,0,1,9.4-51.24,174.83,174.83,0,0,1,22.45-47,73,73,0,0,1,5.76-7.86q3.08-3.64,6.14-7.49c2.82-3.07,4.86-4.73,6.14-5s3.2.26,5.76,1.54a7.61,7.61,0,0,1,3.26,4.6,15.24,15.24,0,0,1,0,6,35.6,35.6,0,0,1-1.91,6.72,53.9,53.9,0,0,0-2.12,6.52q-5,14.6-9.78,29t-9.41,29c-.51,1.28-1,2.56-1.34,3.84a13.45,13.45,0,0,0-.58,3.84A302,302,0,0,1,1550,241.08a280.31,280.31,0,0,1,21.49-24.57,305.64,305.64,0,0,1,24.18-22.07,221.31,221.31,0,0,1,25.34-18,11.94,11.94,0,0,1,4.22,5.57,13.19,13.19,0,0,0,4.61,5.95,6.16,6.16,0,0,1,2.49,5.18,34.21,34.21,0,0,1-1,6q-4.23,11.52-7.1,18t-5.37,11.7q-2.51,5.19-5.76,11.14t-8.25,15.54a108.51,108.51,0,0,0-6.91,17.27,216.76,216.76,0,0,0-5.76,21.69,107.66,107.66,0,0,0-2.49,20c-.14,6,.7,10,2.49,11.9s4.8,1.15,9-2.31S1611.32,312.91,1618.74,301.14Z"/><path class="cls-1" d="M1678.23,286.18c-1.54,2.05-3.07,4.16-4.61,6.33a74.51,74.51,0,0,1-5,6.33,129.94,129.94,0,0,1-9.59,10.75q-4.23,4.21-10,1.53-14.19-6.9-21.49-18.23t-3.84-28.59a221.62,221.62,0,0,1,7.48-25.14,103.7,103.7,0,0,1,12.09-23.22,74.57,74.57,0,0,1,23.41-23q15.36-9.21,35.32-8.06a29.91,29.91,0,0,1,18.8,7.67c2.05-1.78,4.09-3.58,6.14-5.37s4.1-3.45,6.15-5a28,28,0,0,1,3.26-2.11,32.32,32.32,0,0,1,3.65-1.73q6.13-2.3,8.44-1.34t5.37,7.1q-2.68,4.23-5.37,8.64c-1.79,2.94-3.59,5.82-5.37,8.63A255.7,255.7,0,0,0,1723,245.88q-7.87,23-16.32,46.05-3.08,7.68-5.56,15.36t-5.57,15.35a17.46,17.46,0,0,0,3.26.38,11.68,11.68,0,0,1,2.88.39q8.44.76,16.89,1.15t16.89,1.15a13.81,13.81,0,0,1,5.37,1.73q2.31,1.33,3.07,5.56a10.68,10.68,0,0,0-2.11.19,4.13,4.13,0,0,1-2.11-.19q-10.76,0-21.11-.19t-21.11-.58q-6.53-.37-9.59,6.53a162.11,162.11,0,0,1-24.95,39.53,81.16,81.16,0,0,1-25,20,58,58,0,0,1-30.32,6.53,35.58,35.58,0,0,1-12.48-3.65,57.21,57.21,0,0,1-10.55-7.1q-5.37-5-3.07-11.51a36.38,36.38,0,0,1,2.3-6.91,53.14,53.14,0,0,1,3.45-6.53,63.58,63.58,0,0,1,12.67-14,102,102,0,0,1,15.74-10.55,116,116,0,0,1,20.91-10.17,181.63,181.63,0,0,1,22.84-6.72,10.43,10.43,0,0,0,7.68-6.53q3.06-8.84,6.33-17.27t6.33-16.89A2.2,2.2,0,0,0,1678.23,286.18Zm-19.57,52.2a240.55,240.55,0,0,0-28.22,9,84.06,84.06,0,0,0-24.37,14.77,33.67,33.67,0,0,0-6.72,7.29q-2.86,4.23-5.94,8.45a14.75,14.75,0,0,0-1.16,13.43q7.7,1.92,17.28-1.15a59.88,59.88,0,0,0,18.8-10.36A100,100,0,0,0,1645.6,362,94,94,0,0,0,1658.66,338.38Zm56-138.95a38,38,0,0,1-3.84-.19,13,13,0,0,0-3.83.19q-11.14,1.94-21.5,10.75A100.13,100.13,0,0,0,1659,242.8a129.71,129.71,0,0,0-12.28,40.31,33.87,33.87,0,0,0-.58,8.25,42.44,42.44,0,0,0,1.73,9.78,558.53,558.53,0,0,0,39.53-47.21A175.57,175.57,0,0,0,1714.69,199.43Z"/><path class="cls-1" d="M1805.27,181q8.82-7.68,20.73-4.61a32.07,32.07,0,0,1,11.13,5.18,54.2,54.2,0,0,1,9.21,8.64q6.92,8.84,3.84,20.73-2.31,8.84-5,17.08t-6.14,16.31a196.38,196.38,0,0,1-13.24,24.37,128.35,128.35,0,0,1-17.47,21.69,99.48,99.48,0,0,1-7.87,7.1c-2.68,2.18-5.44,4.41-8.25,6.72a22.17,22.17,0,0,1-7.29,3.83,14.34,14.34,0,0,1-8.06,0q-6.15-1.53-12.28-3.26a64.86,64.86,0,0,1-11.52-4.41A30.25,30.25,0,0,1,1737,273.13a146,146,0,0,1,5.57-45.87q6.33-21.67,24.37-39.34a53.68,53.68,0,0,1,13.43-10.75,19.75,19.75,0,0,1,10.75-3.45q5.37,0,10.75,5A13.58,13.58,0,0,0,1805.27,181Zm-36.46,117.06q3.06-1.9,6.14-3.45a27.53,27.53,0,0,0,5.37-3.45q4.61-4.23,9-8.64a97.33,97.33,0,0,0,8.25-9.4q7.68-10.74,15-21.69t14.2-22.07c1.54-2.81,2.94-5.62,4.23-8.44a52.65,52.65,0,0,0,3.07-8.83,47,47,0,0,0,2.49-11.13,19.92,19.92,0,0,0-2.49-11.52,10.75,10.75,0,0,0-7.1.77,46,46,0,0,0-6,3.84,92.86,92.86,0,0,0-25,29.94c-.77,1.53-1.6,3.07-2.5,4.6s-1.85,3.33-2.87,5.38q-2.7-1.92-5-3.46t-4.61-3.07q2.29-5.76,4.22-11.32t4.22-11.32a14.78,14.78,0,0,0-2.68,1.53A159.64,159.64,0,0,0,1769,239.93a104.35,104.35,0,0,0-6.72,37.8,79.9,79.9,0,0,0,1.35,10.17A24.5,24.5,0,0,0,1768.81,298.07Z"/></svg>