<svg id="Layer_1" data-name="Layer 1" xmlns="http://www.w3.org/2000/svg" viewBox="0 0 2400 410"><defs><style>.cls-1{fill:#fff;}</style></defs><path class="cls-1" d="M855.34,118.06q-7.7,5.39-15.55,10.37t-15.16,10.36a80.19,80.19,0,0,0-13.24,12.28,58.11,58.11,0,0,0-9.79,16.51q-8.05-4.23-10-9.41t1.15-12.86A40.05,40.05,0,0,1,799.68,134q4.22-4.78,8.83-9.4A308.72,308.72,0,0,1,836,104.25a172.09,172.09,0,0,1,30.13-15.74,19.63,19.63,0,0,0,10.37-8.83,76.08,76.08,0,0,1,5.37-8.44Q884.88,67,888,62a44.13,44.13,0,0,1,7.87,5.76q3.25,3.07,2.88,8.45l7.29-1c2.81-.39,5.76-.77,8.83-1.15s5.95-.71,8.63-1,5-.51,7.1-.77a23.66,23.66,0,0,1,9.6-.39q10.74,0,15.74,8.06l1.15,1.16q9.59,11.5,10.55,20.15t-7.1,21.68a120.35,120.35,0,0,1-10.17,16.31q-5.57,7.48-12.09,15.17-5.76,6.9-13.82,15.16t-16.88,16.88q-8.84,8.64-17.47,16.7t-15.16,14.2q-4.23,3.47-9.21,7.1a114,114,0,0,0-9.6,7.87q2.68,1.16,4.8,2.3c1.4.77,2.88,1.54,4.41,2.31a89.18,89.18,0,0,1,19,14.39,121.75,121.75,0,0,1,15.16,18.62q6.13,9.21,12.29,18.61l12.66,19.38q44.91,66.79,122.83,61.8a25.84,25.84,0,0,0,5.37.38,16.71,16.71,0,0,1-6.53,7.1,31.66,31.66,0,0,1-9.59,3.65,157.21,157.21,0,0,1-26.68,2.3,235.5,235.5,0,0,1-26.67-1.53c-1.29-.26-2.69-.52-4.22-.77a25.49,25.49,0,0,0-4.23-.38q-23-1.94-41.07-12.29A116.69,116.69,0,0,1,901,339.91,191.62,191.62,0,0,1,887,319q-6.33-10.94-13.24-20.92-6.15-8.82-11.9-17.65T850,262.76q-1.92-3.83-8.06-8.44c-.51,1.79-1,3.26-1.34,4.41s-.84,2.37-1.35,3.65q-3.08,11.89-5.94,23.41t-6.72,23a68.17,68.17,0,0,1-5.18,12.67q-3.27,6.13-6.34,12.66-1.53,2.69-5.75,3.46c-2,0-3.91-.07-5.57-.19s-3.52-.2-5.56-.2a108.64,108.64,0,0,1-2.69-14.58,53.07,53.07,0,0,1,.38-14.2q1.92-12.29,4-24.57t4.42-24.95a27.78,27.78,0,0,1,.19-3.45c.12-1,.32-2.3.57-3.84a37.42,37.42,0,0,1-17.08-.77q-7.49-2.3-12.09-10.74,8.83-3.08,16.89-6.34t15.74-6.71a14.36,14.36,0,0,0,5.76-5q3.45-11.9,8.63-25T833.65,171q5.57-13,11.13-25.91t10.56-24Zm97.87-28.78a10,10,0,0,0-2.69-1,11.91,11.91,0,0,0-1.92-.2q-6.14.39-13.05,1.16t-14.2,2.3q-7.29,1.53-14,3.26t-12.47,3.65c-2,.51-3.26,1.47-3.65,2.88s-.83,3-1.34,4.79q-8.45,25.34-14.78,46.45t-12.47,41.83a30.29,30.29,0,0,0,10-5.56,107,107,0,0,0,9.78-9q4.8-5,9.79-10.37t9.6-9.59q11.13-11.13,21.68-22.65a212.11,212.11,0,0,0,19.39-24.56,90.85,90.85,0,0,0,6.71-10.94A35.59,35.59,0,0,0,953.21,89.28Z"/><path class="cls-1" d="M1035,209.8a14.77,14.77,0,0,1,2.5,1.53,25.1,25.1,0,0,0,2.11,1.54,3,3,0,0,1-.39,1.92q-19.57,25.32-36.46,46.82a459.81,459.81,0,0,1-36.46,41.07,14.44,14.44,0,0,1-7.1,4.22,17.61,17.61,0,0,1-7.3,0,29.44,29.44,0,0,1-7.1-2.49c-2.3-1.15-4.6-2.36-6.91-3.65Q927.5,296.93,925.19,285q-3.08-26.08,5.76-48a155.51,155.51,0,0,1,23.41-39.92q7.67-5.76,12.47-2.3a41.22,41.22,0,0,1,9,9.21A173.78,173.78,0,0,0,963,226.11a91.55,91.55,0,0,0-6.53,18.61,119.15,119.15,0,0,0-2.69,20.35q-.57,11.13-1,27.25a197.29,197.29,0,0,0,22.84-19q10.94-10.56,21.3-21.5T1016.73,230Q1026.14,219,1035,209.8Zm-30.32-59.88q-4.6,5.76-8.44,9.79t-7.49,7.67c-2.43,2.44-4.93,5-7.48,7.68s-5.38,5.82-8.45,9.4q-3.84-1.53-4.6-4a13.28,13.28,0,0,0-3.46-5.18q-2.69-3.45-1.53-8.63a38.33,38.33,0,0,1,4-10.37,56.06,56.06,0,0,1,6.71-9.59,33.35,33.35,0,0,1,6.91-6.34,16.62,16.62,0,0,1,7.68-1.72,13.51,13.51,0,0,1,6.33,1.92,23.31,23.31,0,0,1,5.18,4.22C1001.57,146.41,1003.1,148.13,1004.64,149.92Z"/><path class="cls-1" d="M1040.72,209a130.11,130.11,0,0,1-13.24-18q-5.57-9.21-10.55-19.19-4.23-9.6-2.31-16.7t11.13-12.47a35,35,0,0,1,18.43-5.38q8.43,0,11.51,5.76a58,58,0,0,1,7.68,16.12q1.53,4.6-1.35,7.68c-1.91,2.05-4.67,3.07-8.25,3.07a26,26,0,0,0,1.92-4.61c1.28-4.85-.26-6.65-4.6-5.37a33.8,33.8,0,0,0-18.81,12.28c-.52.77-1.09,1.6-1.73,2.5s-1.34,2-2.11,3.26q5.37,6.52,10.56,13.24t10.93,14a151.44,151.44,0,0,1,30.52-8.44q15.91-2.69,32-5A26,26,0,0,0,1114,195a28.15,28.15,0,0,1,1.54,3.26,5.87,5.87,0,0,1-1.54,1.15l-1.53.77q-8.07,2.31-16.31,4.61t-16.7,5q-5.38,1.92-10.94,4.22t-11.32,4.6c1,2.82,1.92,5.13,2.68,6.91q1.92,5,4.23,9.6a42.16,42.16,0,0,1,3.45,10q6.14,24.18-11.9,42.22a65.79,65.79,0,0,1-16.12,11.9,95.45,95.45,0,0,1-18.42,7.29q-13.44,3.45-23.42-5.76l-6.9-6.91a87,87,0,0,1-6.53-7.29q-9.21-9.58-4.22-21.11a52,52,0,0,1,5.76-10.75,129.41,129.41,0,0,1,39.91-37.23c2.31-1.28,4.67-2.62,7.1-4S1037.9,210.56,1040.72,209Zm8.83,15a5.86,5.86,0,0,1-2.3.76,2.21,2.21,0,0,0-1.54.77,131.06,131.06,0,0,0-37.61,31.86,51.06,51.06,0,0,0-5.38,8.25c-1.53,2.95-3.07,5.82-4.6,8.64a16.22,16.22,0,0,0-1.54,5,8.57,8.57,0,0,0,1.54,5.75q3.06-.76,5.76-1.34a40.62,40.62,0,0,0,5.75-1.73,78.69,78.69,0,0,0,33-24.94Q1053,243.18,1049.55,224Z"/><path class="cls-1" d="M1102.13,375.22q-4.61,0-5.94-1.34c-.9-.9-2.75-1.34-5.57-1.34a29,29,0,0,1-1.15-3.46c-.25-1-.51-2.05-.77-3.07a177.66,177.66,0,0,1-2.49-31.47q.19-15.36,1.72-31.09a646.08,646.08,0,0,1,12.28-77.53,573.74,573.74,0,0,1,22.27-75.23,16.22,16.22,0,0,0,.57-2.31,16.55,16.55,0,0,1,1-3.07,27.56,27.56,0,0,1-3.45-.19,26.49,26.49,0,0,0-3.07-.19q-6.91-.77-13.82-1.34t-14.2-1.73a29.43,29.43,0,0,1-14.4-6.72,49,49,0,0,1-10.17-12.47,7.17,7.17,0,0,1-.57-1.73,7,7,0,0,0-.58-1.73c-.25-.51-.12-1.4.39-2.68a2.12,2.12,0,0,0,1.34.77c.38,0,.71.25,1,.76a13.38,13.38,0,0,0,6.72,6.14,44.2,44.2,0,0,0,8.63,2.31,137.58,137.58,0,0,0,24,.19,98.64,98.64,0,0,0,23.22-4.8,8.87,8.87,0,0,0,4.61-2.49,27,27,0,0,0,3.07-4.42q5.37-10.36,10.94-20.72t11.7-20.35a48,48,0,0,1,5.57-8.06,33,33,0,0,1,7.48-6.52,2.87,2.87,0,0,0,1.15.38,3,3,0,0,1,1.16.39q5.74,3.84,7.29,6.14a5.62,5.62,0,0,1,1,4.6,17.76,17.76,0,0,1-2.69,5.38,39.11,39.11,0,0,0-4,8.06c-1.53,3.83-3.13,7.74-4.8,11.7s-3.52,8.26-5.56,12.86a30.32,30.32,0,0,1,4.22-1,13.53,13.53,0,0,0,3.45-1q12.29-5,27.06-11.13t27.06-10.75a64.37,64.37,0,0,1,7.49-2.49c2.43-.64,4.92-1.21,7.48-1.73q5.37-1.15,7.3,4.22c.51,1.29,1.27,3,2.3,5q2.68,5.76,2.11,8.06c-.38,1.54-2.37,3.33-6,5.38l-6.91,3.84a36.89,36.89,0,0,1-7.29,3.07q-16.89,6.52-33.39,12.47T1167,134.57q-6.91,2.69-8.83,9.21-11.89,36.47-23.22,74.65a732.73,732.73,0,0,0-18.23,75.81q-3.45,18.42-6.53,36.27t-6.14,36.27c-.25,1.28-.51,2.55-.76,3.84S1102.65,373.43,1102.13,375.22Z"/><path class="cls-1" d="M1175.06,229.37a18.53,18.53,0,0,0,7.1-2.69,32.74,32.74,0,0,0,5.18-4.22q6.14-6.53,11.71-12.86l11.32-12.85q6.92-7.29,14.59-.39a7.13,7.13,0,0,1,2.68,4.22,11.4,11.4,0,0,1-.38,5q-3.08,9.21-5.76,18.43t-5.76,18a144.42,144.42,0,0,0-6.14,24.56q-1.92,12.28-3.07,24.57a6.17,6.17,0,0,0,.19,1.53c.13.52.32,1.28.58,2.3a40.32,40.32,0,0,0,9-5.95,91.45,91.45,0,0,0,7.1-7.1q11.13-11.51,22.65-23l22.64-22.64,3.46-3.45c1,.51,2,1,2.87,1.53s1.73,1,2.5,1.54a1.34,1.34,0,0,0-.19,1.15.63.63,0,0,1-.19.76q-10,13.44-19.58,27.06a193.94,193.94,0,0,1-21.49,25.53q-4.23,4.23-8.64,8.06t-9,7.29q-7.29,6.13-15.35,1.54-1.55-.77-2.88-1.35c-.9-.38-1.86-.82-2.88-1.34q-8.44-1.92-11.32-7.68a38.24,38.24,0,0,1-3.65-13.43,69.77,69.77,0,0,1,1.15-19.38q1.92-9.41,4.23-18.62a24.13,24.13,0,0,0,1.15-3.65,38.14,38.14,0,0,1,1.15-4c-1,.26-2.3.65-3.84,1.16a14.11,14.11,0,0,1-14.2-.77,50.4,50.4,0,0,0-6.53-2.69q-10.35-5-12.66-16.89a69.1,69.1,0,0,1-1.15-21.68A72.31,72.31,0,0,1,1157,176.4,178.67,178.67,0,0,1,1169.11,154a65.67,65.67,0,0,1,17.46-18.23c1-.77,2-1.54,2.88-2.3a14.17,14.17,0,0,1,2.88-1.92q7.29-3.84,12.09-2.5t9,8.25a4.47,4.47,0,0,1,.77,4.23c-.52,1.28-1,2.56-1.54,3.83q-6.53,11.15-14.2,23.8a153.65,153.65,0,0,0-12.85,25.52,275.94,275.94,0,0,0-9,27.06A48,48,0,0,0,1175.06,229.37Z"/><path class="cls-1" d="M1279.84,249a148.53,148.53,0,0,0-1,19.57,52,52,0,0,0,3.64,18q1.92,5.38,3.46,6.33t6.91.2a28.2,28.2,0,0,0,16.12-6.15q8.82-8.06,17.85-15.93t17.84-15.92q10-8.84,19.39-18.23t19-18.62a7.66,7.66,0,0,1,4.8-2.49,15.56,15.56,0,0,1,5.95.95c-.77,1.29-1.47,2.44-2.11,3.46s-1.34,2.05-2.11,3.07q-13.44,15.36-26.29,30.51T1337,283.87a114,114,0,0,1-8.83,8.64q-4.6,4-9.6,7.87a31,31,0,0,1-14.39,6.52q-7.49,1.16-15.54-3.84-5.39-3.45-10.94-6.9t-10.94-6.53a31.06,31.06,0,0,1-11.13-11.71,40.9,40.9,0,0,1-4.23-15.16q-5.75-53.34,36.47-84a34.65,34.65,0,0,1,4.22-2.88,36.28,36.28,0,0,0,4.22-2.88,23.66,23.66,0,0,1,10.75-5.37,39,39,0,0,1,12.28-.39,9.9,9.9,0,0,1,4,1,8.25,8.25,0,0,1,3.26,2.5l9.22,11.51a104.49,104.49,0,0,1,8.44,12.28,27.57,27.57,0,0,1,3.65,14.2,40.27,40.27,0,0,1-3.27,14.59,50.1,50.1,0,0,1-12.09,18.23,72.83,72.83,0,0,1-17.85,12.47,30.39,30.39,0,0,1-15.35,3.46,27.26,27.26,0,0,1-15-5.76,5.25,5.25,0,0,0-1.72-1.15A21.53,21.53,0,0,1,1279.84,249Zm1.92-6.53q19.18,1.54,31.85-10.36a62.19,62.19,0,0,0,11.33-14.2,97.24,97.24,0,0,0,7.48-16.51,28.76,28.76,0,0,0,1.15-5q.38-2.67.77-5.76a3.31,3.31,0,0,0-1.15-3.45,4.84,4.84,0,0,0-3.84-.77,21.14,21.14,0,0,0-4.61.77,28.17,28.17,0,0,0-13,6.14,126,126,0,0,0-10.36,10,57.83,57.83,0,0,0-12.09,17.66A145.36,145.36,0,0,0,1281.76,242.42Z"/><path class="cls-1" d="M1369.65,375.22q-4.61,0-6-1.34c-.89-.9-2.75-1.34-5.57-1.34a29,29,0,0,1-1.15-3.46c-.25-1-.51-2.05-.77-3.07a178.61,178.61,0,0,1-2.49-31.47q.19-15.36,1.73-31.09a644.08,644.08,0,0,1,12.28-77.53A572.16,572.16,0,0,1,1390,150.69a17.74,17.74,0,0,0,.58-2.31,15.14,15.14,0,0,1,1-3.07,27.62,27.62,0,0,1-3.46-.19,26.35,26.35,0,0,0-3.07-.19q-6.9-.77-13.82-1.34t-14.2-1.73a29.43,29.43,0,0,1-14.39-6.72,48.75,48.75,0,0,1-10.17-12.47,7.18,7.18,0,0,1-.58-1.73,7,7,0,0,0-.57-1.73c-.26-.51-.13-1.4.38-2.68a2.14,2.14,0,0,0,1.34.77c.39,0,.71.25,1,.76a13.42,13.42,0,0,0,6.72,6.14,44.49,44.49,0,0,0,8.64,2.31,137.47,137.47,0,0,0,24,.19,98.72,98.72,0,0,0,23.23-4.8,8.84,8.84,0,0,0,4.6-2.49,26.37,26.37,0,0,0,3.07-4.42q5.37-10.36,10.94-20.72t11.71-20.35a47.91,47.91,0,0,1,5.56-8.06,33.06,33.06,0,0,1,7.49-6.52,2.82,2.82,0,0,0,1.15.38,3,3,0,0,1,1.15.39q5.76,3.84,7.29,6.14a5.58,5.58,0,0,1,1,4.6,17.47,17.47,0,0,1-2.68,5.38,38.62,38.62,0,0,0-4,8.06c-1.54,3.83-3.14,7.74-4.8,11.7s-3.52,8.26-5.57,12.86a30.64,30.64,0,0,1,4.22-1,13.59,13.59,0,0,0,3.46-1q12.29-5,27.06-11.13t27.06-10.75a64.24,64.24,0,0,1,7.48-2.49c2.43-.64,4.93-1.21,7.49-1.73q5.37-1.15,7.29,4.22.76,1.94,2.3,5c1.79,3.84,2.5,6.53,2.11,8.06s-2.37,3.33-5.95,5.38l-6.9,3.84a37,37,0,0,1-7.3,3.07q-16.89,6.52-33.39,12.47t-33.78,11.71q-6.9,2.69-8.82,9.21-11.91,36.47-23.23,74.65a732.73,732.73,0,0,0-18.23,75.81q-3.45,18.42-6.52,36.27t-6.14,36.27c-.25,1.28-.51,2.55-.77,3.84S1370.16,373.43,1369.65,375.22Z"/><path class="cls-1" d="M1451.4,375.22q-4.61,0-6-1.34c-.89-.9-2.74-1.34-5.56-1.34a27.32,27.32,0,0,1-1.15-3.46c-.26-1-.51-2.05-.77-3.07a178.64,178.64,0,0,1-2.5-31.47q.19-15.36,1.73-31.09a646.08,646.08,0,0,1,12.28-77.53,573.69,573.69,0,0,1,22.26-75.23,15,15,0,0,0,.58-2.31,15.82,15.82,0,0,1,1-3.07,27.73,27.73,0,0,1-3.46-.19,26.35,26.35,0,0,0-3.07-.19q-6.9-.77-13.81-1.34t-14.2-1.73a29.43,29.43,0,0,1-14.4-6.72,49,49,0,0,1-10.17-12.47,7.64,7.64,0,0,1-.58-1.73,6.63,6.63,0,0,0-.57-1.73c-.25-.51-.13-1.4.38-2.68a2.14,2.14,0,0,0,1.35.77c.38,0,.7.25,1,.76a13.4,13.4,0,0,0,6.71,6.14,44.49,44.49,0,0,0,8.64,2.31,137.58,137.58,0,0,0,24,.19,98.75,98.75,0,0,0,23.22-4.8,8.91,8.91,0,0,0,4.61-2.49A27.6,27.6,0,0,0,1486,115q5.37-10.36,10.93-20.72t11.71-20.35a48,48,0,0,1,5.57-8.06,33,33,0,0,1,7.48-6.52,2.82,2.82,0,0,0,1.15.38,2.93,2.93,0,0,1,1.15.39q5.76,3.84,7.3,6.14a5.62,5.62,0,0,1,1,4.6,17.76,17.76,0,0,1-2.69,5.38,39.11,39.11,0,0,0-4,8.06c-1.54,3.83-3.14,7.74-4.8,11.7s-3.52,8.26-5.56,12.86a30,30,0,0,1,4.22-1,13.53,13.53,0,0,0,3.45-1q12.29-5,27.06-11.13t27.06-10.75a64.37,64.37,0,0,1,7.49-2.49c2.42-.64,4.92-1.21,7.48-1.73q5.37-1.15,7.29,4.22.76,1.94,2.31,5c1.78,3.84,2.49,6.53,2.11,8.06s-2.37,3.33-5.95,5.38l-6.91,3.84a36.89,36.89,0,0,1-7.29,3.07q-16.9,6.52-33.4,12.47t-33.77,11.71q-6.91,2.69-8.83,9.21-11.91,36.47-23.22,74.65A730.17,730.17,0,0,0,1466,294.24q-3.46,18.42-6.53,36.27t-6.14,36.27c-.25,1.28-.51,2.55-.77,3.84S1451.92,373.43,1451.4,375.22Z"/><path class="cls-1" d="M1564.62,181q8.84-7.68,20.73-4.61a31.91,31.91,0,0,1,11.13,5.19,53.38,53.38,0,0,1,9.21,8.63q6.91,8.84,3.84,20.73-2.29,8.84-5,17.08t-6.14,16.31a195.07,195.07,0,0,1-13.24,24.37,128.29,128.29,0,0,1-17.46,21.69,103.14,103.14,0,0,1-7.87,7.1c-2.69,2.18-5.44,4.41-8.26,6.72a22.07,22.07,0,0,1-7.29,3.83,14.34,14.34,0,0,1-8.06,0q-6.15-1.53-12.28-3.26a64.86,64.86,0,0,1-11.52-4.41,30.3,30.3,0,0,1-16.12-27.25,146.25,146.25,0,0,1,5.57-45.87q6.33-21.67,24.37-39.34a53.57,53.57,0,0,1,13.44-10.75,19.74,19.74,0,0,1,10.74-3.45q5.37,0,10.75,5A13.76,13.76,0,0,0,1564.62,181Zm-36.46,117.06c2-1.27,4.09-2.42,6.14-3.45a27.61,27.61,0,0,0,5.38-3.45q4.6-4.23,9-8.64a98.71,98.71,0,0,0,8.25-9.4q7.66-10.74,15-21.69t14.2-22.07q2.3-4.22,4.22-8.44a51.77,51.77,0,0,0,3.07-8.83,47,47,0,0,0,2.5-11.13,19.93,19.93,0,0,0-2.5-11.52,10.75,10.75,0,0,0-7.1.77,46.68,46.68,0,0,0-6,3.84A92.86,92.86,0,0,0,1555.41,224c-.77,1.53-1.6,3.07-2.49,4.6s-1.86,3.33-2.88,5.38c-1.79-1.28-3.46-2.43-5-3.46l-4.61-3.07c1.54-3.84,2.94-7.61,4.23-11.32s2.68-7.49,4.22-11.32a14.64,14.64,0,0,0-2.69,1.53,160.57,160.57,0,0,0-17.85,33.59,104.35,104.35,0,0,0-6.71,37.8A79.94,79.94,0,0,0,1523,287.9,24.62,24.62,0,0,0,1528.16,298.07Z"/></svg>