<svg id="Layer_1" data-name="Layer 1" xmlns="http://www.w3.org/2000/svg" viewBox="0 0 2400 410"><defs><style>.cls-1{fill:#fff;}</style></defs><path class="cls-1" d="M885.28,86.21a116,116,0,0,0-22.45,14.58,70,70,0,0,0-17.08,21.49,76.21,76.21,0,0,0-4.8,13.05q-1.73,6.54,1,14.59-9.6-2.31-10.37-12.28a30.25,30.25,0,0,1,.77-13.44,58.56,58.56,0,0,1,12.28-24.56,121.48,121.48,0,0,1,19-17.46,83.07,83.07,0,0,1,22.46-11.71,6.77,6.77,0,0,1,5.56-.58,24.22,24.22,0,0,1,5.57,3.26q9.59,7.69,11.9,17.47a48.2,48.2,0,0,1,0,20.92q-2.7,12.28-5.57,24.75t-6.33,24.76q-8.07,29.17-13.24,58.92t-9.79,59.68q-1.93,11.14-2.88,21.88t-1.73,21.88a11.76,11.76,0,0,0,1.54,8.06c.77-1.54,1.53-3.14,2.3-4.8a46.72,46.72,0,0,1,2.3-4.41q14.6-32.25,29.75-63.14t31.86-60.46Q954,169.11,972.6,141.28a582.36,582.36,0,0,1,40.11-53.16,184.79,184.79,0,0,1,14.77-16.69q7.88-7.86,16.32-14.78c2.81,2.05,4.41,3.45,4.8,4.22s-.45,2.44-2.5,5q-7.29,10-14.78,19.77t-14.39,20.15a1354.09,1354.09,0,0,0-72.54,115.53q-31.86,57.19-60.26,115.15a1.08,1.08,0,0,0-.39.76,1.13,1.13,0,0,1-.38.77q-4.23,6.92-6.14,10a10.07,10.07,0,0,1-4,4,12.51,12.51,0,0,1-5.18,1q-3.07,0-9.21.38c-3.59.26-6.4-.45-8.45-2.11a21,21,0,0,1-5.37-7.1,84.94,84.94,0,0,1-6.33-18.23,185.56,185.56,0,0,1-3.27-19.38,232,232,0,0,1,.19-54.12,453.66,453.66,0,0,1,9.79-53A439.16,439.16,0,0,1,860,153.37q8.43-22.25,18-44.52,2.29-5.37,4.41-10.55c1.4-3.46,2.75-7,4-10.56C886.43,87.23,886.05,86.72,885.28,86.21Z"/><path class="cls-1" d="M1021.91,181q8.83-7.68,20.73-4.61a32.07,32.07,0,0,1,11.13,5.18,54.2,54.2,0,0,1,9.21,8.64q6.91,8.84,3.84,20.73-2.31,8.84-5,17.08t-6.14,16.31a195.07,195.07,0,0,1-13.24,24.37A128.35,128.35,0,0,1,1025,290.4a99.48,99.48,0,0,1-7.87,7.1c-2.68,2.18-5.44,4.41-8.25,6.72a22.17,22.17,0,0,1-7.29,3.83,14.34,14.34,0,0,1-8.06,0q-6.15-1.53-12.28-3.26a64.86,64.86,0,0,1-11.52-4.41,30.25,30.25,0,0,1-16.12-27.25,146.25,146.25,0,0,1,5.57-45.87q6.33-21.67,24.37-39.34A53.68,53.68,0,0,1,997,177.17a19.75,19.75,0,0,1,10.75-3.45q5.37,0,10.75,5A13.76,13.76,0,0,0,1021.91,181ZM985.45,298.07q3.06-1.9,6.14-3.45a27.23,27.23,0,0,0,5.37-3.45q4.6-4.23,9-8.64a98.81,98.81,0,0,0,8.26-9.4q7.66-10.74,15-21.69t14.21-22.07q2.29-4.22,4.22-8.44a51.77,51.77,0,0,0,3.07-8.83,46.55,46.55,0,0,0,2.49-11.13,19.92,19.92,0,0,0-2.49-11.52,10.75,10.75,0,0,0-7.1.77,46,46,0,0,0-5.95,3.84,92.86,92.86,0,0,0-25,29.94c-.77,1.53-1.6,3.07-2.49,4.6s-1.86,3.33-2.88,5.38q-2.7-1.92-5-3.46l-4.61-3.07q2.31-5.76,4.22-11.32t4.23-11.32a14.64,14.64,0,0,0-2.69,1.53,159.4,159.4,0,0,0-17.85,33.59,104.35,104.35,0,0,0-6.72,37.8,81.75,81.75,0,0,0,1.35,10.17A24.5,24.5,0,0,0,985.45,298.07Z"/><path class="cls-1" d="M1106,300.38a29.62,29.62,0,0,0,10.17-5.76,73.21,73.21,0,0,0,8.25-8.44q7.68-9.21,14.78-18.43t14-18.8a122.39,122.39,0,0,0,7.67-10.94c2.31-3.71,4.73-7.61,7.3-11.71l3.83.77a36.94,36.94,0,0,1,4.23,1.15,9,9,0,0,0-1,2.88,6.13,6.13,0,0,1-1,2.49q-5.38,8.83-10.17,18t-10.18,18a120.75,120.75,0,0,1-21.87,28.79,43.62,43.62,0,0,1-11.13,7.68,25.49,25.49,0,0,1-13.44,1.91,14.13,14.13,0,0,0-4-.19c-1.41.13-2.75.19-4,.19q-10.37-.37-16.31-4.41t-9.4-14a122,122,0,0,1-4.61-23,139,139,0,0,1,.19-36.46q2.51-18,6.72-35.7,3.45-12.27,7.87-24.37t9.78-23.6a186,186,0,0,1,41.84-55.28,51.52,51.52,0,0,1,9.79-7.1,97.5,97.5,0,0,1,10.94-5.18,8.59,8.59,0,0,1,8.83,1.15,44.06,44.06,0,0,1,16.12,20q5,12.3,1.92,26.87a78.22,78.22,0,0,1-13.44,32.24q-4.61,6.92-9.79,13.43t-10.55,13.05a61.69,61.69,0,0,1-26.87,18.81q-4.6,1.54-8.83,3.26t-8.44,3.65a8.16,8.16,0,0,0-5,5.76q-2.31,16.13-3.65,31.66a138.87,138.87,0,0,0,1,31.67A59.94,59.94,0,0,0,1100,291,23.88,23.88,0,0,0,1106,300.38Zm59.11-208.8a151.36,151.36,0,0,0-36.85,44.52A292.31,292.31,0,0,0,1106,190.22a32.06,32.06,0,0,1,3.45-.77,162.35,162.35,0,0,0,54.89-73.69A35.73,35.73,0,0,0,1165.08,91.58Z"/><path class="cls-1" d="M1203.45,300.38a29.53,29.53,0,0,0,10.17-5.76,73.21,73.21,0,0,0,8.25-8.44q7.68-9.21,14.78-18.43t14-18.8a124.62,124.62,0,0,0,7.68-10.94q3.45-5.56,7.29-11.71l3.84.77a36.27,36.27,0,0,1,4.22,1.15,9.28,9.28,0,0,0-1,2.88,6,6,0,0,1-1,2.49q-5.38,8.83-10.17,18t-10.17,18a120.79,120.79,0,0,1-21.88,28.79,43.45,43.45,0,0,1-11.13,7.68,25.47,25.47,0,0,1-13.43,1.91,14.17,14.17,0,0,0-4-.19c-1.41.13-2.76.19-4,.19q-10.37-.37-16.32-4.41t-9.4-14a122.84,122.84,0,0,1-4.61-23,139,139,0,0,1,.2-36.46q2.49-18,6.71-35.7,3.46-12.27,7.87-24.37t9.79-23.6A185.77,185.77,0,0,1,1233,91.19a52.16,52.16,0,0,1,9.79-7.1,98.34,98.34,0,0,1,10.94-5.18,8.59,8.59,0,0,1,8.83,1.15,44,44,0,0,1,16.12,20q5,12.3,1.92,26.87a78.21,78.21,0,0,1-13.43,32.24q-4.62,6.92-9.79,13.43t-10.56,13.05A61.72,61.72,0,0,1,1220,204.42q-4.62,1.54-8.83,3.26t-8.45,3.65a8.16,8.16,0,0,0-5,5.76q-2.3,16.13-3.64,31.66a138.3,138.3,0,0,0,1,31.67A59.92,59.92,0,0,0,1197.5,291,23.88,23.88,0,0,0,1203.45,300.38Zm59.11-208.8a151.67,151.67,0,0,0-36.85,44.52,292.31,292.31,0,0,0-22.26,54.12,32.52,32.52,0,0,1,3.46-.77,162.25,162.25,0,0,0,54.88-73.69A35.73,35.73,0,0,0,1262.56,91.58Z"/><path class="cls-1" d="M1299.4,168.73q4.23,3.45,6.53,5.56a14.81,14.81,0,0,1,3.26,4,7.76,7.76,0,0,1,.58,4.61,37.06,37.06,0,0,1-1.92,6.91q-3.45,10-7.29,19.76t-7.68,19.77q-5,12.28-9.21,24.95a216,216,0,0,0-6.91,26.1,12.41,12.41,0,0,0-.38,3.07,33,33,0,0,1-.39,4.22,32.89,32.89,0,0,1,3.46-3.07,13.4,13.4,0,0,0,2.68-2.69q13.44-15.72,27.06-31.28T1336.25,219a14.59,14.59,0,0,0,3.07-4.61q1.15-2.68,2.3-5.76a115,115,0,0,1,8.26-17.46,65.67,65.67,0,0,1,11.7-14.78,22,22,0,0,1,4.42-4q2.49-1.73,4.79-3.64c4.61,3.32,7.23,5.89,7.87,7.67s-.06,5-2.11,9.6a285.29,285.29,0,0,0-11.32,30.7q-4.8,15.75-8.25,31.86-1.15,6.91-2.11,13.63t-1.73,13.62a6,6,0,0,0-.19,2.69,42.67,42.67,0,0,1,.19,4.61q14.58-18,28.59-34.74a322.69,322.69,0,0,1,30.52-31.67l3.26,3.27a42.85,42.85,0,0,1,2.88,3.26,22.19,22.19,0,0,1-1.73,2.88,18.75,18.75,0,0,1-2.11,2.49q-12.29,17.28-25,33.78t-24.95,33.78a44.66,44.66,0,0,0-3.45,4.22q-5.76,8.83-16.12,5.37c-7.43-2.3-12.28-4.92-14.59-7.87s-3.58-8.25-3.83-15.93a87.44,87.44,0,0,1,0-16.5c.51-2.81,1-5.57,1.34-8.25s.83-5.69,1.34-9c-1,.77-1.86,1.41-2.49,1.92a8.27,8.27,0,0,0-1.73,1.92q-4.61,6.14-9,12.28t-9.4,12.28q-5.39,6.92-11.52,13.43t-12.28,13.05a17.88,17.88,0,0,1-8.64,5.19q-4.41.94-9.78-2.11a24.66,24.66,0,0,0-4.8-2.5q-2.49-1-5.18-2.11-6.52-3.07-8.83-7.1t-1.54-10.94q.39-4.61,1-9a41.31,41.31,0,0,1,2.12-8.64q4.61-12.66,9-25.52a253.62,253.62,0,0,1,10.18-25.14,133.6,133.6,0,0,1,11.7-19.77q6.72-9.39,13.24-19a34.79,34.79,0,0,1,3.65-3.84C1296.39,171.29,1297.87,170,1299.4,168.73Z"/><path class="cls-1" d="M1397.66,375.22q-4.61,0-6-1.34c-.89-.9-2.75-1.34-5.56-1.34a29.25,29.25,0,0,1-1.16-3.46c-.25-1-.51-2.05-.76-3.07a178.64,178.64,0,0,1-2.5-31.47q.19-15.36,1.73-31.09a646.08,646.08,0,0,1,12.28-77.53A573.69,573.69,0,0,1,1418,150.69a16.27,16.27,0,0,0,.58-2.31,15.14,15.14,0,0,1,1-3.07,27.62,27.62,0,0,1-3.46-.19,26.35,26.35,0,0,0-3.07-.19q-6.9-.77-13.81-1.34T1385,141.86a29.43,29.43,0,0,1-14.39-6.72,49,49,0,0,1-10.17-12.47,7.64,7.64,0,0,1-.58-1.73,6.51,6.51,0,0,0-.57-1.73c-.25-.51-.13-1.4.38-2.68a2.12,2.12,0,0,0,1.34.76c.39,0,.71.26,1,.77a13.46,13.46,0,0,0,6.72,6.14,44.49,44.49,0,0,0,8.64,2.31,137.58,137.58,0,0,0,24,.19,98.75,98.75,0,0,0,23.22-4.8,8.84,8.84,0,0,0,4.6-2.49,26.79,26.79,0,0,0,3.07-4.42q5.37-10.36,10.94-20.73t11.71-20.34a47.39,47.39,0,0,1,5.57-8.06,33,33,0,0,1,7.48-6.52,3,3,0,0,0,1.15.38,3,3,0,0,1,1.15.38c3.84,2.57,6.27,4.61,7.3,6.15a5.61,5.61,0,0,1,1,4.6,17.47,17.47,0,0,1-2.68,5.38,38.62,38.62,0,0,0-4,8.06c-1.54,3.83-3.14,7.74-4.8,11.7s-3.52,8.25-5.57,12.86a30.4,30.4,0,0,1,4.23-1,14,14,0,0,0,3.45-1q12.29-5,27.06-11.13t27.06-10.75a64.24,64.24,0,0,1,7.48-2.49c2.43-.64,4.93-1.21,7.49-1.73q5.37-1.15,7.29,4.22.77,1.94,2.3,5c1.79,3.84,2.5,6.53,2.11,8.06s-2.36,3.33-5.94,5.38l-6.91,3.83a36.42,36.42,0,0,1-7.3,3.08q-16.89,6.52-33.39,12.47t-33.77,11.71q-6.91,2.69-8.83,9.21-11.91,36.47-23.22,74.65a730.17,730.17,0,0,0-18.23,75.81q-3.46,18.42-6.53,36.27t-6.14,36.27c-.25,1.28-.51,2.55-.77,3.84S1398.18,373.43,1397.66,375.22Z"/><path class="cls-1" d="M1510.88,181q8.83-7.68,20.73-4.61a32.07,32.07,0,0,1,11.13,5.18,54.2,54.2,0,0,1,9.21,8.64q6.91,8.84,3.84,20.73-2.31,8.84-5,17.08t-6.14,16.31a195.07,195.07,0,0,1-13.24,24.37A128.35,128.35,0,0,1,1514,290.4a99.48,99.48,0,0,1-7.87,7.1c-2.68,2.18-5.43,4.41-8.25,6.72a22.07,22.07,0,0,1-7.29,3.83,14.34,14.34,0,0,1-8.06,0q-6.15-1.53-12.28-3.26a64.86,64.86,0,0,1-11.52-4.41,30.3,30.3,0,0,1-16.12-27.25,146.25,146.25,0,0,1,5.57-45.87q6.33-21.67,24.37-39.34a53.68,53.68,0,0,1,13.43-10.75,19.77,19.77,0,0,1,10.75-3.45q5.37,0,10.75,5A13.76,13.76,0,0,0,1510.88,181Zm-36.46,117.06q3.06-1.9,6.14-3.45a27.23,27.23,0,0,0,5.37-3.45q4.6-4.23,9-8.64a97.43,97.43,0,0,0,8.26-9.4q7.66-10.74,15-21.69t14.2-22.07q2.3-4.22,4.22-8.44a51.77,51.77,0,0,0,3.07-8.83,47,47,0,0,0,2.5-11.13,20,20,0,0,0-2.5-11.52,10.75,10.75,0,0,0-7.1.77,46.68,46.68,0,0,0-6,3.84A92.86,92.86,0,0,0,1501.67,224c-.77,1.53-1.6,3.07-2.49,4.6s-1.86,3.33-2.88,5.38q-2.7-1.92-5-3.46l-4.61-3.07q2.31-5.76,4.22-11.32t4.23-11.32a14.64,14.64,0,0,0-2.69,1.53,160.33,160.33,0,0,0-17.85,33.59,104.35,104.35,0,0,0-6.71,37.8,79.94,79.94,0,0,0,1.34,10.17A24.5,24.5,0,0,0,1474.42,298.07Z"/></svg>