<?xml version="1.0" encoding="utf-8"?>
<!-- Generator: Adobe Illustrator 25.4.1, SVG Export Plug-In . SVG Version: 6.00 Build 0)  -->
<svg version="1.1" id="Layer_1" xmlns="http://www.w3.org/2000/svg" xmlns:xlink="http://www.w3.org/1999/xlink" x="0px" y="0px"
	 viewBox="0 0 40 40" style="enable-background:new 0 0 40 40;" xml:space="preserve">
<style type="text/css">
	.st0{fill:#FFFFFF;}
</style>
<path class="st0" d="M16.3,29.5c-0.7,0-1.5-0.2-2.2-0.4c-0.6-0.2-1.1-0.6-1.6-1.1c-0.5-0.5-0.8-1-1-1.6c-0.3-0.7-0.4-1.5-0.4-2.2
	c0-1-0.1-1.3-0.1-3.8s0-2.8,0.1-3.8c0-0.8,0.2-1.5,0.4-2.2c0.2-0.6,0.6-1.2,1-1.6c0.4-0.5,1-0.8,1.6-1.1c0.7-0.3,1.4-0.4,2.2-0.4
	c1,0,1.3-0.1,3.7-0.1s2.8,0,3.7,0.1c0.7,0,1.5,0.2,2.2,0.4c0.6,0.2,1.1,0.6,1.6,1.1c0.5,0.5,0.8,1,1,1.6c0.3,0.7,0.4,1.5,0.4,2.2
	c0,1,0.1,1.3,0.1,3.8s0,2.8-0.1,3.8c0,0.8-0.2,1.5-0.4,2.2c-0.2,0.6-0.6,1.2-1,1.6c-0.5,0.5-1,0.8-1.6,1.1c-0.7,0.3-1.4,0.4-2.2,0.4
	c-1,0-1.3,0.1-3.7,0.1S17.2,29.5,16.3,29.5z M16.4,12.8c-0.6,0-1.1,0.1-1.7,0.3c-0.4,0.1-0.7,0.4-1,0.7c-0.3,0.3-0.5,0.7-0.7,1.1
	c-0.2,0.5-0.3,1.1-0.3,1.7c0,1-0.1,1.3-0.1,3.7s0,2.8,0.1,3.7c0,0.6,0.1,1.2,0.3,1.7c0.1,0.4,0.4,0.8,0.7,1.1c0.3,0.3,0.6,0.5,1,0.7
	c0.5,0.2,1.1,0.3,1.7,0.3c0.9,0,1.2,0.1,3.6,0.1s2.7,0,3.6-0.1c0.6,0,1.1-0.1,1.7-0.3c0.4-0.2,0.7-0.4,1-0.7
	c0.3-0.3,0.5-0.7,0.7-1.1c0.2-0.5,0.3-1.1,0.3-1.7c0-1,0.1-1.3,0.1-3.7c0-2.5,0-2.8-0.1-3.7c0-0.6-0.1-1.2-0.3-1.7
	c-0.1-0.4-0.4-0.8-0.7-1.1c-0.3-0.3-0.6-0.5-1-0.7c-0.5-0.2-1.1-0.3-1.7-0.3c-0.9,0-1.2-0.1-3.6-0.1S17.3,12.8,16.4,12.8z
	 M15.4,20.3c0-0.9,0.3-1.9,0.8-2.6c0.5-0.8,1.2-1.4,2.1-1.7c0.8-0.4,1.8-0.5,2.7-0.3c0.9,0.2,1.7,0.6,2.4,1.3
	c0.6,0.7,1.1,1.5,1.3,2.4c0.2,0.9,0.1,1.9-0.3,2.7c-0.3,0.9-0.9,1.6-1.7,2.1c-0.8,0.5-1.7,0.8-2.6,0.8c-1.2,0-2.4-0.5-3.3-1.4
	C15.9,22.8,15.4,21.6,15.4,20.3z M17,20.3c0,0.6,0.2,1.2,0.5,1.7c0.3,0.5,0.8,0.9,1.3,1.1c0.5,0.2,1.2,0.3,1.7,0.2
	c0.6-0.1,1.1-0.4,1.5-0.8c0.4-0.4,0.7-1,0.8-1.6c0.1-0.6,0.1-1.2-0.2-1.8c-0.2-0.6-0.6-1-1.1-1.4c-0.5-0.3-1.1-0.5-1.7-0.5
	c-0.8,0-1.6,0.3-2.1,0.9C17.3,18.7,17,19.5,17,20.3z M23.7,15.4c0-0.2,0.1-0.4,0.2-0.6c0.1-0.2,0.3-0.3,0.5-0.4
	c0.2-0.1,0.4-0.1,0.6-0.1c0.2,0,0.4,0.1,0.6,0.3c0.2,0.2,0.3,0.4,0.3,0.6c0,0.2,0,0.4-0.1,0.6c-0.1,0.2-0.2,0.4-0.4,0.5
	c-0.2,0.1-0.4,0.2-0.6,0.2c-0.3,0-0.6-0.1-0.8-0.3C23.8,16,23.7,15.7,23.7,15.4L23.7,15.4z"/>
</svg>
