<?xml version="1.0" encoding="utf-8"?>
<!-- Generator: Adobe Illustrator 25.4.1, SVG Export Plug-In . SVG Version: 6.00 Build 0)  -->
<svg version="1.1" id="Layer_1" xmlns="http://www.w3.org/2000/svg" xmlns:xlink="http://www.w3.org/1999/xlink" x="0px" y="0px"
	 viewBox="0 0 40 40" style="enable-background:new 0 0 40 40;" xml:space="preserve">
<style type="text/css">
	.st0{fill:#FFFFFF;}
</style>
<path class="st0" d="M28.8,17.2c-0.1-0.7-0.3-1.3-0.7-1.8c-0.5-0.5-1.1-0.8-1.8-0.8c-2.5-0.2-6.3-0.2-6.3-0.2h0c0,0-3.8,0-6.3,0.2
	c-0.7,0-1.3,0.3-1.8,0.8c-0.4,0.5-0.6,1.2-0.7,1.8c-0.1,1-0.2,2-0.2,3v1.4c0,1,0.1,2,0.2,3c0.1,0.7,0.3,1.3,0.7,1.8
	c0.5,0.5,1.3,0.8,2,0.8c1.4,0.1,6.1,0.2,6.1,0.2s3.8,0,6.3-0.2c0.7,0,1.3-0.3,1.8-0.8c0.4-0.5,0.6-1.2,0.7-1.8c0.1-1,0.2-2,0.2-3
	v-1.4C29,19.2,28.9,18.2,28.8,17.2z M18.1,23.3v-5.2l4.9,2.6L18.1,23.3z"/>
</svg>
