<?xml version="1.0" encoding="utf-8"?>
<!-- Generator: Adobe Illustrator 25.4.1, SVG Export Plug-In . SVG Version: 6.00 Build 0)  -->
<svg version="1.1" id="Layer_1" xmlns="http://www.w3.org/2000/svg" xmlns:xlink="http://www.w3.org/1999/xlink" x="0px" y="0px"
	 viewBox="0 0 300 300" style="enable-background:new 0 0 300 300;" xml:space="preserve">
<style type="text/css">
	.st0{fill:#010101;}
	.st1{clip-path:url(#SVGID_00000098940125867526043680000003352253683265353898_);}
	.st2{clip-path:url(#SVGID_00000095316791475099698360000012920801708088059555_);}
	.st3{clip-path:url(#SVGID_00000065038780215960526130000018079748203804713876_);}
	.st4{clip-path:url(#SVGID_00000096043385053254543690000002806342334182995097_);}
</style>
<g>
	<g>
		<g>
			<g>
				<g>
					<g>
						<g>
							<g>
								<g>
									<path class="st0" d="M216.5,37.2c0.3,0.2,1.5,0.8,2,2.3c0.5,1.5,0.3,3.9-2,7.3c-2.2,3.2-4.1,4.1-5.5,4.3
										c-1.4,0.2-2.4-0.5-2.7-0.7l0,0c-0.3-0.2-1.3-0.7-1.8-2.1c-0.5-1.4-0.5-3.5,1.4-6.8c2-3.6,4-4.9,5.6-5.1
										C215,36.2,216.1,36.9,216.5,37.2L216.5,37.2z M218,34.8c-0.7-0.4-3.3-2-6.4-2.1c-1.6-0.1-3.2,0.2-4.7,1
										c-1.5,0.9-3,2.4-4.1,4.7c-4.3,9.1,3.1,13.4,4.2,14.2c1.2,0.6,8.3,5.4,14.6-2.6c3.1-4.1,2.7-7.8,1.1-10.5
										c-0.8-1.3-1.8-2.5-2.7-3.3c-0.9-0.8-1.7-1.3-2.1-1.5"/>
									<path class="st0" d="M218,58.9c2.8,3.7,7,9.2,12,8.3c2-0.5,4.5-2.4,3.6-6c-0.7-3.9-4-8.4-3.4-10.1c0.3-1,1.3-1.4,2.4-1.4
										c1.9,0.1,3.6,1.3,4.9,2.9c1.3,1.5,2.3,3.5,3,5l1.8-1.7c-0.8-1.7-1.9-3.4-3.3-4.9c-1.4-1.5-3-2.9-4.7-3.9
										c-1.2-0.7-2.7-1.2-4.1-1.2c-1.4-0.1-2.8,0.3-3.7,1c-1.8,1.6-2.2,3.1-1.7,5.2c0.8,3.3,2.8,5.8,3.5,8.4
										c0.4,1.9-0.7,2.7-1.8,2.8c-1.3,0.1-2.5-0.7-3.4-1.5c-1-0.8-1.7-1.8-2-2.1c-0.7-0.9-0.9-1.6-1.5-2.6L218,58.9"/>
									<path class="st0" d="M230.6,70.5c1,2.1,2.5,4.6,4.2,6.6c1.8,2,3.8,3.5,6.3,3.5c2-0.2,4.8-1.7,4.5-5.3c0-2-0.7-4.2-1.2-6.1
										c-0.3-1-0.5-1.9-0.6-2.6c-0.1-0.8-0.1-1.4,0.1-1.8c0.5-1,1.5-1.2,2.6-1c1.9,0.4,3.3,1.9,4.4,3.6c1.1,1.7,1.7,3.8,2.1,5.4
										l2.1-1.4c-0.5-1.8-1.3-3.7-2.5-5.4c-1.2-1.7-2.5-3.3-4.1-4.6c-2.2-1.7-5.5-2.7-7.6-1.4c-2,1.3-2.7,2.7-2.5,4.9
										c0.1,1.7,0.6,3.2,1.1,4.7c0.5,1.5,0.9,2.9,1.1,4.2c0.1,1.9-1.2,2.5-2.2,2.4c-1.3-0.1-2.4-1.1-3.2-2.1c-0.8-1-1.4-2-1.6-2.4
										c-0.5-1-0.7-1.7-1-2.8L230.6,70.5"/>
									<path class="st0" d="M259,133.5c-0.2,1.1-0.4,2.4-0.5,3.8c-0.1,1.3-0.2,2.7-0.1,4c0.2,2.6,0.9,5.1,3,6.6
										c0.8,0.5,2.1,0.9,3.3,0.8c1.3-0.1,2.5-0.8,3.5-2.4c2.3-3.2,3.1-8.7,4.9-9.5c1-0.5,1.9-0.1,2.7,0.7c1.2,1.5,1.6,3.5,1.4,5.5
										c-0.2,2-0.9,4-1.5,5.6l2.5,0.1c0.7-1.7,1.1-3.7,1.2-5.8c0.1-2-0.1-4.1-0.5-6.1c-0.6-2.7-2.9-5.5-5.3-5.7
										c-2.4-0.2-3.8,0.6-4.9,2.4c-1.7,2.9-2.3,6.1-3.5,8.3c-1.1,1.6-2.5,1.4-3.2,0.6c-2-1.8-1.2-5.5-1.1-6.4
										c0.2-1.1,0.5-1.8,0.8-2.9L259,133.5"/>
									<path class="st0" d="M269.5,160.1l-0.8-0.1c0.2-2.4,0.5-5.3,0.8-7.5l-2.4-0.2c0.2,2.2-0.2,5-0.6,7.4
										c-0.4-0.1-6.6-0.9-6.6-0.9c0-2.8,0.8-6,0.9-8.7l-2.3-0.1c-0.2,4.7-0.8,9.5-1.6,14.1c0,0,0.6-0.4,1.3-0.2l17.5,3.1
										c0.8,0.1,1.1,0.7,1.1,0.7c1-5.6,1.7-11.2,1.9-16.8l-2.3-0.1c0,3.1,0,6.9-0.6,10"/>
									<path class="st0" d="M254.9,85.6l-0.7,0.4c-0.6-1-1.3-2.2-2-3.3c-0.7-1.1-1.3-2.2-1.8-3.2l-2,1.3c0.7,0.9,1.5,1.9,2.1,3
										c0.7,1.1,1.3,2.2,1.8,3.3c-0.4,0.2-5.8,3.3-5.8,3.3c-0.8-1.1-1.5-2.5-2.2-3.8c-0.7-1.3-1.5-2.6-2.2-3.8l-1.9,1.3
										c2.6,3.9,5,8,7.1,12.3c0,0,0.2-0.6,0.9-1l15.9-8c0.7-0.4,1.4-0.1,1.4-0.1c-2.5-5-5.4-9.9-8.5-14.6l-1.9,1.3
										c0.9,1.2,1.9,2.7,2.9,4.1c1,1.4,1.9,2.9,2.5,4.4"/>
									<path class="st0" d="M255,108.1c0,0-0.5-0.9-0.8-2c-0.4-1.1-0.5-2.4,0.2-3.4c0.9-1.1,2.5-2,4.1-1.5c1.8,0.7,2.4,2.9,3,4.6
										L255,108.1 M262.9,102.3c0.6-0.9,1.9-2.3,3.1-3.7c1.2-1.3,2.1-2.4,2.1-2.4c0.6-0.7,1.2-0.5,1.2-0.5c-0.9-2.3-2-4.5-3-6.8
										c0,0-0.1,0.9-0.7,1.6c-1.9,2.9-3.4,5.1-5.7,7.6c-0.1-0.1-0.1-0.1-0.4-0.4c-1.7-1.5-3.7-2-6.2-0.8c-3.1,1.6-3.2,4.9-2.3,7.6
										l1,2.4l0.9,2.4l0.8,2.4l0.7,2.5c0,0,0.3-0.6,1.1-0.8l17-5.1c0.8-0.2,1.4,0.1,1.4,0.1c-0.3-1.1-0.7-2.3-1-3.4l-1.2-3.4
										c0,0-0.3,0.7-1,0.9l-6.7,2.4"/>
									<path class="st0" d="M259.5,124.9c0,0-0.4-1-0.5-2.1c-0.1-1.2-0.1-2.5,0.7-3.3c1-1,3.6-1.8,5.2-1c1.7,0.9,1.9,3.2,2.2,5.1
										L259.5,124.9 M269.6,123c0,0-0.2-1.9-0.9-3.9c-0.7-2-1.9-4.3-3.5-5c-2.2-1.2-4.9-0.4-6.8,0.8c-2.1,1.5-2.8,3.7-2.3,6.1
										c0.7,3.3,1.3,6.6,1.7,9.9c0,0,0.4-0.5,1.2-0.6l17.6-2.4c0.8-0.1,1.3,0.4,1.3,0.4c-0.3-2.4-0.6-4.8-1.1-7.1
										c0,0-0.4,0.6-1.1,0.7"/>
									<g>
										<g>
											<defs>
												<path id="SVGID_1_" d="M271,214.7c9.5-16.3,15.7-34.9,17.8-53.9c2.2-19,0.4-38.3-5.1-56.4
													c-5.5-18.2-14.7-35.3-27.1-49.8C244.3,39.9,228.9,28,212,19.6l-49.7,100.2c3.5,1.8,6.6,4.1,9,7c2.4,2.8,4.3,6.2,5.4,9.9
													c1.1,3.7,1.5,7.6,1,11.3c-0.4,3.7-1.6,7.3-3.5,10.7L271,214.7z"/>
											</defs>
											<clipPath id="SVGID_00000037692955516777270340000007913301019331583636_">
												<use xlink:href="#SVGID_1_"  style="overflow:visible;"/>
											</clipPath>
											<g style="clip-path:url(#SVGID_00000037692955516777270340000007913301019331583636_);">
												<path class="st0" d="M256.4,167.4c0,0,0.4,0.5,1.1,0.7l19.9,4.3c-2.3,1.5-4.6,2.7-6.9,3.8c-2.3,1.2-4.6,2.2-7.1,3.2
													c0,0-2.2,0.9-4.9,1.8c-2.7,0.9-5.9,1.9-7.7,2.6c-3.1,0.9-6.7,2.9-8.6,4.5c-2.4,2.2-4.1,4.6-4.7,6.9l-0.3-0.2
													c0.2-1.8,0.7-3.5,1.5-5c0.7-1.5,1.5-3,2.6-4.2c1-1.3,2.2-2.5,3.5-3.5c1.3-1,2.7-1.9,4.2-2.6c0.8-0.4,3.4-1.5,4.9-2.2
													c1.9-0.8,4-1.6,6-2.4c2-0.8,3.9-1.7,5.8-2.7l-8.7-2.1c-0.7-0.2-1.3,0.1-1.3,0.1"/>
												<path class="st0" d="M268.8,195.3c0,0-0.3-0.7-1-1l-18.8-7.9c4.8-1.4,9.3-2.8,14.3-4.7c0,0,2.2-0.8,5-2
													c2.8-1.2,5.8-2.8,7.7-3.9c3-1.7,6.5-5.3,7.9-8.1c1-1.9,1.6-3.8,2-5.7c0.4-1.9,0.4-3.7,0.3-5.3l0.3,0
													c0.9,4.7,0.4,9.6-1.3,13.8c-1.6,4.2-4.3,7.6-7.3,9.8c-0.9,0.7-3.5,2.3-5.1,3.1c-2,1.1-4.1,1.9-6.2,2.7
													c-2.1,0.8-4.2,1.5-6.1,2.2l8.4,3.3c0.7,0.3,1.4,0,1.4,0"/>
											</g>
										</g>
									</g>
								</g>
							</g>
							<g>
								<g>
									<path class="st0" d="M43.5,76.5c0.3-0.6,2.9-4.6,9.6,0.2c6.3,4.5,3.8,7.7,3.5,8.2l0,0c-0.4,0.6-2.2,4.1-8.9,0.3
										C40.4,81.1,43.1,77.1,43.5,76.5L43.5,76.5z M41.1,75c-0.4,0.7-2,3.3-2.2,6.4c-0.2,3.1,1,6.6,5.6,8.9
										c4.6,2.3,7.9,1.5,10.2,0.1c2.3-1.4,3.7-3.5,4-4.1c0.3-0.6,1.7-2.7,2-5.4c0.3-2.7-0.3-6.1-4.3-9.3c-4-3.2-7.7-2.8-10.5-1.3
										c-2.7,1.5-4.5,4-4.9,4.7"/>
									<path class="st0" d="M65.2,75.3c1-0.7,2-1.4,3-2.3c1-0.9,2.1-1.8,3-2.8c0.4-0.5,0.8-1,1.2-1.6c0.4-0.5,0.7-1.1,0.9-1.6
										c0.5-1.1,0.7-2.3,0.5-3.6c-0.4-2-2.3-4.6-5.9-3.7c-3.9,0.6-8.4,3.9-10.2,3.2c-1-0.3-1.4-1.3-1.3-2.4
										c0.2-1.9,1.4-3.5,2.9-4.8c1.6-1.3,3.5-2.2,5-2.9l-1.7-1.9c-1.7,0.7-3.4,1.8-5,3.2c-1.5,1.4-2.9,3-4,4.7
										c-1.4,2.4-1.9,5.9-0.3,7.7c1.5,1.8,3.1,2.3,5.2,1.8c1.7-0.4,3.1-1.1,4.5-1.7c1.4-0.6,2.7-1.3,3.9-1.6
										c1.9-0.4,2.7,0.8,2.7,1.9c0.1,2.6-3.1,4.7-3.8,5.3c-1,0.7-1.6,0.9-2.6,1.4L65.2,75.3"/>
									<path class="st0" d="M77.1,62.9c1-0.5,2.2-1.1,3.3-1.8c1.2-0.7,2.3-1.4,3.3-2.3c2.1-1.7,3.6-3.7,3.6-6.3
										c-0.1-2-1.6-4.9-5.3-4.5c-1.9,0-4.2,0.6-6.1,1.1c-1.9,0.5-3.6,0.9-4.4,0.5c-1-0.5-1.2-1.5-1-2.6c0.5-1.9,1.9-3.3,3.7-4.3
										c1.8-1,3.8-1.7,5.4-2.1l-1.4-2.1c-1.8,0.4-3.6,1.3-5.4,2.4c-1.8,1.1-3.3,2.5-4.7,4c-1.8,2.1-2.8,5.5-1.5,7.6
										c1.2,2,2.7,2.8,4.9,2.6c3.3-0.3,6.3-1.7,8.9-2c1.9-0.1,2.5,1.2,2.4,2.3c-0.3,2.6-3.8,4.2-4.6,4.7c-1,0.5-1.7,0.7-2.8,1
										L77.1,62.9"/>
									<path class="st0" d="M140.6,35.6c0.6,0.1,1.2,0.2,1.8,0.3c0.6,0.1,1.3,0.2,2,0.3c1.3,0.2,2.7,0.2,4,0.2
										c2.7-0.1,5.1-0.8,6.6-2.9c1.1-1.7,1.6-4.8-1.5-6.8c-1.6-1.2-3.7-2-5.6-2.8c-1.9-0.7-3.4-1.4-3.8-2.3c-0.5-1,0-1.9,0.8-2.7
										c0.7-0.6,1.6-1,2.5-1.2c0.9-0.2,1.9-0.2,3-0.1c1,0.1,2,0.3,3,0.6c0.9,0.3,1.8,0.7,2.6,1l0.1-2.5c-0.9-0.4-1.8-0.7-2.7-0.9
										c-1-0.2-2-0.4-3-0.4c-1-0.1-2.1-0.1-3.1,0c-1,0.1-2,0.2-3,0.4c-2.7,0.6-5.5,2.8-5.7,5.2c-0.2,2.4,0.5,3.8,2.4,4.9
										c1.4,0.9,2.9,1.5,4.4,2c1.4,0.5,2.8,1,3.9,1.7c1.6,1.1,1.3,2.5,0.5,3.3c-1.8,1.8-5.5,1.2-6.4,1c-1.1-0.3-1.8-0.5-2.9-0.9
										L140.6,35.6"/>
									<path class="st0" d="M167.4,25.6l-0.1,0.8c-2.4-0.3-5.3-0.6-7.5-1l-0.2,2.4c2.2,0,5,0.2,7.4,0.7c-0.1,0.4-1,6.6-1,6.6
										c-0.7,0-1.4-0.1-2.1-0.2c-0.7-0.1-1.5-0.2-2.2-0.3c-1.5-0.2-3-0.5-4.3-0.6l-0.2,2.3c4.7,0.3,9.5,0.9,14.1,1.9
										c0,0-0.3-0.6-0.2-1.3l3.4-17.4c0.1-0.8,0.8-1.1,0.8-1.1c-5.5-1.1-11.1-1.8-16.8-2.2l-0.1,2.3c1.5,0,3.3,0.1,5,0.2
										c0.9,0.1,1.7,0.1,2.6,0.2c0.8,0.1,1.7,0.3,2.4,0.4"/>
									<path class="st0" d="M92.6,38.9l0.4,0.7c-2,1.3-4.6,2.7-6.6,3.7l1.3,2c1.7-1.4,4.2-2.8,6.4-3.8c0.2,0.4,3.2,5.9,3.2,5.9
										c-2.3,1.6-5.4,2.9-7.6,4.3l1.2,1.9c4-2.6,8.1-4.9,12.4-6.9c0,0-0.6-0.3-0.9-1l-7.7-16c-0.3-0.7-0.1-1.4-0.1-1.4
										c-5.1,2.4-10,5.1-14.7,8.2l1.2,1.9c2.5-1.8,5.6-4,8.5-5.3"/>
									<path class="st0" d="M115.1,39.1c0,0-0.9,0.5-2,0.8c-1.1,0.3-2.5,0.5-3.4-0.3c-1.1-0.9-1.9-2.5-1.4-4.2
										c0.7-1.8,2.9-2.3,4.7-2.9L115.1,39.1 M109.4,31.2c-0.8-0.6-2.3-2-3.6-3.2c-1.3-1.2-2.4-2.2-2.4-2.2
										c-0.7-0.6-0.5-1.2-0.5-1.2l-3.4,1.4c-1.1,0.5-2.3,1-3.4,1.5c0,0,0.9,0.1,1.5,0.7c2.9,1.9,5,3.5,7.5,5.9
										c-0.1,0.1-0.1,0.1-0.4,0.4c-1.5,1.6-2.1,3.6-0.9,6.2c0.7,1.6,2,2.4,3.3,2.7c1.4,0.4,2.9,0.2,4.2-0.2
										c1.6-0.6,3.3-1.2,4.9-1.7c1.6-0.5,3.3-1,5-1.5c0,0-0.5-0.3-0.8-1.1l-4.8-17.1c-0.2-0.8,0.2-1.4,0.2-1.4
										c-2.3,0.7-4.6,1.3-6.9,2.1c0,0,0.6,0.3,0.9,1l2.2,6.8"/>
									<path class="st0" d="M132,35c0,0-0.3,0.1-0.6,0.2c-0.4,0.1-0.9,0.2-1.5,0.3c-1.1,0.2-2.5,0.1-3.3-0.8
										c-0.9-1.1-1.7-3.6-0.9-5.2c1-1.6,3.2-1.9,5.1-2.1L132,35 M130.3,24.8c0,0-0.5,0-1.2,0.2c-0.7,0.1-1.7,0.4-2.7,0.7
										c-2.1,0.6-4.3,1.8-5.1,3.4c-1.2,2.1-0.5,4.9,0.6,6.8c1.5,2.2,3.6,2.8,6.1,2.4c3.3-0.7,6.6-1.2,9.9-1.6c0,0-0.5-0.4-0.6-1.2
										l-2.1-17.6c-0.1-0.8,0.4-1.3,0.4-1.3c-2.4,0.3-4.8,0.6-7.1,1c0,0,0.6,0.4,0.7,1.2"/>
									<g>
										<g>
											<defs>
												<path id="SVGID_00000155134456570093673990000006598528143935721137_" d="M221.9,25.1c-16.2-9.7-34.6-16.3-53.5-18.8
													c-18.9-2.5-38.3-1.1-56.5,4.1c-18.3,5.2-35.5,14.1-50.3,26.2c-14.8,12.1-27,27.3-35.7,44l99.4,51.4
													c1.8-3.5,4.2-6.5,7.1-8.8c2.9-2.4,6.3-4.2,10-5.2c3.7-1.1,7.6-1.4,11.3-0.8c3.7,0.5,7.2,1.7,10.6,3.8L221.9,25.1z"/>
											</defs>
											<clipPath id="SVGID_00000071543277324297944920000009925802390316381353_">
												<use xlink:href="#SVGID_00000155134456570093673990000006598528143935721137_"  style="overflow:visible;"/>
											</clipPath>
											<g style="clip-path:url(#SVGID_00000071543277324297944920000009925802390316381353_);">
												<path class="st0" d="M174.5,38.8c0,0,0.5-0.4,0.7-1.1l4.7-19.8c1.4,2.4,2.6,4.6,3.7,6.9c1.1,2.3,2.1,4.7,3.1,7.2
													c0,0,0.2,0.6,0.5,1.5c0.3,0.9,0.7,2.2,1.2,3.5c0.9,2.7,1.8,5.9,2.4,7.8c0.4,1.5,1.1,3.2,1.9,4.8c0.8,1.6,1.6,3,2.4,3.9
													c1.1,1.2,2.2,2.3,3.3,3.1c0.6,0.4,1.2,0.7,1.8,1c0.6,0.3,1.2,0.5,1.7,0.7l-0.2,0.3c-1.8-0.3-3.4-0.8-5-1.5
													c-1.5-0.7-2.9-1.6-4.2-2.7c-1.3-1.1-2.4-2.3-3.4-3.6c-1-1.3-1.8-2.8-2.5-4.3c-0.4-0.8-1.5-3.4-2.1-4.9
													c-0.7-1.9-1.5-4-2.3-6c-0.4-1-0.8-2-1.2-3c-0.4-1-0.9-1.9-1.4-2.9l-2.3,8.7c-0.2,0.7,0.1,1.3,0.1,1.3"/>
												<path class="st0" d="M202.6,26.9c0,0-0.7,0.3-1,0.9l-8.2,18.6c-0.7-2.4-1.3-4.7-2-7.1c-0.7-2.4-1.5-4.7-2.5-7.2
													c0,0-0.8-2.3-1.9-5c-1.1-2.7-2.6-6-3.8-7.7c-0.8-1.5-2.1-3.1-3.5-4.6c-1.4-1.4-3-2.7-4.4-3.4c-1.8-1.1-3.8-1.7-5.7-2.1
													c-0.9-0.2-1.9-0.4-2.8-0.4c-0.9-0.1-1.7-0.1-2.5,0l0-0.3c2.4-0.4,4.8-0.5,7.1-0.2c2.3,0.2,4.6,0.9,6.6,1.7
													c2.1,0.8,4,2,5.6,3.2c0.8,0.6,1.6,1.3,2.3,2c0.7,0.7,1.3,1.5,1.8,2.3c0.7,0.9,2.3,3.5,3,5.1c2,4.2,3.3,8.4,4.7,12.5
													l3.4-8.3c0.3-0.7,0-1.4,0-1.4"/>
											</g>
										</g>
									</g>
								</g>
							</g>
						</g>
					</g>
					<g>
						<g>
							<g>
								<g>
									<path class="st0" d="M78.6,249.3c-0.3-0.2-1.4-0.9-1.9-2.4c-0.4-1.5-0.1-3.9,2.4-7.2c2.3-3.1,4.3-3.9,5.7-4
										c1.4-0.1,2.4,0.6,2.6,0.8l0,0c0.3,0.2,1.3,0.8,1.7,2.2c0.4,1.3,0.3,3.5-1.7,6.8c-2.2,3.5-4.2,4.7-5.8,4.8
										C80,250.3,78.9,249.5,78.6,249.3L78.6,249.3z M77,251.6c0.3,0.2,1.1,0.8,2.2,1.3c1.1,0.5,2.6,1,4.1,1.1
										c3.1,0.3,6.6-0.8,9.1-5.3c4.8-8.9-2.5-13.5-3.5-14.4c-0.6-0.4-2.6-1.7-5.3-2.2c-1.3-0.2-2.9-0.1-4.5,0.4
										c-1.6,0.6-3.3,1.7-4.9,3.6c-1.6,2-2.4,3.9-2.6,5.6c-0.2,1.8,0.3,3.4,1,4.8c1.4,2.8,3.9,4.6,4.6,5"/>
									<path class="st0" d="M78,227.5c-0.7-0.9-1.4-2-2.2-3.1c-0.8-1.1-1.8-2.1-2.7-3c-1-0.9-2-1.7-3.1-2.2
										c-1.1-0.5-2.3-0.8-3.5-0.6c-2,0.4-4.6,2.2-3.9,5.8c0.2,2,1.2,4.1,1.9,6c0.7,1.9,1.4,3.4,1,4.3c-0.4,1-1.4,1.4-2.5,1.3
										c-1.9-0.2-3.5-1.5-4.7-3.1c-1.3-1.6-2.1-3.5-2.7-5.1l-1.9,1.6c0.7,1.7,1.7,3.5,3,5.1c1.3,1.6,2.8,3,4.5,4.1
										c1.2,0.8,2.6,1.3,4,1.4c1.4,0.1,2.8-0.1,3.7-0.9c1.9-1.5,2.4-3,1.9-5.1c-0.6-3.3-2.6-6-3.1-8.5c-0.3-1.9,0.9-2.7,1.9-2.7
										c2.6,0,4.7,3.2,5.2,3.9c0.6,1,0.8,1.6,1.4,2.7L78,227.5"/>
									<path class="st0" d="M66,215.3c-0.9-2.1-2.3-4.7-3.9-6.8c-1.7-2.1-3.6-3.7-6.2-3.8c-2,0.1-4.9,1.4-4.7,5.1
										c-0.1,2,0.5,4.2,0.9,6.2c0.4,2,0.8,3.6,0.3,4.4c-0.5,0.9-1.6,1.1-2.6,0.9c-1.9-0.5-3.2-2-4.2-3.8c-1-1.8-1.5-3.9-1.9-5.5
										l-2.1,1.3c0.8,3.6,3.1,7.5,6,10.2c2.1,1.8,5.4,3,7.5,1.8c2.1-1.2,2.8-2.6,2.7-4.8c-0.1-1.7-0.5-3.3-0.9-4.7
										c-0.4-1.5-0.8-2.9-0.9-4.2c0-1.9,1.3-2.5,2.4-2.3c1.3,0.2,2.3,1.2,3.1,2.2c0.8,1,1.3,2.1,1.5,2.5c0.5,1.1,0.6,1.7,0.9,2.9
										L66,215.3"/>
									<path class="st0" d="M40.6,151.1c0.3-1.1,0.5-2.4,0.7-3.7c0.2-1.3,0.3-2.7,0.3-4c-0.1-2.7-0.6-5.1-2.7-6.7
										c-1.6-1.1-4.8-1.8-6.8,1.3c-2.5,3.1-3.5,8.5-5.3,9.3c-1,0.5-1.9,0-2.6-0.8c-1.2-1.5-1.4-3.5-1.1-5.5c0.3-2,1.1-4,1.7-5.5
										l-2.5-0.2c-0.7,1.7-1.2,3.7-1.5,5.7c-0.2,2-0.1,4.1,0.2,6.1c0.5,2.7,2.6,5.6,5,5.9c2.3,0.3,3.8-0.4,5-2.2
										c1.9-2.8,2.5-6,3.9-8.2c1.1-1.5,2.5-1.2,3.3-0.5c1.9,1.8,0.9,5.6,0.8,6.5c-0.3,1.1-0.6,1.7-0.9,2.8L40.6,151.1"/>
									<path class="st0" d="M31.3,123.9l0.8,0.1c-0.2,2.4-0.8,5.3-1.2,7.5l2.4,0.3c-0.1-2.2,0.4-5,0.9-7.4
										c0.4,0.1,6.6,1.2,6.6,1.2c-0.2,2.8-1.1,6-1.4,8.7l2.3,0.2c0.4-4.7,1.2-9.4,2.3-14.1c0,0-0.6,0.3-1.3,0.2l-17.3-3.9
										c-0.8-0.2-1.1-0.8-1.1-0.8c-1.2,5.5-2.2,11.1-2.7,16.7l2.3,0.2c0.2-3.1,0.3-6.9,1.1-10"/>
									<path class="st0" d="M42.5,199.1l0.7-0.3c0.6,1,1.2,2.2,1.8,3.4c0.6,1.2,1.2,2.3,1.7,3.3l2.1-1.2c-0.7-0.9-1.4-2-2-3.1
										c-0.6-1.1-1.2-2.3-1.6-3.4c0.4-0.2,6-3,6-3c0.8,1.1,1.4,2.5,2.1,3.9c0.7,1.4,1.3,2.7,2,3.9l1.9-1.2
										c-2.4-4.1-4.7-8.3-6.6-12.6c0,0-0.3,0.6-1,0.9l-16.2,7.2c-0.7,0.3-1.4,0-1.4,0c2.2,5.1,4.9,10.1,7.8,14.9l1.9-1.2
										c-0.8-1.3-1.8-2.7-2.7-4.2c-0.9-1.5-1.7-3-2.3-4.5"/>
									<path class="st0" d="M43.4,176.6c0,0,0.5,0.9,0.7,2c0.3,1.1,0.4,2.5-0.3,3.4c-1,1.1-2.6,1.9-4.2,1.3
										c-1.7-0.7-2.3-3-2.8-4.8L43.4,176.6 M35.2,182.1c-0.7,0.8-2.1,2.2-3.3,3.5c-1.2,1.3-2.3,2.3-2.3,2.3
										c-0.6,0.7-1.2,0.4-1.2,0.4c0.8,2.3,1.8,4.6,2.7,6.9c0,0,0.2-0.9,0.7-1.5c2.1-2.8,3.7-4.9,6.1-7.3c0.1,0.1,0.1,0.1,0.4,0.4
										c1.6,1.6,3.6,2.2,6.2,1.1c3.2-1.4,3.4-4.7,2.7-7.4l-0.8-2.4l-0.7-2.5L45,173l-0.6-2.5c0,0-0.4,0.5-1.1,0.7L26,175.5
										c-0.8,0.2-1.3-0.2-1.3-0.2c0.5,2.3,1.2,4.6,1.9,6.9c0,0,0.3-0.6,1.1-0.9l6.8-2"/>
									<path class="st0" d="M39.7,159.6c0,0,0.3,1,0.4,2.1c0.1,1.2,0,2.5-0.9,3.3c-1.1,0.9-3.6,1.6-5.2,0.8
										c-1.7-1-1.8-3.3-1.9-5.2L39.7,159.6 M29.5,161c0,0,0.2,1.9,0.7,4c0.6,2.1,1.7,4.4,3.2,5.2c2.1,1.3,4.9,0.7,6.8-0.5
										c2.2-1.4,3-3.5,2.6-6c-0.6-3.3-1-6.6-1.3-9.9c0,0-0.4,0.5-1.2,0.6l-17.7,1.5c-0.8,0.1-1.3-0.4-1.3-0.4
										c0.2,2.4,0.4,4.8,0.8,7.2c0,0,0.4-0.6,1.2-0.7"/>
									<g>
										<g>
											<defs>
												<path id="SVGID_00000106862771492439052990000004722410945877097626_" d="M32.4,69.4c-10.2,15.9-17.2,34.1-20.3,52.9
													C9,141.2,9.9,160.6,14.6,179c4.6,18.4,13,35.9,24.7,51c11.6,15.1,26.5,27.8,43,37l54.3-97.8c-3.5-1.9-6.3-4.4-8.6-7.3
													c-2.3-2.9-4-6.5-4.9-10.2c-0.9-3.7-1.1-7.6-0.5-11.3c0.6-3.7,1.9-7.2,4.1-10.6L32.4,69.4z"/>
											</defs>
											<clipPath id="SVGID_00000110467382977963409600000016876087663891460495_">
												<use xlink:href="#SVGID_00000106862771492439052990000004722410945877097626_"  style="overflow:visible;"/>
											</clipPath>
											<g style="clip-path:url(#SVGID_00000110467382977963409600000016876087663891460495_);">
												<path class="st0" d="M44.8,117.3c0,0-0.4-0.6-1.1-0.8L24,111.2c2.3-1.4,4.7-2.5,7.1-3.5c1.2-0.5,2.3-1,3.5-1.5
													c1.2-0.5,2.4-0.9,3.7-1.4c0,0,2.3-0.8,5-1.6c2.8-0.8,6-1.6,7.8-2.2c1.5-0.4,3.3-1,4.8-1.8c1.6-0.7,3-1.5,3.9-2.3
													c1.3-1,2.3-2.1,3.2-3.3c0.9-1.1,1.5-2.3,1.8-3.4l0.3,0.2c-0.3,1.8-0.9,3.4-1.7,4.9c-0.7,1.5-1.7,2.9-2.8,4.1
													c-1.1,1.3-2.3,2.4-3.7,3.3c-1.3,1-2.8,1.8-4.3,2.4c-0.4,0.2-1.3,0.5-2.3,0.9c-0.9,0.4-2,0.8-2.7,1c-2,0.7-4,1.4-6.1,2.1
													c-2,0.7-4,1.5-6,2.4l8.6,2.5c0.7,0.2,1.3-0.1,1.3-0.1"/>
												<path class="st0" d="M33.7,88.9c0,0,0.2,0.7,0.9,1L53,98.6c-1.2,0.3-2.4,0.6-3.6,0.9c-1.2,0.3-2.4,0.6-3.6,0.9
													c-2.4,0.7-4.8,1.3-7.3,2.2c0,0-2.3,0.7-5.1,1.8c-2.8,1-6,2.5-7.8,3.5c-0.8,0.4-1.6,0.9-2.4,1.5
													c-0.8,0.6-1.6,1.2-2.3,1.9c-1.5,1.4-2.8,2.9-3.6,4.3c-1.1,1.8-1.8,3.7-2.3,5.6c-0.4,1.9-0.6,3.7-0.6,5.3l-0.3,0
													c-0.7-4.8,0.1-9.6,1.9-13.7c0.9-2,2-3.9,3.4-5.5c1.3-1.6,2.8-2.9,4.4-4c0.9-0.7,3.6-2.2,5.2-2.9c4.1-1.9,8.5-3,12.5-4.3
													l-8.2-3.7c-0.7-0.3-1.4,0-1.4,0"/>
											</g>
										</g>
									</g>
								</g>
							</g>
							<g>
								<g>
									<path class="st0" d="M253.2,218.1c-0.3,0.6-3.1,4.5-9.6-0.7c-6.1-4.8-3.4-7.8-3.1-8.4l0,0c0.4-0.5,2.4-4,9,0.1
										C256.5,213.6,253.6,217.5,253.2,218.1L253.2,218.1z M255.5,219.7c0.4-0.7,2.2-3.2,2.5-6.3c0.3-3.1-0.7-6.6-5.1-9.2
										c-4.5-2.5-7.9-1.9-10.2-0.6c-2.4,1.3-3.9,3.3-4.2,3.9c-0.4,0.6-1.9,2.6-2.3,5.3c-0.4,2.7,0,6.1,3.9,9.5
										c3.9,3.4,7.6,3.2,10.4,1.8c2.8-1.4,4.7-3.8,5.1-4.5"/>
									<path class="st0" d="M231.4,218.2c-2,1.2-4.3,2.9-6.2,4.8c-1.8,1.9-3.2,4.1-2.9,6.6c0.3,2,2.1,4.7,5.7,3.9
										c1-0.1,2-0.4,3-0.7c1-0.3,2-0.7,2.9-1.1c1.9-0.7,3.5-1.3,4.4-0.9c1,0.4,1.4,1.4,1.2,2.5c-0.3,1.9-1.6,3.5-3.2,4.7
										c-1.6,1.2-3.6,2-5.2,2.6l1.6,1.9c1.7-0.7,3.5-1.7,5.1-2.9c1.6-1.3,3-2.8,4.2-4.5c1.5-2.3,2.1-5.8,0.7-7.7
										c-1.4-1.9-3-2.4-5.1-2c-1.7,0.3-3.1,0.9-4.6,1.5c-1.4,0.6-2.8,1.2-4,1.4c-1.9,0.3-2.7-0.9-2.6-2c0-2.6,3.3-4.6,4-5.2
										c1-0.6,1.6-0.8,2.7-1.3L231.4,218.2"/>
									<path class="st0" d="M219,230c-1.1,0.5-2.2,1-3.4,1.7c-1.2,0.6-2.4,1.3-3.5,2.1c-2.1,1.6-3.8,3.5-3.9,6.1
										c0,1,0.3,2.2,1.1,3.2c0.8,1,2.1,1.7,3.9,1.6c1.9,0.1,4.3-0.4,6.2-0.8c2-0.4,3.6-0.8,4.5-0.2c0.9,0.5,1.1,1.6,0.8,2.6
										c-0.6,1.8-2.1,3.2-3.9,4.1c-1.8,0.9-3.9,1.5-5.5,1.8l1.3,2.2c1.8-0.4,3.7-1.1,5.5-2.1c1.8-1,3.4-2.3,4.8-3.8
										c1.9-2,3-5.4,1.9-7.5c-1.1-2.1-2.5-2.9-4.7-2.8c-3.3,0.1-6.3,1.4-8.9,1.6c-1.9,0-2.5-1.3-2.3-2.4c0.4-2.6,4-4,4.8-4.5
										c1.1-0.5,1.7-0.6,2.9-0.9L219,230"/>
									<path class="st0" d="M154.3,254.3c-1.1-0.2-2.4-0.5-3.7-0.7c-1.3-0.2-2.7-0.3-4-0.3c-2.7,0-5.1,0.6-6.8,2.5
										c-1.2,1.6-1.9,4.7,1.2,6.9c1.5,1.2,3.6,2.2,5.5,3c1.8,0.8,3.4,1.5,3.7,2.4c0.4,1-0.1,1.9-0.9,2.6c-0.8,0.6-1.7,0.9-2.6,1.1
										c-0.9,0.1-2,0.1-3-0.1c-1-0.2-2-0.4-2.9-0.8c-0.9-0.3-1.8-0.7-2.6-1.1l-0.2,2.5c1.7,0.8,3.6,1.3,5.7,1.6
										c1,0.1,2.1,0.2,3.1,0.2c1,0,2-0.1,3-0.3c2.7-0.4,5.6-2.5,6-4.9c0.4-2.3-0.3-3.8-2.1-5.1c-1.4-0.9-2.9-1.7-4.3-2.2
										c-1.4-0.6-2.8-1.1-3.8-1.9c-1.5-1.2-1.2-2.6-0.4-3.3c1.9-1.7,5.6-0.9,6.5-0.7c1.1,0.3,1.7,0.6,2.8,1L154.3,254.3"/>
									<path class="st0" d="M127.1,263.1l0.1-0.8c2.4,0.4,5.3,0.8,7.5,1.3l0.3-2.4c-2.2-0.1-5-0.4-7.3-1.1
										c0.1-0.4,1.3-6.6,1.3-6.6c0.7,0.1,1.4,0.2,2.1,0.3c0.7,0.1,1.5,0.3,2.2,0.4c1.5,0.3,3,0.7,4.3,0.8l0.3-2.3
										c-1.2-0.1-2.4-0.3-3.5-0.5c-1.2-0.2-2.4-0.3-3.5-0.6c-2.3-0.5-4.7-0.9-7-1.5c0,0,0.3,0.6,0.1,1.3l-4.2,17.3
										c-0.2,0.8-0.8,1.1-0.8,1.1c2.7,0.7,5.5,1.2,8.3,1.8c1.4,0.3,2.8,0.4,4.2,0.7c1.4,0.2,2.8,0.4,4.2,0.5l0.2-2.3
										c-1.5-0.1-3.2-0.3-5-0.4c-0.9-0.1-1.7-0.2-2.6-0.3c-0.8-0.2-1.6-0.3-2.4-0.6"/>
									<path class="st0" d="M202.4,253.3l-0.3-0.7c2.1-1.2,4.7-2.5,6.7-3.4l-1.2-2.1c-1.8,1.4-4.3,2.6-6.5,3.5
										c-0.2-0.4-2.9-6-2.9-6c2.3-1.5,5.5-2.6,7.8-4l-1.1-2c-4.1,2.4-8.3,4.5-12.7,6.4c0,0,0.6,0.3,0.9,1l6.9,16.3
										c0.3,0.7,0,1.4,0,1.4c5.2-2.2,10.2-4.7,15.1-7.5l-1.1-2c-2.6,1.6-5.8,3.8-8.7,4.9"/>
									<path class="st0" d="M179.9,252c0,0,0.9-0.5,2.1-0.7c1.1-0.3,2.5-0.3,3.4,0.4c1,1,1.8,2.6,1.2,4.2c-0.8,1.8-3,2.2-4.8,2.7
										L179.9,252 M185.2,260.2c0.8,0.7,2.2,2.1,3.5,3.3c1.2,1.2,2.3,2.3,2.3,2.3c0.7,0.6,0.4,1.2,0.4,1.2l3.5-1.2
										c1.2-0.4,2.3-0.9,3.5-1.4c0,0-0.9-0.2-1.5-0.7c-2.8-2.1-4.8-3.8-7.2-6.2c0.1-0.1,0.1-0.1,0.4-0.4c1.6-1.5,2.2-3.5,1.2-6.1
										c-0.7-1.6-1.8-2.4-3.2-2.9c-1.3-0.4-2.8-0.3-4.2,0.1c-1.6,0.5-3.3,1-5,1.5c-1.7,0.5-3.3,0.8-5,1.3c0,0,0.5,0.4,0.7,1.1
										l4,17.3c0.2,0.8-0.2,1.3-0.2,1.3c2.3-0.6,4.7-1.1,7-1.8c0,0-0.6-0.3-0.8-1.1l-1.9-6.9"/>
									<path class="st0" d="M162.9,255.4c0,0,0.3-0.1,0.6-0.2c0.4-0.1,0.9-0.2,1.5-0.3c1.2-0.1,2.5,0,3.3,1
										c0.9,1.1,1.5,3.7,0.7,5.2c-1,1.6-3.3,1.7-5.2,1.8L162.9,255.4 M164.1,265.6c0,0,0.5,0,1.2-0.1c0.7-0.1,1.7-0.3,2.8-0.6
										c2.1-0.5,4.4-1.6,5.2-3.1c1.3-2.1,0.7-4.8-0.3-6.8c-1.4-2.3-3.5-3-6-2.7c-1.7,0.2-3.3,0.5-5,0.7c-1.7,0.2-3.3,0.3-5,0.4
										c0,0,0.5,0.5,0.5,1.2l1.2,17.7c0.1,0.8-0.4,1.3-0.4,1.3c2.4-0.2,4.8-0.4,7.2-0.7c0,0-0.6-0.4-0.7-1.2"/>
									<g>
										<g>
											<defs>
												<path id="SVGID_00000065795647076631223490000008499764618034910390_" d="M72.6,261.1c15.7,10.5,33.7,17.8,52.5,21.2
													c18.8,3.4,38.2,2.9,56.7-1.5c18.5-4.3,36.1-12.4,51.4-23.8c15.3-11.3,28.3-26,37.8-42.4l-96.9-55.9
													c-2,3.4-4.5,6.2-7.5,8.4c-3,2.2-6.6,3.9-10.3,4.7c-3.7,0.9-7.6,1-11.3,0.3c-3.7-0.7-7.2-2.1-10.5-4.3L72.6,261.1z"/>
											</defs>
											<clipPath id="SVGID_00000022553713993539012980000005222139839578046358_">
												<use xlink:href="#SVGID_00000065795647076631223490000008499764618034910390_"  style="overflow:visible;"/>
											</clipPath>
											<g style="clip-path:url(#SVGID_00000022553713993539012980000005222139839578046358_);">
												<path class="st0" d="M120.6,249.5c0,0-0.6,0.4-0.8,1.1l-5.6,19.6c-1.3-2.4-2.4-4.8-3.4-7.1c-1-2.4-1.9-4.8-2.7-7.3
													c0,0-0.2-0.6-0.5-1.5c-0.3-0.9-0.6-2.2-1-3.6c-0.8-2.8-1.6-6-2.1-7.9c-0.4-1.5-1-3.3-1.7-4.8c-0.7-1.6-1.5-3-2.2-4
													c-1-1.3-2.1-2.4-3.2-3.2c-1.1-0.9-2.3-1.5-3.4-1.9l0.2-0.3c3.5,0.8,6.5,2.4,8.9,4.6c1.2,1.1,2.3,2.3,3.2,3.7
													c0.5,0.7,0.9,1.4,1.3,2.1c0.4,0.7,0.7,1.5,1,2.2c0.4,0.9,1.3,3.5,1.8,5c1.4,3.9,2.5,8.2,4.3,12.1l2.7-8.6
													c0.2-0.7-0.1-1.3-0.1-1.3"/>
												<path class="st0" d="M92,260.1c0,0,0.7-0.2,1-0.9l9.1-18.2c0.5,2.4,1.1,4.8,1.7,7.2c0.6,2.4,1.3,4.8,2.1,7.4
													c0,0,0.2,0.6,0.5,1.5c0.3,0.9,0.7,2.2,1.2,3.6c1,2.8,2.4,6.1,3.4,7.9c0.7,1.5,1.9,3.2,3.3,4.8c1.4,1.5,2.9,2.8,4.2,3.6
													c1.8,1.1,3.7,1.9,5.6,2.4c1.9,0.5,3.7,0.7,5.3,0.7l0,0.3c-2.4,0.3-4.8,0.2-7.1-0.1c-2.3-0.3-4.5-1.1-6.6-2
													c-2-0.9-3.9-2.1-5.4-3.5c-1.6-1.3-2.9-2.8-3.9-4.5c-0.7-0.9-2.1-3.7-2.8-5.2c-0.9-2.1-1.6-4.3-2.3-6.4
													c-0.3-1.1-0.6-2.1-0.9-3.2c-0.3-1.1-0.6-2.1-0.9-3.1l-3.8,8.1c-0.3,0.7-0.1,1.4-0.1,1.4"/>
											</g>
										</g>
									</g>
								</g>
							</g>
						</g>
					</g>
				</g>
			</g>
		</g>
	</g>
</g>
</svg>
