<svg id="Layer_1" data-name="Layer 1" xmlns="http://www.w3.org/2000/svg" viewBox="0 0 2400 410"><defs><style>.cls-1{fill:#fff;}</style></defs><path class="cls-1" d="M1008.47,53.2c4.61,2.56,7.35,4.54,8.25,5.95s.83,4.54-.19,9.4a365.11,365.11,0,0,1-9.21,40.3q-7.68,26.49-15.74,53t-13.81,49.51q12.66-5,26.67-10.17t26.29-9.79q8.44-3.06,11.33-1.92t7.1,10.37c-1,1-2,1.92-2.88,2.68s-2,1.67-3.26,2.69a105.78,105.78,0,0,1-14.4,8.64q-8.62,4.41-18,8.63t-18.42,7.87q-9,3.66-15.16,6.33a13,13,0,0,0-8.44,10q-4.23,21.51-8.07,39.73t-8.82,39.72a171.21,171.21,0,0,1-4.61,18q-2.68,8.83-11.9,9.22c-5.37,0-8.83-.65-10.36-1.92s-2.44-4.74-2.69-10.37a215.06,215.06,0,0,1,1.73-37.61q2.49-18.42,6.72-36.85c.76-2.81,1.47-5.62,2.11-8.44s1.34-5.89,2.11-9.21a14.59,14.59,0,0,1-3.46,1,27.57,27.57,0,0,0-3.07.57q-10.37,2.69-20.72,5.37t-20.73,5a13.19,13.19,0,0,0-5.37,2.31,20.63,20.63,0,0,0-3.84,4.22q-7.29,11.13-14.39,22.45t-14.78,22.46a63.59,63.59,0,0,1-6.91,8.63q-3.84,4-8.06,8.25-6.15,6.13-13.43,6.34a42,42,0,0,1-15-2.5q-5.38-1.92-7.3-8.83t1.16-11.89a4,4,0,0,1,2.49-1,14.77,14.77,0,0,0,3.65-1q1.16,5.76,1.72,10.94t6.34,9.4a41.91,41.91,0,0,1,4-2.88,24.62,24.62,0,0,0,4-3.26q5.37-6.54,10.55-12.67a142.27,142.27,0,0,0,9.79-13.05q5.37-7.66,10.17-16.12t10.17-16.5a3.48,3.48,0,0,0,.39-1.54,6.2,6.2,0,0,1,.38-1.92q-3.84-.76-7.48-1.15a60.24,60.24,0,0,1-7.11-1.15,47.51,47.51,0,0,1-24.94-12.67q-5.76-5-4.61-13,5.76.39,6.91,6.53,1.15,5.39,6.91,6.52a68.63,68.63,0,0,0,19,1.92,121.44,121.44,0,0,0,19-2.3,5.43,5.43,0,0,0,3.26-2.11,35,35,0,0,0,2.49-3.65q11.13-18.42,22.07-36.27t22.07-36.27q14.58-25.34,31.09-49.51t34.93-47.21q1.92-2.31,3.65-4.42t3.64-4A29.31,29.31,0,0,1,1008.47,53.2ZM895.24,239l1.16,1.15L901,239q8.84-3.47,18-7.3t18.43-7.29a7.25,7.25,0,0,0,4.41-2.69,15.11,15.11,0,0,0,2.11-5q7.68-23.79,15-47.4t15-47.4a6.21,6.21,0,0,0,.77-2.69,696.35,696.35,0,0,0-41.07,59.11Q914.82,208.65,895.24,239Z"/><path class="cls-1" d="M1043,300.38a29.67,29.67,0,0,0,10.18-5.76,74,74,0,0,0,8.25-8.44q7.66-9.21,14.77-18.43t14-18.8A119.12,119.12,0,0,0,1097.9,238q3.45-5.56,7.29-11.71l3.84.77a36.27,36.27,0,0,1,4.22,1.15,9.64,9.64,0,0,0-1,2.88,5.94,5.94,0,0,1-1,2.49q-5.37,8.83-10.17,18t-10.17,18a120.59,120.59,0,0,1-21.88,28.79,43.28,43.28,0,0,1-11.13,7.68,25.46,25.46,0,0,1-13.43,1.91,14.15,14.15,0,0,0-4-.19c-1.41.13-2.75.19-4,.19q-10.37-.37-16.31-4.41t-9.41-14a122,122,0,0,1-4.6-23,139,139,0,0,1,.19-36.46q2.5-18,6.72-35.7,3.45-12.27,7.86-24.37t9.79-23.6a185.6,185.6,0,0,1,41.84-55.27,51.14,51.14,0,0,1,9.79-7.11,98.18,98.18,0,0,1,10.93-5.18,8.59,8.59,0,0,1,8.83,1.15,44,44,0,0,1,16.12,20q5,12.3,1.92,26.87a78.07,78.07,0,0,1-13.43,32.24q-4.61,6.92-9.79,13.44t-10.55,13.05a61.75,61.75,0,0,1-26.87,18.8q-4.61,1.54-8.83,3.26t-8.44,3.65a8.14,8.14,0,0,0-5,5.76q-2.31,16.13-3.65,31.66a138.3,138.3,0,0,0,1,31.67,59.07,59.07,0,0,0,2.5,10.55A24,24,0,0,0,1043,300.38Zm59.11-208.8a151.48,151.48,0,0,0-36.84,44.52A293,293,0,0,0,1043,190.22a32.52,32.52,0,0,1,3.46-.77,162.25,162.25,0,0,0,54.88-73.69A35.62,35.62,0,0,0,1102.12,91.58Z"/><path class="cls-1" d="M1099.43,375.22q-4.61,0-5.94-1.34c-.9-.9-2.75-1.34-5.57-1.34a29,29,0,0,1-1.15-3.46c-.25-1-.51-2.05-.77-3.07a178.64,178.64,0,0,1-2.5-31.47q.21-15.36,1.73-31.09a646.08,646.08,0,0,1,12.28-77.53,573.74,573.74,0,0,1,22.27-75.23,16.22,16.22,0,0,0,.57-2.31,16.55,16.55,0,0,1,1-3.07,27.56,27.56,0,0,1-3.45-.19,26.49,26.49,0,0,0-3.07-.19q-6.91-.77-13.82-1.34t-14.2-1.73a29.43,29.43,0,0,1-14.4-6.72,49,49,0,0,1-10.17-12.47,7.17,7.17,0,0,1-.57-1.73,7,7,0,0,0-.58-1.73c-.25-.51-.12-1.4.39-2.68a2.09,2.09,0,0,0,1.34.76c.38,0,.71.26,1,.77a13.38,13.38,0,0,0,6.72,6.14,44.2,44.2,0,0,0,8.63,2.31,137.58,137.58,0,0,0,24,.19,98.75,98.75,0,0,0,23.22-4.8,8.87,8.87,0,0,0,4.61-2.49A27,27,0,0,0,1134,115q5.37-10.36,10.94-20.72t11.7-20.35a48,48,0,0,1,5.57-8.06,33,33,0,0,1,7.48-6.52,2.87,2.87,0,0,0,1.15.38,3,3,0,0,1,1.16.39q5.74,3.84,7.29,6.14a5.62,5.62,0,0,1,1,4.6,17.76,17.76,0,0,1-2.69,5.38,39.11,39.11,0,0,0-4,8.06c-1.53,3.83-3.14,7.74-4.8,11.7s-3.52,8.26-5.56,12.86a30.32,30.32,0,0,1,4.22-1,13.53,13.53,0,0,0,3.45-1q12.29-5,27.06-11.13t27.06-10.75a64.37,64.37,0,0,1,7.49-2.49c2.43-.64,4.92-1.21,7.48-1.73q5.37-1.15,7.3,4.22c.51,1.29,1.27,3,2.3,5q2.68,5.76,2.11,8.06c-.38,1.54-2.37,3.33-5.95,5.38l-6.91,3.84a36.89,36.89,0,0,1-7.29,3.07q-16.89,6.52-33.4,12.47t-33.77,11.71q-6.91,2.69-8.83,9.21-11.9,36.47-23.22,74.65A730.17,730.17,0,0,0,1114,294.24q-3.45,18.42-6.53,36.27t-6.14,36.27c-.25,1.28-.51,2.55-.77,3.84S1100,373.43,1099.43,375.22Z"/><path class="cls-1" d="M1254.11,209.8a14.77,14.77,0,0,1,2.5,1.53,25.1,25.1,0,0,0,2.11,1.54,3.09,3.09,0,0,1-.39,1.92q-19.57,25.32-36.46,46.82a459.81,459.81,0,0,1-36.46,41.07,14.44,14.44,0,0,1-7.1,4.22,17.61,17.61,0,0,1-7.3,0,29.44,29.44,0,0,1-7.1-2.49c-2.3-1.15-4.6-2.36-6.91-3.65q-10.35-3.83-12.66-15.74-3.08-26.08,5.76-48a155.8,155.8,0,0,1,23.41-39.92q7.66-5.76,12.47-2.3a41.22,41.22,0,0,1,9,9.21,173.78,173.78,0,0,0-12.85,22.07,91.55,91.55,0,0,0-6.53,18.61,119.15,119.15,0,0,0-2.69,20.35q-.57,11.13-1,27.25a197.29,197.29,0,0,0,22.84-19q10.93-10.56,21.3-21.5T1235.88,230Q1245.29,219,1254.11,209.8Zm-30.32-59.88q-4.61,5.76-8.45,9.79t-7.48,7.67c-2.44,2.44-4.93,5-7.48,7.68s-5.38,5.82-8.45,9.4q-3.84-1.53-4.6-4a13.28,13.28,0,0,0-3.46-5.18q-2.68-3.45-1.53-8.63a38.33,38.33,0,0,1,4-10.37,56.06,56.06,0,0,1,6.71-9.59,33.35,33.35,0,0,1,6.91-6.34,16.62,16.62,0,0,1,7.68-1.72,13.51,13.51,0,0,1,6.33,1.92,23.31,23.31,0,0,1,5.18,4.22C1220.72,146.41,1222.25,148.13,1223.79,149.92Z"/><path class="cls-1" d="M1259.87,209a130.11,130.11,0,0,1-13.24-18q-5.57-9.21-10.56-19.19-4.21-9.6-2.3-16.7t11.13-12.47a35,35,0,0,1,18.43-5.38q8.43,0,11.51,5.76a58,58,0,0,1,7.68,16.12q1.53,4.6-1.35,7.68t-8.25,3.07a26,26,0,0,0,1.92-4.61q1.92-7.29-4.6-5.37a33.8,33.8,0,0,0-18.81,12.28c-.52.77-1.09,1.6-1.73,2.5s-1.34,2-2.11,3.26q5.37,6.52,10.56,13.24t10.93,14a151.44,151.44,0,0,1,30.52-8.44q15.92-2.69,32.05-5a26,26,0,0,0,1.53,3.26,28.15,28.15,0,0,1,1.54,3.26,5.87,5.87,0,0,1-1.54,1.15l-1.53.77q-8.07,2.31-16.32,4.61t-16.69,5q-5.39,1.92-10.94,4.22t-11.32,4.6c1,2.82,1.92,5.13,2.68,6.91q1.92,5,4.23,9.6a42.16,42.16,0,0,1,3.45,10q6.13,24.18-11.9,42.22a65.79,65.79,0,0,1-16.12,11.9,95.45,95.45,0,0,1-18.42,7.29q-13.44,3.45-23.42-5.76l-6.9-6.91a87,87,0,0,1-6.53-7.29q-9.21-9.58-4.22-21.11A52,52,0,0,1,1205,254.7a129.41,129.41,0,0,1,39.91-37.23c2.31-1.28,4.67-2.62,7.1-4S1257.05,210.56,1259.87,209Zm8.83,15a6,6,0,0,1-2.3.77,2.2,2.2,0,0,0-1.54.76,131.06,131.06,0,0,0-37.61,31.86,51.06,51.06,0,0,0-5.38,8.25q-2.3,4.42-4.6,8.64a16.22,16.22,0,0,0-1.54,5,8.57,8.57,0,0,0,1.54,5.75c2-.5,4-1,5.76-1.34a40.62,40.62,0,0,0,5.75-1.73,78.69,78.69,0,0,0,33-24.94Q1272.16,243.18,1268.7,224Z"/><path class="cls-1" d="M1357.37,209a129.3,129.3,0,0,1-13.24-18q-5.58-9.21-10.56-19.19-4.23-9.6-2.3-16.7t11.13-12.47a34.92,34.92,0,0,1,18.42-5.38q8.45,0,11.52,5.76a57.65,57.65,0,0,1,7.67,16.12q1.53,4.6-1.34,7.68t-8.25,3.07a26,26,0,0,0,1.92-4.61q1.9-7.29-4.61-5.37a33.87,33.87,0,0,0-18.81,12.28c-.51.77-1.09,1.6-1.72,2.5s-1.35,2-2.11,3.26q5.37,6.52,10.55,13.24t10.94,14a151.16,151.16,0,0,1,30.51-8.44q15.93-2.69,32.05-5a24.58,24.58,0,0,0,1.54,3.26,26.67,26.67,0,0,1,1.53,3.26,5.68,5.68,0,0,1-1.53,1.15l-1.54.77q-8.06,2.31-16.31,4.61t-16.7,5q-5.37,1.92-10.93,4.22t-11.33,4.6c1,2.82,1.92,5.13,2.69,6.91q1.92,5,4.22,9.6a41.73,41.73,0,0,1,3.46,10q6.12,24.18-11.9,42.22a66,66,0,0,1-16.12,11.9,95.29,95.29,0,0,1-18.43,7.29q-13.44,3.45-23.41-5.76l-6.91-6.91a88.72,88.72,0,0,1-6.52-7.29q-9.21-9.58-4.23-21.11a53,53,0,0,1,5.76-10.75,129.56,129.56,0,0,1,39.92-37.23q3.45-1.92,7.1-4C1351.93,212,1354.55,210.56,1357.37,209Zm8.83,15a6,6,0,0,1-2.31.77,2.2,2.2,0,0,0-1.53.76,131.11,131.11,0,0,0-37.62,31.86,50.34,50.34,0,0,0-5.37,8.25q-2.31,4.42-4.61,8.64a16.48,16.48,0,0,0-1.53,5,8.61,8.61,0,0,0,1.53,5.75c2-.5,4-1,5.76-1.34a40.34,40.34,0,0,0,5.76-1.73,78.75,78.75,0,0,0,33-24.94Q1369.66,243.18,1366.2,224Z"/><path class="cls-1" d="M1505.53,209.8a14.25,14.25,0,0,1,2.49,1.53c.64.52,1.34,1,2.11,1.54a3.1,3.1,0,0,1-.38,1.92q-19.57,25.32-36.47,46.82a459.81,459.81,0,0,1-36.46,41.07,14.4,14.4,0,0,1-7.1,4.22,17.56,17.56,0,0,1-7.29,0,29.14,29.14,0,0,1-7.1-2.49c-2.31-1.15-4.61-2.36-6.91-3.65q-10.37-3.83-12.67-15.74-3.06-26.08,5.76-48a156.09,156.09,0,0,1,23.41-39.92q7.68-5.76,12.48-2.3a41.44,41.44,0,0,1,9,9.21,175.22,175.22,0,0,0-12.86,22.07,92.16,92.16,0,0,0-6.53,18.61,119.19,119.19,0,0,0-2.68,20.35q-.58,11.13-1,27.25a198.14,198.14,0,0,0,22.84-19q10.93-10.56,21.3-21.5T1487.29,230Q1496.7,219,1505.53,209.8Zm-30.33-59.88q-4.6,5.76-8.44,9.79t-7.48,7.67c-2.44,2.44-4.93,5-7.49,7.68s-5.37,5.82-8.44,9.4q-3.84-1.53-4.61-4a13.24,13.24,0,0,0-3.45-5.18q-2.7-3.45-1.54-8.63a38.66,38.66,0,0,1,4-10.37,56.11,56.11,0,0,1,6.72-9.59,33.1,33.1,0,0,1,6.91-6.34,16.56,16.56,0,0,1,7.67-1.72,13.52,13.52,0,0,1,6.34,1.92,23.77,23.77,0,0,1,5.18,4.22C1472.13,146.41,1473.67,148.13,1475.2,149.92Z"/><path class="cls-1" d="M1545.06,181q8.82-7.68,20.72-4.61a32,32,0,0,1,11.13,5.18,53.89,53.89,0,0,1,9.22,8.64q6.9,8.84,3.83,20.73-2.3,8.84-5,17.08t-6.15,16.31a195.07,195.07,0,0,1-13.24,24.37,128.29,128.29,0,0,1-17.46,21.69,99.48,99.48,0,0,1-7.87,7.1c-2.69,2.18-5.44,4.41-8.25,6.72a22.27,22.27,0,0,1-7.29,3.83,14.38,14.38,0,0,1-8.07,0q-6.14-1.53-12.28-3.26a65,65,0,0,1-11.51-4.41,30.22,30.22,0,0,1-16.12-27.25,146.25,146.25,0,0,1,5.56-45.87q6.33-21.67,24.37-39.34a53.93,53.93,0,0,1,13.44-10.75,19.75,19.75,0,0,1,10.75-3.45q5.37,0,10.74,5A13.66,13.66,0,0,0,1545.06,181Zm-36.47,117.06c2.05-1.27,4.09-2.42,6.15-3.45a27.83,27.83,0,0,0,5.37-3.45c3.07-2.82,6.07-5.69,9-8.64a97.33,97.33,0,0,0,8.25-9.4q7.68-10.74,15-21.69t14.2-22.07q2.31-4.22,4.22-8.44a50.92,50.92,0,0,0,3.07-8.83,46.56,46.56,0,0,0,2.5-11.13,19.93,19.93,0,0,0-2.5-11.52,10.76,10.76,0,0,0-7.1.77,46.68,46.68,0,0,0-6,3.84A93,93,0,0,0,1535.85,224c-.77,1.53-1.61,3.07-2.5,4.6s-1.86,3.33-2.88,5.38q-2.68-1.92-5-3.46l-4.6-3.07q2.3-5.76,4.22-11.32t4.22-11.32a15.47,15.47,0,0,0-2.69,1.53,160.06,160.06,0,0,0-17.84,33.59,104.35,104.35,0,0,0-6.72,37.8,79.94,79.94,0,0,0,1.34,10.17A24.74,24.74,0,0,0,1508.59,298.07Z"/></svg>