<svg id="Layer_1" data-name="Layer 1" xmlns="http://www.w3.org/2000/svg" viewBox="0 0 2400 410"><defs><style>.cls-1{fill:#fff;}</style></defs><path class="cls-1" d="M971.83,53.2c4.61,2.56,7.35,4.54,8.25,5.95s.83,4.54-.19,9.4a365.63,365.63,0,0,1-9.21,40.3q-7.68,26.49-15.74,53t-13.82,49.51q12.68-5,26.68-10.17t26.29-9.79c5.63-2,9.41-2.69,11.32-1.92s4.29,4.23,7.11,10.37c-1,1-2,1.92-2.88,2.68s-2,1.67-3.27,2.69A105,105,0,0,1,992,213.83q-8.64,4.41-18,8.63t-18.42,7.87q-9,3.64-15.16,6.33a13,13,0,0,0-8.45,10q-4.23,21.51-8.06,39.73T915,326.09a171.21,171.21,0,0,1-4.61,18q-2.68,8.83-11.9,9.22c-5.37,0-8.83-.65-10.36-1.92s-2.44-4.74-2.69-10.37a214,214,0,0,1,1.73-37.61q2.49-18.42,6.71-36.85c.77-2.81,1.47-5.62,2.12-8.44s1.34-5.89,2.11-9.21a14.59,14.59,0,0,1-3.46,1,27.57,27.57,0,0,0-3.07.57l-20.72,5.37q-10.36,2.7-20.73,5a13.19,13.19,0,0,0-5.37,2.31,20.35,20.35,0,0,0-3.84,4.22q-7.31,11.13-14.4,22.45t-14.77,22.46a65,65,0,0,1-6.91,8.63q-3.84,4-8.06,8.25-6.15,6.13-13.44,6.34a42,42,0,0,1-15-2.5q-5.37-1.92-7.29-8.83t1.15-11.89a4,4,0,0,1,2.5-1,14.58,14.58,0,0,0,3.64-1q1.15,5.76,1.73,10.94t6.34,9.4a41.91,41.91,0,0,1,4-2.88,24.62,24.62,0,0,0,4-3.26q5.37-6.54,10.55-12.67a144.12,144.12,0,0,0,9.79-13.05q5.37-7.66,10.17-16.12t10.17-16.5a3.47,3.47,0,0,0,.38-1.54,6.25,6.25,0,0,1,.39-1.92q-3.84-.76-7.49-1.15a60.4,60.4,0,0,1-7.1-1.15,47.51,47.51,0,0,1-24.94-12.67q-5.76-5-4.61-13,5.76.39,6.91,6.53,1.15,5.37,6.91,6.52a68.63,68.63,0,0,0,19,1.92,121.31,121.31,0,0,0,19-2.3,5.42,5.42,0,0,0,3.27-2.11,36.58,36.58,0,0,0,2.49-3.65q11.13-18.42,22.07-36.27t22.07-36.27q14.58-25.34,31.09-49.51t34.93-47.21c1.28-1.54,2.49-3,3.65-4.42s2.36-2.74,3.64-4A29.31,29.31,0,0,1,971.83,53.2ZM858.6,239l1.15,1.15,4.61-1.15q8.82-3.47,18-7.3t18.42-7.29a7.25,7.25,0,0,0,4.42-2.69,15.11,15.11,0,0,0,2.11-5q7.67-23.79,15-47.4t15-47.4a6.18,6.18,0,0,0,.76-2.69A696.92,696.92,0,0,0,897,178.32Q878.18,208.65,858.6,239Z"/><path class="cls-1" d="M1003.69,229.37a18.53,18.53,0,0,0,7.1-2.69,33.67,33.67,0,0,0,5.18-4.22q6.13-6.53,11.7-12.86T1039,196.75q6.9-7.29,14.58-.39a7.07,7.07,0,0,1,2.69,4.22,11.4,11.4,0,0,1-.38,5q-3.09,9.21-5.76,18.43t-5.76,18a143.48,143.48,0,0,0-6.14,24.56q-1.92,12.28-3.07,24.57a6.17,6.17,0,0,0,.19,1.53c.13.52.32,1.28.58,2.3a40.88,40.88,0,0,0,9-5.94,97.21,97.21,0,0,0,7.1-7.11q11.13-11.51,22.64-23l22.65-22.65,3.45-3.46c1,.52,2,1,2.88,1.54s1.73,1,2.5,1.54c-.26.51-.33.9-.2,1.15a.62.62,0,0,1-.19.76q-10,13.44-19.57,27.06a194,194,0,0,1-21.5,25.53q-4.23,4.23-8.63,8.06t-9,7.29q-7.3,6.13-15.36,1.54c-1-.51-2-1-2.87-1.35s-1.86-.82-2.88-1.34q-8.44-1.92-11.33-7.68a38.24,38.24,0,0,1-3.64-13.43,69.39,69.39,0,0,1,1.15-19.38q1.92-9.41,4.22-18.62a24.38,24.38,0,0,0,1.15-3.64,40.06,40.06,0,0,1,1.15-4c-1,.26-2.3.65-3.83,1.16a14.13,14.13,0,0,1-14.21-.77,50.85,50.85,0,0,0-6.52-2.69q-10.37-5-12.67-16.89a69.42,69.42,0,0,1-1.15-21.68,72.66,72.66,0,0,1,5.38-20.54A178.67,178.67,0,0,1,997.74,154a65.4,65.4,0,0,1,17.46-18.23c1-.77,2-1.54,2.88-2.3a13.64,13.64,0,0,1,2.88-1.92q7.29-3.84,12.09-2.5t9,8.25a4.45,4.45,0,0,1,.77,4.22l-1.54,3.84q-6.52,11.15-14.2,23.8a154.48,154.48,0,0,0-12.86,25.52,281.36,281.36,0,0,0-9,27.06A48.3,48.3,0,0,0,1003.69,229.37Z"/><path class="cls-1" d="M1143.77,181q8.84-7.68,20.73-4.61a32.07,32.07,0,0,1,11.13,5.18,53.83,53.83,0,0,1,9.21,8.64q6.92,8.84,3.84,20.73-2.29,8.84-5,17.08t-6.14,16.31a195.07,195.07,0,0,1-13.24,24.37,127.86,127.86,0,0,1-17.47,21.69,101.17,101.17,0,0,1-7.86,7.1c-2.69,2.18-5.44,4.41-8.26,6.72a22.07,22.07,0,0,1-7.29,3.83,14.34,14.34,0,0,1-8.06,0q-6.13-1.53-12.28-3.26a64.86,64.86,0,0,1-11.52-4.41,30.27,30.27,0,0,1-16.12-27.25,146.25,146.25,0,0,1,5.57-45.87q6.33-21.67,24.37-39.34a53.57,53.57,0,0,1,13.44-10.75,19.74,19.74,0,0,1,10.74-3.45q5.37,0,10.75,5A13.76,13.76,0,0,0,1143.77,181Zm-36.46,117.06c2-1.27,4.09-2.42,6.14-3.45a27.61,27.61,0,0,0,5.38-3.45q4.61-4.23,9-8.64a98.71,98.71,0,0,0,8.25-9.4q7.67-10.74,15-21.69t14.2-22.07q2.3-4.22,4.22-8.44a51.77,51.77,0,0,0,3.07-8.83,47,47,0,0,0,2.5-11.13,19.93,19.93,0,0,0-2.5-11.52,10.75,10.75,0,0,0-7.1.77,46.68,46.68,0,0,0-6,3.84,92.86,92.86,0,0,0-25,29.94c-.77,1.53-1.6,3.07-2.49,4.6s-1.86,3.33-2.88,5.38q-2.68-1.92-5-3.46l-4.61-3.07c1.54-3.84,2.94-7.61,4.23-11.32s2.68-7.49,4.22-11.32a14.64,14.64,0,0,0-2.69,1.53,160.33,160.33,0,0,0-17.85,33.59,104.35,104.35,0,0,0-6.71,37.8,79.94,79.94,0,0,0,1.34,10.17A24.62,24.62,0,0,0,1107.31,298.07Z"/><path class="cls-1" d="M1303.83,301.14c2,.52,3.58.52,4.6,0s2.56-.5,4.61,0a9.36,9.36,0,0,0-1,2.69,3.45,3.45,0,0,1-1,1.92q-4.61,8.44-9,16.51a68.45,68.45,0,0,1-9.79,13.81,31.64,31.64,0,0,1-12.09,8.26q-6.72,2.49-16.31.19-11.91-9.21-14.2-24.95a97.48,97.48,0,0,1,1.15-33.2,160.79,160.79,0,0,1,11.32-34.93,239.81,239.81,0,0,1,15.93-30.13,6.86,6.86,0,0,0,.77-4.61l-5.76,5.76a154.23,154.23,0,0,0-19,23q-8.26,12.28-17.08,24.57-5.38,8.06-11.13,15.92t-11.51,15.93a6.16,6.16,0,0,0-1.16,1.54,5.89,5.89,0,0,1-1.15,1.53A19.61,19.61,0,0,1,1201,311.7a17.81,17.81,0,0,1-12.66-2.11,6.14,6.14,0,0,1-2.69-3.45c-.51-2.05-1-4.09-1.54-6.15a16.76,16.76,0,0,1-.38-6.14,235.39,235.39,0,0,1,9.4-51.24,174.56,174.56,0,0,1,22.46-47,71.55,71.55,0,0,1,5.75-7.86c2-2.43,4.09-4.93,6.15-7.49,2.81-3.07,4.85-4.73,6.14-5s3.19.26,5.75,1.54a7.67,7.67,0,0,1,3.27,4.6,15.64,15.64,0,0,1,0,6,36.42,36.42,0,0,1-1.92,6.72,53.76,53.76,0,0,0-2.11,6.52q-5,14.6-9.79,29t-9.41,29c-.51,1.28-1,2.56-1.34,3.84a13.43,13.43,0,0,0-.57,3.84,299.41,299.41,0,0,1,17.65-25.14,278.78,278.78,0,0,1,21.5-24.57,302.16,302.16,0,0,1,24.18-22.07,220.35,220.35,0,0,1,25.33-18,11.94,11.94,0,0,1,4.22,5.57,13.19,13.19,0,0,0,4.61,5.95,6.16,6.16,0,0,1,2.49,5.18,34.21,34.21,0,0,1-1,6q-4.23,11.5-7.1,18t-5.37,11.7q-2.51,5.19-5.76,11.14T1290,255.47a108.51,108.51,0,0,0-6.91,17.27,219.49,219.49,0,0,0-5.76,21.69,108.52,108.52,0,0,0-2.49,20q-.19,9,2.49,11.9c1.79,1.91,4.8,1.15,9-2.31S1296.4,312.91,1303.83,301.14Z"/><path class="cls-1" d="M1405.53,305q13.44-26.09,25.72-45.48a259.78,259.78,0,0,1,26.1-34.74c1,.52,2.11,1.1,3.26,1.73s2.5,1.35,4,2.11q-10.37,17.28-20.34,34.16t-18.42,34.55q-3.09,5.37-6.53,12.66a142.76,142.76,0,0,1-7.48,13.82,56.82,56.82,0,0,1-8.83,11.13q-4.8,4.6-9.79,4.61l-8.06-1.73a9,9,0,0,1-4-1.73,7.69,7.69,0,0,1-2.11-3.84c-.52-1.79-1.28-4.6-2.3-8.44a91.39,91.39,0,0,1-1.92-29.75,252.47,252.47,0,0,0,1.53-27.44q-7.68,9.6-14,18.81A75.2,75.2,0,0,1,1346,302.3a15.57,15.57,0,0,1-6.52,3.26,14.68,14.68,0,0,1-5.76,0,18.67,18.67,0,0,1-5.38-2.11c-1.79-1-3.7-2.17-5.75-3.46a22.86,22.86,0,0,1-10.37-10.17,41.34,41.34,0,0,1-3.83-14,73.42,73.42,0,0,1,0-15,98.37,98.37,0,0,1,2.68-14.58q8.07-31.47,30.71-53a33.91,33.91,0,0,1,12.66-9.59,45.91,45.91,0,0,1,15.74-4,44.89,44.89,0,0,1,15.93,1.72,30.54,30.54,0,0,1,13.24,7.68,39.24,39.24,0,0,0,2.5-5.18,52,52,0,0,1,2.11-4.8q7.66-16.5,16.5-33.2a100.72,100.72,0,0,1,22.26-28.6q5.37-4.61,8.26-4.41t6.71,6.72q-13.44,20-19.76,38.19t-11.71,34.73a402.54,402.54,0,0,0-13.82,53q-5,26.49-8.44,53.74a20.85,20.85,0,0,0,.77,5C1405,304.73,1405.28,305,1405.53,305Zm-58.72-23.41,35.69-44.91a66.22,66.22,0,0,0,7.87-19.57q2.49-10.74,5.57-20.34a24.76,24.76,0,0,0-13,.38,32.49,32.49,0,0,0-10.75,6.14q-18.42,15-26.48,32.82a166.62,166.62,0,0,0-11.9,38.57,87.28,87.28,0,0,0-1,13.24c.12,2.69.7,4.17,1.73,4.42s2.55-.58,4.6-2.5A106.54,106.54,0,0,0,1346.81,281.57Z"/><path class="cls-1" d="M1542.17,209.8a14.25,14.25,0,0,1,2.49,1.53c.64.52,1.35,1,2.11,1.54a3.1,3.1,0,0,1-.38,1.92q-19.58,25.32-36.46,46.82a461.5,461.5,0,0,1-36.47,41.07,14.4,14.4,0,0,1-7.1,4.22,17.56,17.56,0,0,1-7.29,0,29.29,29.29,0,0,1-7.1-2.49c-2.3-1.15-4.61-2.36-6.91-3.65q-10.36-3.83-12.66-15.74-3.08-26.08,5.75-48a155.83,155.83,0,0,1,23.42-39.92q7.67-5.76,12.47-2.3a41.22,41.22,0,0,1,9,9.21,175.22,175.22,0,0,0-12.86,22.07,92.11,92.11,0,0,0-6.52,18.61,118.16,118.16,0,0,0-2.69,20.35q-.57,11.13-1,27.25a198.14,198.14,0,0,0,22.84-19q10.94-10.56,21.3-21.5T1523.94,230Q1533.33,219,1542.17,209.8Zm-30.32-59.88q-4.61,5.76-8.45,9.79t-7.48,7.67c-2.44,2.44-4.93,5-7.49,7.68s-5.37,5.82-8.44,9.4q-3.84-1.53-4.61-4a13.13,13.13,0,0,0-3.45-5.18q-2.68-3.45-1.54-8.63a38.66,38.66,0,0,1,4-10.37,56.11,56.11,0,0,1,6.72-9.59,33.35,33.35,0,0,1,6.91-6.34,16.57,16.57,0,0,1,7.68-1.72,13.51,13.51,0,0,1,6.33,1.92,23.54,23.54,0,0,1,5.18,4.22C1508.78,146.4,1510.31,148.13,1511.85,149.92Z"/><path class="cls-1" d="M1581.7,181q8.82-7.68,20.73-4.61a32.07,32.07,0,0,1,11.13,5.18,54.2,54.2,0,0,1,9.21,8.64q6.9,8.84,3.84,20.73-2.31,8.84-5,17.08t-6.14,16.31a195.14,195.14,0,0,1-13.25,24.37,128.29,128.29,0,0,1-17.46,21.69,99.48,99.48,0,0,1-7.87,7.1c-2.69,2.18-5.44,4.41-8.25,6.72a22.17,22.17,0,0,1-7.29,3.83,14.34,14.34,0,0,1-8.06,0q-6.15-1.53-12.29-3.26a65,65,0,0,1-11.51-4.41,30.22,30.22,0,0,1-16.12-27.25,146.25,146.25,0,0,1,5.56-45.87q6.35-21.67,24.38-39.34a53.68,53.68,0,0,1,13.43-10.75,19.75,19.75,0,0,1,10.75-3.45q5.37,0,10.74,5A13.66,13.66,0,0,0,1581.7,181Zm-36.46,117.06q3.06-1.9,6.14-3.45a27.53,27.53,0,0,0,5.37-3.45q4.61-4.23,9-8.64a97.33,97.33,0,0,0,8.25-9.4q7.68-10.74,15-21.69t14.2-22.07c1.54-2.81,2.94-5.62,4.23-8.44a52.65,52.65,0,0,0,3.07-8.83A47,47,0,0,0,1613,201a20,20,0,0,0-2.49-11.52,10.74,10.74,0,0,0-7.1.77,46,46,0,0,0-6,3.84,92.86,92.86,0,0,0-25,29.94c-.77,1.53-1.6,3.07-2.5,4.6s-1.86,3.33-2.88,5.38q-2.68-1.92-5-3.46l-4.6-3.07q2.3-5.76,4.22-11.32t4.22-11.32a14.78,14.78,0,0,0-2.68,1.53,159.4,159.4,0,0,0-17.85,33.59,104.35,104.35,0,0,0-6.72,37.8,79.94,79.94,0,0,0,1.34,10.17A24.65,24.65,0,0,0,1545.24,298.07Z"/></svg>