<svg id="Layer_1" data-name="Layer 1" xmlns="http://www.w3.org/2000/svg" viewBox="0 0 2400 410"><defs><style>.cls-1{fill:#fff;}</style></defs><path class="cls-1" d="M456.84,115q3.07-6.9,5.38-13.24a22.4,22.4,0,0,0,.38-13.62q-3.84-1.53-10.94,2.11a104.52,104.52,0,0,0-14.58,9.21q-7.49,5.56-14,11.32t-9.6,8.45q-14.6,13.44-27.63,27.82a123.37,123.37,0,0,0-20.73,30.9c1.53-.51,2.94-1,4.22-1.53l3.84-1.54q16.13-6.92,32.05-13.82a279.45,279.45,0,0,0,30.9-15.73,15.18,15.18,0,0,1,7.86-1.54q3.64.39,6.72,5.76a11.08,11.08,0,0,0,2.11,2.88,38.89,38.89,0,0,1,2.88,3.26A70.25,70.25,0,0,0,435.54,172q-8.27,9.8-16.31,19.77a352.6,352.6,0,0,0-43.18,63.91,333.46,333.46,0,0,0-27.83,73.11,81.49,81.49,0,0,0-2.49,14.59,49.54,49.54,0,0,0,1,11.13q3.06,1.53,10-1.73t15.74-14.39q18-20,31.47-34.35a287.25,287.25,0,0,0,24.57-30.13,59.88,59.88,0,0,1-8.64-15.74q-2.88-8.06-.19-18a88.38,88.38,0,0,1,17.08-29.55,96.25,96.25,0,0,1,25.53-20.35c3.83-2.55,7.1-3.58,9.78-3.07s5.7,2.56,9,6.14l3.84,4.61c1.28,1.54,2.56,2.94,3.84,4.22q7.68,7.31,2.3,16.12-6.53,11.14-13.81,21.3T464.9,255.86q10.74-2.69,17.85-5t12.86-4.61q5.76-2.3,11.32-4.6t13.24-5.76q3.08,3.45,7.3,8.44a107.73,107.73,0,0,1-30.33,15q-16.11,5-31.85,10.36-11.15,3.85-15.93,8.45a96.84,96.84,0,0,0-9.79,11.13q-18.42,23.81-36.85,43.95a289.55,289.55,0,0,1-39.91,36.27,14.3,14.3,0,0,1-7.3,2.3,19,19,0,0,1-6.9-1.34,47.27,47.27,0,0,1-6.72-3.26,34.94,34.94,0,0,0-6.72-3.08,21,21,0,0,1-10-8.06,37.43,37.43,0,0,1-5-12.66,42.06,42.06,0,0,1-1.15-14.78c.52-4.74,1.15-9.66,1.92-14.78A244.13,244.13,0,0,1,345.92,242q5-8.44,10-16.7t10-16.31a19.88,19.88,0,0,1,1.92-3.65,38.79,38.79,0,0,0,2.3-4c-4.1.52-7.1,1-9,1.35a8.51,8.51,0,0,1-4.8-.19,12.38,12.38,0,0,1-4.22-3.27q-2.31-2.49-7.29-7.1-7.68-6.9-8.64-14.39a35.69,35.69,0,0,1,2.11-16.31q2.68-5.76,5.37-11.71a66.6,66.6,0,0,1,6.53-11.32A201.76,201.76,0,0,1,381,103.67a164,164,0,0,1,37.8-25.14q3.84-1.53,10.37-4.41a72.08,72.08,0,0,1,13.43-4.42,46.14,46.14,0,0,1,12.86-1.15,11.1,11.1,0,0,1,9,5q7.67,10.75,5.76,21.69T456.84,115Zm-20,147q9.22-11.9,17.47-21.5a134.58,134.58,0,0,0,15.16-21.87,66.68,66.68,0,0,0-13.44,8.06,57.5,57.5,0,0,0-11.13,11.13A48.56,48.56,0,0,0,438,250.29,21.18,21.18,0,0,0,436.88,262Z"/><path class="cls-1" d="M553.18,214.79a128.72,128.72,0,0,1-13.24-18q-5.57-9.21-10.56-19.19-4.23-9.6-2.3-16.7t11.13-12.47A35,35,0,0,1,556.63,143q8.45,0,11.52,5.76a57.65,57.65,0,0,1,7.67,16.12q1.53,4.61-1.34,7.68t-8.25,3.07a26,26,0,0,0,1.92-4.61c1.28-4.85-.26-6.65-4.61-5.37a33.81,33.81,0,0,0-18.8,12.28c-.52.77-1.1,1.6-1.73,2.5s-1.35,2-2.11,3.26q5.37,6.53,10.55,13.24t10.94,14a151.16,151.16,0,0,1,30.51-8.44q15.93-2.69,32.05-5a24.58,24.58,0,0,0,1.54,3.26A28.15,28.15,0,0,1,628,204a5.87,5.87,0,0,1-1.54,1.15L625,206q-8.06,2.31-16.31,4.61t-16.69,5q-5.38,1.92-10.94,4.22t-11.33,4.6c1,2.82,1.92,5.13,2.69,6.91q1.92,5,4.22,9.6a41.73,41.73,0,0,1,3.46,10q6.13,24.18-11.9,42.22A66,66,0,0,1,552,305a95.45,95.45,0,0,1-18.42,7.29q-13.44,3.45-23.42-5.76l-6.91-6.91a88.72,88.72,0,0,1-6.52-7.29q-9.21-9.58-4.22-21.11a52.46,52.46,0,0,1,5.75-10.75,129.56,129.56,0,0,1,39.92-37.23q3.45-1.92,7.1-4C547.74,217.8,550.36,216.32,553.18,214.79Zm8.83,15a6,6,0,0,1-2.31.77,2.2,2.2,0,0,0-1.53.76,130.93,130.93,0,0,0-37.61,31.86,50.4,50.4,0,0,0-5.38,8.25q-2.29,4.43-4.6,8.64a16.22,16.22,0,0,0-1.54,5,8.57,8.57,0,0,0,1.54,5.75c2-.5,4-1,5.75-1.34a40.34,40.34,0,0,0,5.76-1.73,78.75,78.75,0,0,0,33-24.94Q565.46,248.94,562,229.76Z"/><path class="cls-1" d="M637.24,241.66a48.89,48.89,0,0,0,2.88-4,23.33,23.33,0,0,1,3.26-4A199.62,199.62,0,0,1,664.88,209,113.23,113.23,0,0,1,691,190.22a27.4,27.4,0,0,0,3.26-1.53,27.38,27.38,0,0,1,3.26-1.54q10.37-4.22,20,3.84,9.21,8.06,11.13,17.27t-1.92,20.35a323.42,323.42,0,0,1-14.39,36.46,214.28,214.28,0,0,1-19.77,33.78,4.71,4.71,0,0,1-.57.95,4.07,4.07,0,0,0-.58,1,54.16,54.16,0,0,1-6.14,7.1,15.33,15.33,0,0,1-5.57,3.46,11.27,11.27,0,0,1-6.52,0,67.51,67.51,0,0,1-9-3.26l-8.06-3.46q-6.91-2.3-6.14-9.59a106.27,106.27,0,0,1,2.87-17.08q2.12-8.25,4.8-17.08c1.54.76,2.94,1.41,4.23,1.92l3.83,1.53c-.25,3.59-.45,7-.57,10.36s-.33,6.66-.58,10a.8.8,0,0,1,.58.2.76.76,0,0,0,.57.19l3.46-4.61q4.21-8.06,8.44-15.93T686,248.56q4.21-7.67,8.25-15.16t7.87-15.16a72.2,72.2,0,0,0,4.6-9.4q1.92-4.8,4.22-10.17-3.07-1.15-5-.39l-3.84,1.54a82.54,82.54,0,0,0-16.32,9.4,163.86,163.86,0,0,0-14.39,12.09,198.42,198.42,0,0,0-21.88,25.91,280.39,280.39,0,0,0-17.65,28.6,89.08,89.08,0,0,0-10.17,26.29q-2.88,13.62-5.57,27.44-1.92,8.44-3.45,16.89t-3.46,16.89q-1.92,7.67-4.41,15t-5.18,15c-.77,3.07-2.94,4.85-6.53,5.37a38.12,38.12,0,0,0-3.84.19c-1.27.13-2.55.32-3.84.58a21,21,0,0,1-2.87-7.68c-.39-2.56-.83-5.12-1.35-7.68a95,95,0,0,1-.76-24q1.14-11.71,3.07-23.61a543.57,543.57,0,0,1,15.35-64.1q9.6-31.47,20.72-62.56a107.1,107.1,0,0,1,6.34-12.86q3.65-6.33,7.1-12.86a25.89,25.89,0,0,1,5-6.52q3.45-3.84,6.91-1.92a24.25,24.25,0,0,1,4.22,2.69q1.92,1.53,1.15,5-.76,4.6-1.73,9.21t-2.11,9.21l-9.21,34.54-1.15,4.61c.25.26.44.38.57.38S637,241.4,637.24,241.66Z"/><path class="cls-1" d="M771.58,235.13a18.53,18.53,0,0,0,7.1-2.69,33.19,33.19,0,0,0,5.18-4.22q6.14-6.53,11.71-12.86t11.32-12.85q6.9-7.29,14.58-.39a7.1,7.1,0,0,1,2.69,4.22,11.4,11.4,0,0,1-.38,5q-3.07,9.21-5.76,18.43t-5.76,18a143.48,143.48,0,0,0-6.14,24.56q-1.92,12.28-3.07,24.57a6.17,6.17,0,0,0,.19,1.53c.13.52.32,1.28.58,2.3a40.88,40.88,0,0,0,9-5.94,91.61,91.61,0,0,0,7.1-7.11q11.13-11.5,22.64-23T865.23,242l3.45-3.45q1.53.76,2.88,1.53c.9.52,1.73,1,2.5,1.54-.26.51-.33.9-.2,1.15a.61.61,0,0,1-.19.76q-10,13.44-19.57,27.06a194,194,0,0,1-21.5,25.53q-4.22,4.23-8.63,8.06t-9,7.29q-7.31,6.14-15.35,1.54-1.54-.76-2.88-1.35c-.9-.38-1.86-.82-2.88-1.34q-8.45-1.92-11.32-7.68a38.24,38.24,0,0,1-3.65-13.43A69.39,69.39,0,0,1,780,269.87q1.92-9.4,4.22-18.62a23.27,23.27,0,0,0,1.15-3.64,40.39,40.39,0,0,1,1.16-4c-1,.26-2.31.65-3.84,1.16a14.11,14.11,0,0,1-14.2-.77,51.59,51.59,0,0,0-6.53-2.69q-10.37-5-12.66-16.89a69.41,69.41,0,0,1-1.16-21.68,72.66,72.66,0,0,1,5.38-20.54,179.37,179.37,0,0,1,12.09-22.45,65.53,65.53,0,0,1,17.46-18.23c1-.77,2-1.54,2.88-2.3a13.64,13.64,0,0,1,2.88-1.92q7.29-3.84,12.09-2.5t9,8.25a4.47,4.47,0,0,1,.77,4.23c-.52,1.28-1,2.56-1.54,3.83q-6.53,11.15-14.2,23.8a154.48,154.48,0,0,0-12.86,25.52,281.36,281.36,0,0,0-9,27.06A49.48,49.48,0,0,0,771.58,235.13Z"/><path class="cls-1" d="M876.35,254.71a148.45,148.45,0,0,0-1,19.57,52,52,0,0,0,3.64,18q1.92,5.39,3.46,6.33t6.9.2a28.2,28.2,0,0,0,16.13-6.15q8.82-8.06,17.84-15.92t17.85-15.93q10-8.84,19.38-18.23t19-18.62a7.64,7.64,0,0,1,4.8-2.49,15.56,15.56,0,0,1,6,1c-.77,1.29-1.48,2.44-2.11,3.46S986.9,228,986.13,229q-13.44,15.36-26.29,30.51t-26.3,30.13a112.16,112.16,0,0,1-8.82,8.64c-3.07,2.69-6.28,5.31-9.6,7.87a31,31,0,0,1-14.39,6.52q-7.49,1.15-15.55-3.84-5.37-3.45-10.94-6.9t-10.94-6.53a31.21,31.21,0,0,1-11.13-11.71A41,41,0,0,1,848,268.52q-5.76-53.34,36.46-84a35.58,35.58,0,0,1,4.23-2.88,36.28,36.28,0,0,0,4.22-2.88,23.66,23.66,0,0,1,10.75-5.37,39,39,0,0,1,12.28-.39,9.9,9.9,0,0,1,4,1,8.32,8.32,0,0,1,3.26,2.5l9.21,11.51a105.4,105.4,0,0,1,8.45,12.28,27.46,27.46,0,0,1,3.64,14.2A40,40,0,0,1,941.22,229a50.1,50.1,0,0,1-12.09,18.23,73.52,73.52,0,0,1-17.85,12.48,30.5,30.5,0,0,1-15.35,3.45,27.26,27.26,0,0,1-15-5.76,5.19,5.19,0,0,0-1.73-1.15A22.84,22.84,0,0,1,876.35,254.71Zm1.92-6.53q19.2,1.55,31.86-10.36a61.87,61.87,0,0,0,11.32-14.2,97.27,97.27,0,0,0,7.49-16.51,28.76,28.76,0,0,0,1.15-5q.38-2.67.77-5.76a3.31,3.31,0,0,0-1.15-3.45,4.85,4.85,0,0,0-3.84-.77,21.14,21.14,0,0,0-4.61.77,28.17,28.17,0,0,0-13,6.14,126,126,0,0,0-10.36,10,57.83,57.83,0,0,0-12.09,17.66A145.37,145.37,0,0,0,878.27,248.18Z"/><path class="cls-1" d="M993.81,214.79a128.81,128.81,0,0,1-13.25-18Q975,187.54,970,177.56q-4.23-9.6-2.31-16.7t11.14-12.47A34.92,34.92,0,0,1,997.26,143q8.43,0,11.51,5.76a57.7,57.7,0,0,1,7.68,16.12q1.53,4.61-1.34,7.68t-8.25,3.07a25.78,25.78,0,0,0,1.91-4.61c1.28-4.85-.25-6.65-4.6-5.37a33.83,33.83,0,0,0-18.81,12.28c-.51.77-1.09,1.6-1.73,2.5s-1.34,2-2.11,3.26q5.37,6.53,10.56,13.24T1003,211a151.16,151.16,0,0,1,30.51-8.44q15.93-2.69,32-5a26,26,0,0,0,1.53,3.26,28.15,28.15,0,0,1,1.54,3.26,5.87,5.87,0,0,1-1.54,1.15l-1.53.77q-8.05,2.31-16.31,4.61t-16.7,5q-5.37,1.92-10.94,4.22t-11.32,4.6c1,2.82,1.92,5.13,2.69,6.91a104.25,104.25,0,0,0,4.22,9.6,42.16,42.16,0,0,1,3.45,10q6.14,24.18-11.9,42.22A65.6,65.6,0,0,1,992.65,305a95.45,95.45,0,0,1-18.42,7.29q-13.44,3.45-23.41-5.76-3.47-3.45-6.91-6.91a88.83,88.83,0,0,1-6.53-7.29q-9.21-9.58-4.22-21.11a52,52,0,0,1,5.76-10.75,129.45,129.45,0,0,1,39.92-37.23c2.3-1.28,4.66-2.62,7.1-4S991,216.32,993.81,214.79Zm8.82,15a5.92,5.92,0,0,1-2.3.77,2.2,2.2,0,0,0-1.54.76,131.06,131.06,0,0,0-37.61,31.86,50.34,50.34,0,0,0-5.37,8.25q-2.31,4.43-4.61,8.64a15.94,15.94,0,0,0-1.53,5,8.5,8.5,0,0,0,1.53,5.75c2-.5,4-1,5.76-1.34a40.72,40.72,0,0,0,5.76-1.73,78.66,78.66,0,0,0,33-24.94Q1006.09,248.94,1002.63,229.76Z"/><path class="cls-1" d="M1091.3,214.79a128.72,128.72,0,0,1-13.24-18q-5.57-9.21-10.56-19.19-4.23-9.6-2.3-16.7t11.13-12.47a35,35,0,0,1,18.42-5.38q8.45,0,11.52,5.76a58,58,0,0,1,7.68,16.12q1.53,4.61-1.35,7.68t-8.25,3.07a26,26,0,0,0,1.92-4.61c1.28-4.85-.26-6.65-4.61-5.37a33.81,33.81,0,0,0-18.8,12.28c-.52.77-1.1,1.6-1.73,2.5s-1.34,2-2.11,3.26q5.37,6.53,10.55,13.24t10.94,14a151.07,151.07,0,0,1,30.52-8.44q15.92-2.69,32-5a24.58,24.58,0,0,0,1.54,3.26,28.15,28.15,0,0,1,1.54,3.26,5.87,5.87,0,0,1-1.54,1.15l-1.54.77q-8.05,2.31-16.31,4.61t-16.69,5q-5.38,1.92-10.94,4.22t-11.33,4.6c1,2.82,1.92,5.13,2.69,6.91q1.92,5,4.22,9.6a41.73,41.73,0,0,1,3.46,10q6.13,24.18-11.9,42.22a65.79,65.79,0,0,1-16.12,11.9,95.45,95.45,0,0,1-18.42,7.29q-13.44,3.45-23.42-5.76l-6.91-6.91a88.72,88.72,0,0,1-6.52-7.29q-9.21-9.58-4.22-21.11a52.46,52.46,0,0,1,5.75-10.75,129.56,129.56,0,0,1,39.92-37.23q3.45-1.92,7.1-4C1085.86,217.8,1088.48,216.32,1091.3,214.79Zm8.83,15a6,6,0,0,1-2.31.77,2.2,2.2,0,0,0-1.53.76,130.93,130.93,0,0,0-37.61,31.86,50.4,50.4,0,0,0-5.38,8.25q-2.29,4.43-4.6,8.64a16.22,16.22,0,0,0-1.54,5,8.57,8.57,0,0,0,1.54,5.75c2-.5,4-1,5.75-1.34a40.34,40.34,0,0,0,5.76-1.73,78.69,78.69,0,0,0,33-24.94Q1103.59,248.94,1100.13,229.76Z"/><path class="cls-1" d="M1205.3,186.77q8.82-7.68,20.72-4.61a32.07,32.07,0,0,1,11.13,5.18,53.47,53.47,0,0,1,9.21,8.64q6.92,8.84,3.84,20.73-2.29,8.83-5,17.08t-6.14,16.31a195.07,195.07,0,0,1-13.24,24.37,128.29,128.29,0,0,1-17.46,21.69,99.48,99.48,0,0,1-7.87,7.1c-2.69,2.18-5.44,4.41-8.25,6.72a22.21,22.21,0,0,1-7.3,3.83,14.34,14.34,0,0,1-8.06,0q-6.14-1.53-12.28-3.26a64.75,64.75,0,0,1-11.51-4.41A30.22,30.22,0,0,1,1137,278.89a146.25,146.25,0,0,1,5.56-45.87q6.33-21.68,24.37-39.34a53.93,53.93,0,0,1,13.44-10.75,19.74,19.74,0,0,1,10.74-3.45q5.37,0,10.75,5A13.66,13.66,0,0,0,1205.3,186.77Zm-36.47,117.06c2.05-1.27,4.09-2.42,6.14-3.45a27.61,27.61,0,0,0,5.38-3.45c3.07-2.82,6.07-5.69,9-8.64a97.33,97.33,0,0,0,8.25-9.4q7.68-10.74,15-21.69t14.2-22.07q2.3-4.22,4.22-8.44a50.92,50.92,0,0,0,3.07-8.83,47,47,0,0,0,2.5-11.13,19.93,19.93,0,0,0-2.5-11.52,10.75,10.75,0,0,0-7.1.77,46.68,46.68,0,0,0-6,3.84,93,93,0,0,0-25,29.94c-.76,1.53-1.6,3.07-2.49,4.6s-1.86,3.33-2.88,5.38q-2.68-1.92-5-3.46l-4.61-3.07c1.54-3.84,2.94-7.61,4.23-11.32s2.68-7.49,4.22-11.32a14.64,14.64,0,0,0-2.69,1.53A160.06,160.06,0,0,0,1169,245.69a104.14,104.14,0,0,0-6.72,37.8,79.94,79.94,0,0,0,1.34,10.17A24.62,24.62,0,0,0,1168.83,303.83Z"/><path class="cls-1" d="M1510,130a200.51,200.51,0,0,0-41.45,28.6,95.46,95.46,0,0,0-26.1,38.19q-3.84-1.16-5-3.84a8.82,8.82,0,0,1-.38-5.76,63.9,63.9,0,0,1,14.58-31.47,196.11,196.11,0,0,1,47.41-38.19q25.91-14.77,57.76-19a113,113,0,0,1,28.6-.19q12.46,1.73,21.68,12.86Q1619,125,1621.54,140.52a102.08,102.08,0,0,1-.19,32.43,205.75,205.75,0,0,1-7.86,32.05,218.86,218.86,0,0,1-12.86,30.51c-.52,1-1,2.18-1.54,3.46s-1.15,3.07-1.92,5.37q10.74-2.29,19.58-4.22t16.89-3.84q8.05-1.91,16.12-3.45t18-3.46c1.27,2.56,3.07,5.76,5.37,9.6a344,344,0,0,0-41.26,11.71,354.74,354.74,0,0,1-40.88,11.7,26.75,26.75,0,0,0-11.9,8.06,418.45,418.45,0,0,1-45.1,51.05,560.57,560.57,0,0,1-52,44.14q-10,6.53-20.54,12.09a82.59,82.59,0,0,1-21.49,7.87,53.18,53.18,0,0,1-21.5.19q-10.56-2.11-19.76-10.94a12,12,0,0,1-3.27-8.83,29.19,29.19,0,0,1,2.11-9.78,40.87,40.87,0,0,1,5.19-9.22,32.13,32.13,0,0,1,6.33-6.71l16.12-14.59q8.05-7.29,16.5-13.81a24,24,0,0,0,9.6-15.74,288.47,288.47,0,0,1,8.83-40.11q5.76-19.38,13.43-39,8.82-23,17.66-43.18t20-42.41A5.82,5.82,0,0,1,1510,130ZM1411.4,374.84a228.92,228.92,0,0,0,25.91-9.59,100.7,100.7,0,0,0,23.22-14.59q19.58-15.74,38.19-32.24a226,226,0,0,0,32.43-35.31,274.84,274.84,0,0,0-45.67,20.34A5.78,5.78,0,0,0,1483,306a30.46,30.46,0,0,0-1.73,3.64q-3.08,6.53-5.57,12.86t-5.56,12.86a15.13,15.13,0,0,1-1.92,3.45,3.3,3.3,0,0,1-3.46,1.15q-3.84,0-7.48-.19c-2.44-.13-4.93-.32-7.49-.57-.25-2-.51-4-.76-5.76s-.52-3.59-.77-5.37a79.46,79.46,0,0,0-8.64,6.14,108.19,108.19,0,0,0-9.21,8.25c-2.94,2.94-5.7,5.82-8.25,8.63a42.91,42.91,0,0,0-5.76,7.68,36.54,36.54,0,0,0-4,6.91A16.53,16.53,0,0,0,1411.4,374.84ZM1537.68,119.6q-5.76,21.12-12.09,41.07t-12.67,39.72q-6.33,19.79-12.47,39.92t-11.13,41.26q12.27-5.37,24.56-10.94a205.38,205.38,0,0,1,24.95-9.4,76.18,76.18,0,0,0,18.81-10,58.07,58.07,0,0,0,13.82-15.35,392.05,392.05,0,0,0,20.15-35.12A166.57,166.57,0,0,0,1605.23,163q1.92-8.82,3.07-18a63.56,63.56,0,0,0-.38-18.42q-2.68-10.74-11.52-13.82a47.38,47.38,0,0,0-19.76-2.11A106.89,106.89,0,0,0,1555,114.8Q1544.2,118.07,1537.68,119.6Z"/><path class="cls-1" d="M1704.64,186.77q8.82-7.68,20.73-4.61a32.07,32.07,0,0,1,11.13,5.18,54.2,54.2,0,0,1,9.21,8.64q6.9,8.84,3.84,20.73-2.31,8.83-5,17.08t-6.14,16.31a195.14,195.14,0,0,1-13.25,24.37,128.29,128.29,0,0,1-17.46,21.69,99.48,99.48,0,0,1-7.87,7.1c-2.69,2.18-5.44,4.41-8.25,6.72a22.17,22.17,0,0,1-7.29,3.83,14.34,14.34,0,0,1-8.06,0q-6.15-1.53-12.29-3.26a65,65,0,0,1-11.51-4.41,30.22,30.22,0,0,1-16.12-27.25,146.25,146.25,0,0,1,5.56-45.87q6.34-21.68,24.38-39.34a53.68,53.68,0,0,1,13.43-10.75,19.75,19.75,0,0,1,10.75-3.45q5.37,0,10.75,5A13.4,13.4,0,0,0,1704.64,186.77Zm-36.46,117.06q3.06-1.9,6.14-3.45a27.53,27.53,0,0,0,5.37-3.45c3.07-2.82,6.08-5.69,9-8.64a97.33,97.33,0,0,0,8.25-9.4q7.68-10.74,15-21.69t14.2-22.07c1.54-2.81,2.94-5.62,4.23-8.44a52.65,52.65,0,0,0,3.07-8.83,47,47,0,0,0,2.49-11.13,19.92,19.92,0,0,0-2.49-11.52,10.74,10.74,0,0,0-7.1.77,46,46,0,0,0-5.95,3.84,92.86,92.86,0,0,0-25,29.94c-.77,1.53-1.6,3.07-2.5,4.6s-1.86,3.33-2.88,5.38q-2.68-1.92-5-3.46t-4.61-3.07q2.3-5.76,4.22-11.32t4.22-11.32a14.78,14.78,0,0,0-2.68,1.53,159.64,159.64,0,0,0-17.85,33.59,104.35,104.35,0,0,0-6.72,37.8,79.94,79.94,0,0,0,1.34,10.17A24.65,24.65,0,0,0,1668.18,303.83Z"/><path class="cls-1" d="M1788.7,306.14a29.71,29.71,0,0,0,10.17-5.76,73.21,73.21,0,0,0,8.25-8.44q7.67-9.21,14.78-18.43t14-18.8a119.12,119.12,0,0,0,7.68-10.94q3.45-5.57,7.29-11.71l3.84.77a36.27,36.27,0,0,1,4.22,1.15,9.33,9.33,0,0,0-1,2.88,6.08,6.08,0,0,1-1,2.49q-5.38,8.84-10.18,18t-10.17,18a120.59,120.59,0,0,1-21.88,28.79,43.28,43.28,0,0,1-11.13,7.68,25.44,25.44,0,0,1-13.43,1.91,14.15,14.15,0,0,0-4-.19c-1.41.13-2.75.19-4,.19q-10.37-.37-16.31-4.41t-9.41-14a122.81,122.81,0,0,1-4.6-23,139,139,0,0,1,.19-36.46q2.51-18,6.72-35.7,3.45-12.27,7.87-24.37t9.78-23.6A185.6,185.6,0,0,1,1818.25,97a51.14,51.14,0,0,1,9.79-7.11A97.5,97.5,0,0,1,1839,84.67a8.57,8.57,0,0,1,8.82,1.15,43.93,43.93,0,0,1,16.12,20q5,12.3,1.92,26.87a78.07,78.07,0,0,1-13.43,32.24q-4.61,6.92-9.79,13.44t-10.55,13a61.75,61.75,0,0,1-26.87,18.8c-3.07,1-6,2.11-8.83,3.27s-5.63,2.36-8.44,3.64a8.16,8.16,0,0,0-5,5.76q-2.31,16.13-3.65,31.66a138.87,138.87,0,0,0,1,31.67,59.07,59.07,0,0,0,2.5,10.55A23.88,23.88,0,0,0,1788.7,306.14Zm59.1-208.8A151.48,151.48,0,0,0,1811,141.86,292.31,292.31,0,0,0,1788.7,196a32.06,32.06,0,0,1,3.45-.77A162.35,162.35,0,0,0,1847,121.52,35.67,35.67,0,0,0,1847.8,97.34Z"/><path class="cls-1" d="M1913.44,193.68q-13.07,0-20.35,8.06a151.9,151.9,0,0,0-27.25,38.57q-10,20.54-8.44,46.25a36.22,36.22,0,0,0,1.53,9.41,27.75,27.75,0,0,0,5,7.86c2-1,4.09-1.91,6.14-2.68a62.93,62.93,0,0,0,6.14-2.69,151.3,151.3,0,0,0,28.79-20q13-11.5,25.33-23.79,6.53-6.53,13.25-12.86T1956.81,229q5.76-5.76,13-1.92a22.16,22.16,0,0,0-1.35,2.3,21.15,21.15,0,0,1-1.34,2.31q-13.44,14.58-27.06,29.17T1912.67,290A121.07,121.07,0,0,1,1901,301q-6.33,5.18-12.86,10.17a26.51,26.51,0,0,1-12.86,5.18q-6.33.57-13.62-4.41-6.91-4.62-13.24-9.22a54.5,54.5,0,0,1-11.33-11.13,37.85,37.85,0,0,1-7.29-25.71q3.46-42.61,34.16-72.16,13-13.05,32.24-14.2,8.44-.39,13.63,3.84a34.33,34.33,0,0,1,8.63,10.74,52.29,52.29,0,0,1,6.15,18.62,33.87,33.87,0,0,1-3.46,19q-2.29,5.37-4.8,10.36a61.71,61.71,0,0,1-6,9.59c-2,3.08-3.9,4.61-5.56,4.61s-3.9-1.4-6.72-4.22l-1.34-1.34c-.38-.39-.84-.83-1.34-1.35-2.31-2.55-3.46-4.41-3.46-5.56s1-3.13,3.07-6q6.13-8.83,11.13-16.89a109.26,109.26,0,0,0,6.53-16.89,12.4,12.4,0,0,0,.77-4.6Z"/><path class="cls-1" d="M1967.17,254.71a148.53,148.53,0,0,0-1,19.57,51.78,51.78,0,0,0,3.65,18q1.91,5.39,3.45,6.33t6.91.2a28.2,28.2,0,0,0,16.12-6.15q8.82-8.06,17.85-15.92T2032,260.85q10-8.84,19.39-18.23t19-18.62a7.62,7.62,0,0,1,4.79-2.49,15.56,15.56,0,0,1,5.95,1c-.76,1.29-1.47,2.44-2.11,3.46s-1.34,2.05-2.11,3.07q-13.44,15.36-26.29,30.51t-26.29,30.13a114,114,0,0,1-8.83,8.64q-4.6,4-9.6,7.87a31,31,0,0,1-14.39,6.52q-7.49,1.15-15.54-3.84-5.38-3.45-10.94-6.9t-10.94-6.53A31.06,31.06,0,0,1,1943,283.68a40.66,40.66,0,0,1-4.22-15.16q-5.76-53.34,36.46-84a35.45,35.45,0,0,1,4.22-2.88,35.45,35.45,0,0,0,4.22-2.88,23.66,23.66,0,0,1,10.75-5.37,39,39,0,0,1,12.28-.39,9.9,9.9,0,0,1,4,1,8.18,8.18,0,0,1,3.26,2.5q4.62,5.75,9.22,11.51a105.33,105.33,0,0,1,8.44,12.28,27.57,27.57,0,0,1,3.65,14.2A40.27,40.27,0,0,1,2032,229a49.85,49.85,0,0,1-12.09,18.23,73.27,73.27,0,0,1-17.84,12.48,30.54,30.54,0,0,1-15.36,3.45,27.26,27.26,0,0,1-15-5.76,5.25,5.25,0,0,0-1.72-1.15A22.16,22.16,0,0,1,1967.17,254.71Zm1.92-6.53q19.19,1.55,31.85-10.36a62.19,62.19,0,0,0,11.33-14.2,97.24,97.24,0,0,0,7.48-16.51,27.87,27.87,0,0,0,1.15-5q.38-2.67.77-5.76a3.31,3.31,0,0,0-1.15-3.45,4.84,4.84,0,0,0-3.84-.77,21.14,21.14,0,0,0-4.61.77,28.13,28.13,0,0,0-13,6.14,124.57,124.57,0,0,0-10.37,10,57.83,57.83,0,0,0-12.09,17.66A145.36,145.36,0,0,0,1969.09,248.18Z"/></svg>