<svg id="Layer_1" data-name="Layer 1" xmlns="http://www.w3.org/2000/svg" viewBox="0 0 2400 410"><defs><style>.cls-1{fill:#fff;}</style></defs><path class="cls-1" d="M883.29,199.82a21.37,21.37,0,0,0,3.84,2.49c1.28.64,2.55,1.34,3.84,2.11a5.86,5.86,0,0,0-1,2.11,3.33,3.33,0,0,1-1,1.73q-20,26.49-39.73,53t-41.64,51.43q-6.54,7.29-13.24,13.63l-13.63,12.85a40.55,40.55,0,0,1-15.93,9.6,32.88,32.88,0,0,1-18.61,0q-7.31-1.92-14.59-3.26a79.56,79.56,0,0,1-14.2-4,34.61,34.61,0,0,1-14.78-9.79,45.33,45.33,0,0,1-9-15.93,97.59,97.59,0,0,1-4.6-23.8,128.55,128.55,0,0,1,.76-24.18,224.11,224.11,0,0,1,17.08-62.56,290.72,290.72,0,0,1,32.44-55.65q5.76-8.07,11.9-15.93t12.66-15.55a215.88,215.88,0,0,1,21.31-20.72A93.34,93.34,0,0,1,810.75,82a43,43,0,0,1,10.75-3.07,76.07,76.07,0,0,1,10.74-.77A29.13,29.13,0,0,1,845.1,81a34.08,34.08,0,0,1,10.36,7.68,33.27,33.27,0,0,1,6.72,10.94,27.85,27.85,0,0,1,1.54,13A63.63,63.63,0,0,1,857.19,135a168.36,168.36,0,0,1-16.5,27.64,191.29,191.29,0,0,1-21.11,24.18,17.77,17.77,0,0,1-3.07,3.07c-1,.76-2.18,1.66-3.46,2.68q-6.52,4.6-13,.39-1.92-1.16-4-2.5a25.78,25.78,0,0,0-4-2.11q-7.68-3.06-6.91-11.9a25.1,25.1,0,0,1,.39-5.37A56.54,56.54,0,0,1,795,149a85.26,85.26,0,0,1,16.89-17.08,7.15,7.15,0,0,0,2.3.38q4.6,3.08,7.1,4.8a7.19,7.19,0,0,1,3.07,3.65,7.33,7.33,0,0,1-.38,4.6q-1,2.7-3.26,7.68a53.71,53.71,0,0,0-3.84,8.83,1.13,1.13,0,0,0,.38.77c.26-.26.45-.39.58-.39s.32-.12.57-.38q8.45-10,15.93-20.73a134.13,134.13,0,0,0,12.86-23q1.92-5.37,3.26-10.55a28.27,28.27,0,0,0,.58-10.94q-.78-5.76-5.76-5.76a28.26,28.26,0,0,0-8.06.39,16.81,16.81,0,0,0-6.91,3.07L818,102.71a82.35,82.35,0,0,0-11.51,9.59q-57.57,61-78.69,144.32a202.94,202.94,0,0,0-4.6,24.95,96.07,96.07,0,0,0,.38,25.72A54.14,54.14,0,0,0,726.31,318c1.28,3.58,2.55,7.16,3.84,10.75a14.79,14.79,0,0,0,2.11,3.65q1.34,1.72,2.88,3.64c2.55,2.56,4.73,4,6.52,4.42s4.22-.33,7.29-2.11q5-2.7,9.79-5.76a68.65,68.65,0,0,0,9-6.91q19.57-17.26,37.62-35.5a435.67,435.67,0,0,0,34.16-39q8.82-11.13,18.23-21.88t18.61-21.88a43.33,43.33,0,0,1,3.27-3.64C880.8,202.7,882,201.35,883.29,199.82Z"/><path class="cls-1" d="M921.67,181q8.82-7.68,20.73-4.61a32.07,32.07,0,0,1,11.13,5.18,54.2,54.2,0,0,1,9.21,8.64q6.9,8.84,3.84,20.73-2.31,8.84-5,17.08t-6.14,16.31a195.14,195.14,0,0,1-13.25,24.37,128.29,128.29,0,0,1-17.46,21.69,99.48,99.48,0,0,1-7.87,7.1c-2.69,2.18-5.44,4.41-8.25,6.72a22.17,22.17,0,0,1-7.29,3.83,14.34,14.34,0,0,1-8.06,0q-6.15-1.53-12.28-3.26a64.86,64.86,0,0,1-11.52-4.41,30.25,30.25,0,0,1-16.12-27.25,146.25,146.25,0,0,1,5.56-45.87q6.35-21.67,24.38-39.34a53.68,53.68,0,0,1,13.43-10.75,19.75,19.75,0,0,1,10.75-3.45q5.37,0,10.75,5A13.4,13.4,0,0,0,921.67,181ZM885.21,298.07q3.06-1.9,6.14-3.45a27.53,27.53,0,0,0,5.37-3.45q4.6-4.23,9-8.64a97.33,97.33,0,0,0,8.25-9.4q7.68-10.74,15-21.69t14.2-22.07c1.54-2.81,2.94-5.62,4.23-8.44a52.65,52.65,0,0,0,3.07-8.83A47,47,0,0,0,953,201a20,20,0,0,0-2.49-11.52,10.74,10.74,0,0,0-7.1.77,46,46,0,0,0-6,3.84A92.86,92.86,0,0,0,912.46,224c-.77,1.53-1.6,3.07-2.5,4.6s-1.86,3.33-2.88,5.38q-2.69-1.92-5-3.46l-4.6-3.07q2.29-5.76,4.22-11.32t4.22-11.32a14.78,14.78,0,0,0-2.68,1.53,159.4,159.4,0,0,0-17.85,33.59,104.35,104.35,0,0,0-6.72,37.8A79.94,79.94,0,0,0,880,287.9,24.65,24.65,0,0,0,885.21,298.07Z"/><path class="cls-1" d="M1005.73,300.38a29.71,29.71,0,0,0,10.17-5.76,74,74,0,0,0,8.25-8.44q7.66-9.21,14.78-18.43t14-18.8a119.12,119.12,0,0,0,7.68-10.94q3.45-5.56,7.29-11.71l3.84.77a36.27,36.27,0,0,1,4.22,1.15,9.55,9.55,0,0,0-1,2.88,5.92,5.92,0,0,1-1,2.49q-5.38,8.83-10.18,18t-10.17,18a120.79,120.79,0,0,1-21.88,28.79,43.28,43.28,0,0,1-11.13,7.68,25.44,25.44,0,0,1-13.43,1.91,14.15,14.15,0,0,0-4-.19c-1.41.13-2.75.19-4,.19q-10.37-.37-16.31-4.41t-9.41-14a122.81,122.81,0,0,1-4.6-23,139,139,0,0,1,.19-36.46q2.5-18,6.72-35.7,3.45-12.27,7.86-24.37t9.79-23.6a185.6,185.6,0,0,1,41.84-55.27,51.14,51.14,0,0,1,9.79-7.11A97.5,97.5,0,0,1,1056,78.91a8.58,8.58,0,0,1,8.82,1.15A43.93,43.93,0,0,1,1081,100q5,12.3,1.92,26.87a78.07,78.07,0,0,1-13.43,32.24q-4.61,6.92-9.79,13.44t-10.55,13.05a61.75,61.75,0,0,1-26.87,18.8q-4.61,1.54-8.83,3.26t-8.44,3.65a8.16,8.16,0,0,0-5,5.76q-2.31,16.13-3.65,31.66a138.87,138.87,0,0,0,1,31.67,59.07,59.07,0,0,0,2.5,10.55A23.88,23.88,0,0,0,1005.73,300.38Zm59.1-208.8A151.48,151.48,0,0,0,1028,136.1a292.31,292.31,0,0,0-22.26,54.12,32.06,32.06,0,0,1,3.45-.77,162.35,162.35,0,0,0,54.89-73.69A35.67,35.67,0,0,0,1064.83,91.58Z"/><path class="cls-1" d="M1114.73,181q8.82-7.68,20.72-4.61a32,32,0,0,1,11.13,5.18,53.89,53.89,0,0,1,9.22,8.64q6.9,8.84,3.84,20.73-2.31,8.84-5,17.08t-6.15,16.31a193.78,193.78,0,0,1-13.24,24.37,128.29,128.29,0,0,1-17.46,21.69,99.48,99.48,0,0,1-7.87,7.1c-2.69,2.18-5.44,4.41-8.25,6.72a22.17,22.17,0,0,1-7.29,3.83,14.38,14.38,0,0,1-8.07,0q-6.13-1.53-12.28-3.26a65,65,0,0,1-11.51-4.41,30.25,30.25,0,0,1-16.12-27.25,146.25,146.25,0,0,1,5.56-45.87q6.35-21.67,24.38-39.34a53.68,53.68,0,0,1,13.43-10.75,19.75,19.75,0,0,1,10.75-3.45q5.37,0,10.74,5A13.66,13.66,0,0,0,1114.73,181Zm-36.47,117.06q3.08-1.9,6.15-3.45a27.83,27.83,0,0,0,5.37-3.45q4.6-4.23,9-8.64a97.33,97.33,0,0,0,8.25-9.4q7.68-10.74,15-21.69t14.2-22.07q2.31-4.22,4.22-8.44a50.92,50.92,0,0,0,3.07-8.83A46.56,46.56,0,0,0,1146,201a19.93,19.93,0,0,0-2.5-11.52,10.76,10.76,0,0,0-7.1.77,45.92,45.92,0,0,0-5.94,3.84,92.86,92.86,0,0,0-25,29.94c-.77,1.53-1.61,3.07-2.5,4.6s-1.86,3.33-2.88,5.38q-2.69-1.92-5-3.46l-4.6-3.07q2.29-5.76,4.22-11.32t4.22-11.32a14.78,14.78,0,0,0-2.68,1.53,159.4,159.4,0,0,0-17.85,33.59,104.35,104.35,0,0,0-6.72,37.8,79.94,79.94,0,0,0,1.34,10.17A24.74,24.74,0,0,0,1078.26,298.07Z"/><path class="cls-1" d="M1332.35,184.85c2.05,1.53,4.09,2.94,6.14,4.22a47.89,47.89,0,0,1,5.76,4.22,7,7,0,0,1,2.11,2.5,5.21,5.21,0,0,1,.58,3.64A26.68,26.68,0,0,1,1345,209q-3.84,10.36-7.29,20.72t-7.3,20.73q-4.61,13.44-9.4,29.56a323.51,323.51,0,0,0-7.87,32.43,215.37,215.37,0,0,0-3.64,32.24,102.27,102.27,0,0,0,2.88,29.36q3.45-1.92,9.59-7.87t12.67-13.43a168.7,168.7,0,0,0,11.9-15.35,68.15,68.15,0,0,0,7.67-14c1.79.51,3.51,1.08,5.18,1.72s3.52,1.35,5.57,2.12a82.55,82.55,0,0,1-7.1,13.24q-4.82,7.49-10.37,15.35T1336.38,371q-5.57,7.29-9.4,13.05-5.38,8.06-13.82,5.37a35.22,35.22,0,0,0-6.52-1.72c-2.31-.39-4.48-.84-6.53-1.35q-8.83-1.92-11.13-10-8.45-29.16-5.56-56a257,257,0,0,1,10.93-51.82q3.47-10,6.91-20.34t7.3-21.5c-1,.77-1.86,1.41-2.5,1.92a8.48,8.48,0,0,0-1.73,1.92l-36.84,50.67q-5.38,7.68-10.37,15.16t-10,15.16q-3.86,5.37-8.83,3.84a43.11,43.11,0,0,0-5-1.15,46.75,46.75,0,0,1-5-1.16c-3.33-.76-5.63-2.05-6.91-3.83s-1.67-4.48-1.15-8.07,1-7.1,1.53-10.55,1.15-6.84,1.92-10.17q3.07-13.43,6.53-26.29t6.52-26.29v-2.69l-5,5a349.23,349.23,0,0,0-20.92,28q-9.78,14.59-19,29.17-2.7,4.23-5.38,7.87c-1.79,2.43-3.59,4.93-5.37,7.48-2.31,3.59-5.51,4.86-9.6,3.84-2.55-.51-5-1-7.29-1.34s-4.73-.83-7.29-1.35c-3.33-.77-5-2.81-5-6.14q0-3.82.19-7.68a53.07,53.07,0,0,1,1-7.67,313.61,313.61,0,0,1,14-46.25,238.27,238.27,0,0,1,22.07-42.8,49.54,49.54,0,0,1,4.22-5.76c1.54-1.78,3.07-3.7,4.61-5.75,1.53,0,2.42.13,2.68.38q7.29,3.84,8.64,6.14t-1,10q-3.84,13.44-7.68,26.1t-8.06,25.72a20.54,20.54,0,0,0-1.15,4,12.56,12.56,0,0,0,0,4.41,14.17,14.17,0,0,1,1.92-2.88,14,14,0,0,0,1.92-2.88q11.89-17.26,25.14-33a273.88,273.88,0,0,1,29-29.56q5-4.6,6.91-4.6t7.29,3.45a38.54,38.54,0,0,1,5.95,4.22,11.06,11.06,0,0,1,2.88,3.84,10.39,10.39,0,0,1,.57,4.61,45.19,45.19,0,0,1-1.34,7.29q-3.07,13-6.53,25.71t-6.52,25.72a13.87,13.87,0,0,0-1,3.84,12.31,12.31,0,0,0,.58,4.6c1.27-2,2.49-3.89,3.64-5.56s2.37-3.52,3.65-5.57A260.09,260.09,0,0,1,1299,214q7.68-8.07,15.74-15.36A162.92,162.92,0,0,1,1332.35,184.85Z"/><path class="cls-1" d="M1414.87,246.26c1.28.51,2.43,1,3.45,1.34s2,.84,3.08,1.35q-3.47,9.6-7.49,18.61a41.54,41.54,0,0,0-3.26,20.15,28.11,28.11,0,0,0,4.6-5.37q8.84-16.5,17.47-32.82t17.08-33.2a83.42,83.42,0,0,0,3.45-9q1.53-4.8,2.69-9.4a15.77,15.77,0,0,0,.77-5,34.28,34.28,0,0,1,.76-6.53q-3.45,1.16-6,1.73a15,15,0,0,0-4.41,1.73,86,86,0,0,0-22.26,16.31,184,184,0,0,0-17.66,20.92,231.5,231.5,0,0,0-35.31,78.3q-1.53,6.13-2.3,9a6.21,6.21,0,0,1-2.3,3.83,10.22,10.22,0,0,1-4.61,1.16l-9.21.57c-2.81.25-4.86-.06-6.14-1s-2.17-2.75-2.69-5.56c-.51-4.36-.89-8.57-1.15-12.67a71.24,71.24,0,0,1,.38-12.66A320.65,320.65,0,0,1,1356,226.3a381.31,381.31,0,0,1,23.22-58.72q6.91-14.6,14.78-28.79t15.55-28.4a14.79,14.79,0,0,1,2.11-3.65c.89-1.15,1.85-2.36,2.88-3.65q3.45-4.22,7.48-3.26c2.69.64,5.43,2.37,8.25,5.18a1.74,1.74,0,0,1,1,1.15,3.39,3.39,0,0,0,1,1.54q-5.76,16.89-12.66,33t-13.25,32.62q-6.33,16.51-11.7,33.2a253.5,253.5,0,0,0-8.45,34.36l1.35-2.69a18.76,18.76,0,0,1,1.34-2.3,237.19,237.19,0,0,1,16.5-25.14,105.47,105.47,0,0,1,21.11-20.92,51.91,51.91,0,0,1,9-6q4.8-2.49,9.79-4.8,6.91-3.06,13.82,2.69,7.68,6.53,9.79,14t-.2,17.08a388.47,388.47,0,0,1-23,64.09,79,79,0,0,1-7.67,12.86q-4.61,6.33-8.83,12.86-5.76,8.44-15.74,5.37-3.07-.76-6.33-1.72c-2.18-.64-4.41-1.21-6.72-1.73q-3.08-16.5.77-30.71A82.41,82.41,0,0,1,1414.87,246.26Z"/><path class="cls-1" d="M1580.68,209.8a14.25,14.25,0,0,1,2.49,1.53c.64.52,1.35,1,2.11,1.54a3.1,3.1,0,0,1-.38,1.92q-19.58,25.32-36.46,46.82A461.5,461.5,0,0,1,1512,302.68a14.4,14.4,0,0,1-7.1,4.22,17.56,17.56,0,0,1-7.29,0,29.29,29.29,0,0,1-7.1-2.49c-2.3-1.15-4.61-2.36-6.91-3.65q-10.36-3.83-12.67-15.74-3.06-26.08,5.76-48a156.09,156.09,0,0,1,23.41-39.92q7.68-5.76,12.48-2.3a41.22,41.22,0,0,1,9,9.21,175.22,175.22,0,0,0-12.86,22.07,92.11,92.11,0,0,0-6.52,18.61,118.16,118.16,0,0,0-2.69,20.35q-.57,11.13-1,27.25a198.14,198.14,0,0,0,22.84-19q10.93-10.56,21.3-21.5T1562.45,230Q1571.84,219,1580.68,209.8Zm-30.32-59.88q-4.6,5.76-8.45,9.79t-7.48,7.67c-2.44,2.44-4.93,5-7.49,7.68s-5.37,5.82-8.44,9.4q-3.84-1.53-4.61-4a13.13,13.13,0,0,0-3.45-5.18q-2.68-3.45-1.54-8.63a38.66,38.66,0,0,1,4-10.37,56.11,56.11,0,0,1,6.72-9.59,33.35,33.35,0,0,1,6.91-6.34,16.57,16.57,0,0,1,7.68-1.72,13.51,13.51,0,0,1,6.33,1.92,23.31,23.31,0,0,1,5.18,4.22C1547.29,146.41,1548.82,148.13,1550.36,149.92Z"/><path class="cls-1" d="M1647.85,290.78q3.06-3.06,6.14-6.33t5.75-6.72q9.23-12.27,18.24-24.56t18.23-24.57q2.3-3.06,5-6.33l6.14-7.48c.77,1.28,1.4,2.36,1.92,3.26s1.15,2,1.92,3.26q-4.23,6.52-8.45,13.43c-2.82,4.61-5.75,9.09-8.83,13.44q-7.68,11.13-15.54,22.45t-15.93,22.46a17.24,17.24,0,0,1-2.49,3.26,38.89,38.89,0,0,0-2.88,3.26q-3.84,3.08-6.34,3.26c-1.66.13-4.16-.44-7.48-1.73q-11.13-4.22-15.93-12.28a42.66,42.66,0,0,1-5.57-19.19,40.31,40.31,0,0,1-.57-4,47.22,47.22,0,0,0-1-5.56c-1.54,2.05-2.94,3.9-4.22,5.56s-2.44,3.26-3.46,4.8q-5,6.53-9.4,12.86t-9.79,12.86a60,60,0,0,1-5.75,5.75c-2.06,1.8-4.1,3.72-6.15,5.76a6.36,6.36,0,0,1-8.06.38,67.76,67.76,0,0,0-6.71-3.64,39.35,39.35,0,0,1-6.72-4q-8.82-6.13-8.83-15.74,0-5.76.39-11.51a53.1,53.1,0,0,1,1.92-11.13,177.29,177.29,0,0,1,18.42-43.38,149.85,149.85,0,0,1,30.32-36.08,43.11,43.11,0,0,1,12.48-8.25,58.26,58.26,0,0,1,14.39-4,39.6,39.6,0,0,1,14,.19,25.63,25.63,0,0,1,12.47,6.72c3.32-1.79,6.53-3.71,9.6-5.76s6.78-2.55,11.13-1.53a8.48,8.48,0,0,1,6.14,4c1.28,2.18,2.55,4.41,3.84,6.72a155.34,155.34,0,0,0-26.1,39.53,186.54,186.54,0,0,0-13.82,44.91,46.91,46.91,0,0,0-1.34,12.47q.18,6,1,12.47A7,7,0,0,1,1647.85,290.78Zm-71.78,0,2.3,1.15q4.23-4.21,8.06-7.87t7.68-7.86q6.53-6.92,12.86-14.2t12.86-14.59a17.69,17.69,0,0,0,3.45-7.29,144.71,144.71,0,0,1,18-44.14,15.27,15.27,0,0,0,1.34-2.5,25.74,25.74,0,0,1,2.11-3.64,56.25,56.25,0,0,0-5.56,2.11c-1.41.64-2.75,1.22-4,1.73q-28,15.34-43,44.9a137.86,137.86,0,0,0-8.83,21.11,211.22,211.22,0,0,0-5.75,21.88c-.26,1.54-.45,3.07-.58,4.61A19.85,19.85,0,0,1,1576.07,290.78Z"/></svg>