<svg id="Layer_1" data-name="Layer 1" xmlns="http://www.w3.org/2000/svg" viewBox="0 0 2400 410"><defs><style>.cls-1{fill:#fff;}</style></defs><path class="cls-1" d="M483.52,115q3.08-6.9,5.37-13.24a22.4,22.4,0,0,0,.39-13.62q-3.84-1.53-10.94,2.11a104.59,104.59,0,0,0-14.59,9.21q-7.49,5.56-14,11.32l-9.59,8.45Q425.56,132.66,412.51,147a123.33,123.33,0,0,0-20.72,30.9c1.53-.51,2.94-1,4.22-1.53l3.84-1.54q16.11-6.92,32-13.82a279.31,279.31,0,0,0,30.89-15.73,15.24,15.24,0,0,1,7.87-1.54q3.64.39,6.72,5.76a11.08,11.08,0,0,0,2.11,2.88,42.85,42.85,0,0,1,2.88,3.26A70.12,70.12,0,0,0,462.22,172q-8.27,9.8-16.32,19.77a352.55,352.55,0,0,0-43.17,63.91,333.46,333.46,0,0,0-27.83,73.11,81.71,81.71,0,0,0-2.5,14.59,50.74,50.74,0,0,0,1,11.13q3.08,1.53,10-1.73t15.74-14.39q18-20,31.47-34.35a288.52,288.52,0,0,0,24.57-30.13,59.88,59.88,0,0,1-8.64-15.74q-2.88-8.06-.19-18a88.38,88.38,0,0,1,17.08-29.55,96.37,96.37,0,0,1,25.52-20.35q5.76-3.83,9.79-3.07t9,6.14l3.84,4.61c1.28,1.53,2.55,2.94,3.84,4.22q7.67,7.31,2.3,16.12-6.52,11.14-13.82,21.3t-12.28,16.32q10.74-2.69,17.85-5t12.86-4.61q5.75-2.3,11.32-4.6t13.24-5.76c2,2.3,4.47,5.12,7.29,8.44a107.68,107.68,0,0,1-30.32,15q-16.12,5-31.86,10.36-11.13,3.85-15.93,8.45a96.82,96.82,0,0,0-9.78,11.13q-18.42,23.81-36.85,43.95a289,289,0,0,1-39.92,36.27,14.3,14.3,0,0,1-7.29,2.3,19.06,19.06,0,0,1-6.91-1.34,47.69,47.69,0,0,1-6.71-3.26,34.94,34.94,0,0,0-6.72-3.08,20.9,20.9,0,0,1-10-8.06,37.43,37.43,0,0,1-5-12.66,42.06,42.06,0,0,1-1.15-14.78q.76-7.11,1.92-14.78a243.84,243.84,0,0,1,25-71.77q5-8.44,10-16.7t10-16.31a20.51,20.51,0,0,1,1.92-3.65,37,37,0,0,0,2.31-4c-4.1.52-7.1,1-9,1.35a8.51,8.51,0,0,1-4.8-.19,12.38,12.38,0,0,1-4.22-3.27q-2.31-2.49-7.3-7.1-7.68-6.9-8.63-14.39a35.69,35.69,0,0,1,2.11-16.31q2.68-5.76,5.37-11.71a66.6,66.6,0,0,1,6.53-11.32,201.76,201.76,0,0,1,30.9-34.74,163.75,163.75,0,0,1,37.8-25.14q3.84-1.53,10.36-4.41a72.18,72.18,0,0,1,13.44-4.42,46.11,46.11,0,0,1,12.86-1.15,11.1,11.1,0,0,1,9,5q7.67,10.75,5.75,21.69T483.52,115Zm-20,147q9.21-11.9,17.47-21.5a135.21,135.21,0,0,0,15.16-21.87,66.68,66.68,0,0,0-13.44,8.06,57.5,57.5,0,0,0-11.13,11.13,48.56,48.56,0,0,0-6.91,12.47A21.09,21.09,0,0,0,463.56,262Z"/><path class="cls-1" d="M579.86,214.79a130.21,130.21,0,0,1-13.25-18q-5.57-9.21-10.55-19.19-4.23-9.6-2.3-16.7t11.13-12.47A34.92,34.92,0,0,1,583.31,143q8.45,0,11.52,5.76a57.65,57.65,0,0,1,7.67,16.12q1.53,4.61-1.34,7.68t-8.25,3.07a26,26,0,0,0,1.92-4.61q1.9-7.29-4.61-5.37a33.87,33.87,0,0,0-18.81,12.28c-.51.77-1.09,1.6-1.72,2.5s-1.35,2-2.12,3.26q5.37,6.53,10.56,13.24t10.94,14a151.16,151.16,0,0,1,30.51-8.44q15.93-2.69,32-5a24.58,24.58,0,0,0,1.54,3.26A26.67,26.67,0,0,1,654.7,204a5.68,5.68,0,0,1-1.53,1.15l-1.54.77q-8.05,2.31-16.31,4.61t-16.7,5q-5.37,1.92-10.94,4.22t-11.32,4.6c1,2.82,1.92,5.13,2.69,6.91q1.92,5,4.22,9.6a41.28,41.28,0,0,1,3.45,10q6.15,24.18-11.89,42.22A66,66,0,0,1,578.71,305a95.29,95.29,0,0,1-18.43,7.29q-13.44,3.45-23.41-5.76L530,299.61a88.72,88.72,0,0,1-6.52-7.29q-9.23-9.58-4.23-21.11A53,53,0,0,1,525,260.46a129.56,129.56,0,0,1,39.92-37.23c2.3-1.28,4.66-2.62,7.1-4S577,216.32,579.86,214.79Zm8.83,15a5.94,5.94,0,0,1-2.31.76,2.21,2.21,0,0,0-1.53.77,131.11,131.11,0,0,0-37.62,31.86,50.34,50.34,0,0,0-5.37,8.25c-1.54,3-3.07,5.82-4.61,8.64a16.48,16.48,0,0,0-1.53,5,8.61,8.61,0,0,0,1.53,5.75q3.07-.76,5.76-1.34a40.34,40.34,0,0,0,5.76-1.73,78.75,78.75,0,0,0,33-24.94Q592.15,248.94,588.69,229.76Z"/><path class="cls-1" d="M663.92,241.66a48.89,48.89,0,0,0,2.88-4,23.33,23.33,0,0,1,3.26-4A200.4,200.4,0,0,1,691.55,209a113.66,113.66,0,0,1,26.1-18.81,26.87,26.87,0,0,0,3.27-1.53,26.65,26.65,0,0,1,3.26-1.54q10.37-4.22,20,3.84,9.21,8.06,11.13,17.27t-1.92,20.35A323.47,323.47,0,0,1,739,265.07a214.22,214.22,0,0,1-19.76,33.78,4.17,4.17,0,0,1-.58.95,4.55,4.55,0,0,0-.57,1,55.71,55.71,0,0,1-6.14,7.1,15.41,15.41,0,0,1-5.57,3.46,11.28,11.28,0,0,1-6.52,0,68.07,68.07,0,0,1-9-3.26l-8-3.46q-6.91-2.3-6.15-9.59a105.18,105.18,0,0,1,2.88-17.08q2.12-8.25,4.8-17.08c1.54.76,2.94,1.41,4.22,1.92l3.84,1.53q-.39,5.38-.58,10.36t-.57,10a.77.77,0,0,1,.57.2.78.78,0,0,0,.58.19l3.46-4.61q4.22-8.06,8.44-15.93t8.44-15.93q4.23-7.67,8.26-15.16t7.86-15.16a71,71,0,0,0,4.61-9.4q1.92-4.8,4.22-10.17-3.08-1.15-5-.39l-3.84,1.54a82.46,82.46,0,0,0-16.31,9.4,160.72,160.72,0,0,0-14.39,12.09,197.64,197.64,0,0,0-21.88,25.91,282.25,282.25,0,0,0-17.66,28.6,89.64,89.64,0,0,0-10.17,26.29q-2.88,13.62-5.56,27.44-1.93,8.44-3.46,16.89t-3.45,16.89q-1.92,7.67-4.41,15t-5.19,15c-.76,3.07-2.94,4.85-6.52,5.37a38,38,0,0,0-3.84.19c-1.28.13-2.55.32-3.84.58a21.25,21.25,0,0,1-2.88-7.68c-.38-2.56-.82-5.12-1.34-7.68a94.65,94.65,0,0,1-.77-24q1.15-11.7,3.07-23.6a543.6,543.6,0,0,1,15.36-64.1q9.59-31.47,20.72-62.56a107.1,107.1,0,0,1,6.34-12.86q3.63-6.33,7.1-12.86a25.89,25.89,0,0,1,5-6.52q3.45-3.84,6.9-1.92a24.33,24.33,0,0,1,4.23,2.69c1.27,1,1.66,2.68,1.15,5-.52,3.08-1.09,6.15-1.73,9.22s-1.34,6.14-2.11,9.21l-9.21,34.54-1.15,4.61c.25.26.44.38.57.38S663.66,241.4,663.92,241.66Z"/><path class="cls-1" d="M798.25,235.13a18.52,18.52,0,0,0,7.11-2.69,33.67,33.67,0,0,0,5.18-4.22q6.13-6.53,11.7-12.86t11.33-12.85q6.9-7.29,14.58-.39a7.1,7.1,0,0,1,2.69,4.22,11.42,11.42,0,0,1-.39,5q-3.08,9.21-5.75,18.43t-5.76,18a143.48,143.48,0,0,0-6.14,24.56q-1.92,12.28-3.07,24.57a6.17,6.17,0,0,0,.19,1.53c.13.52.32,1.28.58,2.3a40.55,40.55,0,0,0,9-5.95,95.1,95.1,0,0,0,7.1-7.1q11.11-11.5,22.64-23L891.91,242l3.45-3.45q1.53.76,2.88,1.53c.89.52,1.73,1,2.5,1.54-.26.51-.33.9-.2,1.15a.62.62,0,0,1-.19.76q-10,13.44-19.57,27.06a194,194,0,0,1-21.5,25.53q-4.23,4.23-8.63,8.06t-9,7.29q-7.3,6.14-15.36,1.54c-1-.51-2-1-2.87-1.35s-1.86-.82-2.88-1.34q-8.46-1.92-11.33-7.68a38.24,38.24,0,0,1-3.64-13.43,69,69,0,0,1,1.15-19.38q1.92-9.4,4.22-18.62a24.13,24.13,0,0,0,1.15-3.65,40.71,40.71,0,0,1,1.15-4c-1,.26-2.3.65-3.83,1.16a14.13,14.13,0,0,1-14.21-.77,50.85,50.85,0,0,0-6.52-2.69q-10.36-5-12.67-16.89a69.4,69.4,0,0,1-1.15-21.68,73,73,0,0,1,5.37-20.54,178.72,178.72,0,0,1,12.1-22.45,65.4,65.4,0,0,1,17.46-18.23c1-.77,2-1.54,2.88-2.3a13.64,13.64,0,0,1,2.88-1.92q7.28-3.84,12.09-2.5t9,8.25a4.46,4.46,0,0,1,.76,4.23l-1.53,3.83q-6.52,11.15-14.2,23.8a153.7,153.7,0,0,0-12.86,25.52,278.63,278.63,0,0,0-9,27.06A48,48,0,0,0,798.25,235.13Z"/><path class="cls-1" d="M903,254.71a148.53,148.53,0,0,0-1,19.57,52.24,52.24,0,0,0,3.65,18q1.92,5.39,3.45,6.33c1,.64,3.33.71,6.91.2a28.14,28.14,0,0,0,16.12-6.15q8.84-8.06,17.85-15.93t17.85-15.92q10-8.84,19.38-18.23t19-18.62a7.64,7.64,0,0,1,4.8-2.49,15.59,15.59,0,0,1,5.95,1c-.77,1.29-1.48,2.44-2.11,3.46s-1.35,2.05-2.11,3.07q-13.44,15.36-26.3,30.51t-26.29,30.13a114,114,0,0,1-8.83,8.64q-4.6,4-9.59,7.87a31.13,31.13,0,0,1-14.4,6.52q-7.49,1.15-15.54-3.84-5.39-3.45-10.94-6.9T890,295.39a31.13,31.13,0,0,1-11.13-11.71,41.09,41.09,0,0,1-4.22-15.16q-5.76-53.34,36.46-84a36.28,36.28,0,0,1,4.22-2.88,36.42,36.42,0,0,0,4.23-2.88,23.68,23.68,0,0,1,10.74-5.37,39.1,39.1,0,0,1,12.29-.39,9.94,9.94,0,0,1,4,1,8.32,8.32,0,0,1,3.26,2.5l9.21,11.51a104.49,104.49,0,0,1,8.44,12.28,27.37,27.37,0,0,1,3.65,14.2A40.25,40.25,0,0,1,967.9,229a50.1,50.1,0,0,1-12.09,18.23A73.21,73.21,0,0,1,938,259.69a30.41,30.41,0,0,1-15.35,3.46,27.26,27.26,0,0,1-15-5.76,5.29,5.29,0,0,0-1.73-1.15A22.84,22.84,0,0,1,903,254.71Zm1.92-6.53q19.18,1.55,31.86-10.36a62.14,62.14,0,0,0,11.32-14.2,97.27,97.27,0,0,0,7.49-16.51,29,29,0,0,0,1.15-5c.25-1.79.51-3.7.76-5.76a3.29,3.29,0,0,0-1.15-3.45,4.82,4.82,0,0,0-3.83-.77,21,21,0,0,0-4.61.77,28.17,28.17,0,0,0-13.05,6.14,124.46,124.46,0,0,0-10.36,10,57.48,57.48,0,0,0-12.09,17.66A145.37,145.37,0,0,0,905,248.18Z"/><path class="cls-1" d="M1020.48,214.79a130.11,130.11,0,0,1-13.24-18q-5.57-9.21-10.55-19.19-4.23-9.6-2.31-16.7t11.13-12.47a35,35,0,0,1,18.43-5.38q8.43,0,11.51,5.76a58,58,0,0,1,7.68,16.12q1.53,4.61-1.35,7.68c-1.91,2.05-4.67,3.07-8.25,3.07a26,26,0,0,0,1.92-4.61q1.92-7.29-4.6-5.37A33.8,33.8,0,0,0,1012,177.94c-.52.77-1.09,1.6-1.73,2.5s-1.34,2-2.11,3.26q5.37,6.53,10.56,13.24t10.94,14a151.16,151.16,0,0,1,30.51-8.44q15.91-2.69,32-5a26,26,0,0,0,1.53,3.26,28.15,28.15,0,0,1,1.54,3.26,5.87,5.87,0,0,1-1.54,1.15l-1.53.77q-8.07,2.31-16.31,4.61t-16.7,5q-5.38,1.92-10.94,4.22t-11.32,4.6c1,2.82,1.92,5.13,2.68,6.91q1.92,5,4.23,9.6a42.16,42.16,0,0,1,3.45,10q6.14,24.18-11.9,42.22a65.79,65.79,0,0,1-16.12,11.9,95.45,95.45,0,0,1-18.42,7.29q-13.44,3.45-23.42-5.76l-6.9-6.91a87,87,0,0,1-6.53-7.29q-9.21-9.58-4.22-21.11a52,52,0,0,1,5.76-10.75,129.41,129.41,0,0,1,39.91-37.23c2.31-1.28,4.67-2.62,7.1-4S1017.66,216.32,1020.48,214.79Zm8.83,15a5.91,5.91,0,0,1-2.3.76,2.21,2.21,0,0,0-1.54.77,131.06,131.06,0,0,0-37.61,31.86,51.06,51.06,0,0,0-5.38,8.25c-1.53,3-3.07,5.82-4.6,8.64a16.22,16.22,0,0,0-1.54,5,8.57,8.57,0,0,0,1.54,5.75q3.06-.76,5.76-1.34a40.62,40.62,0,0,0,5.75-1.73,78.69,78.69,0,0,0,33-24.94Q1032.76,248.94,1029.31,229.76Z"/><path class="cls-1" d="M1118,214.79a129.3,129.3,0,0,1-13.24-18q-5.58-9.21-10.56-19.19-4.23-9.6-2.3-16.7T1103,148.39a34.92,34.92,0,0,1,18.42-5.38q8.44,0,11.52,5.76a57.65,57.65,0,0,1,7.67,16.12q1.53,4.61-1.34,7.68t-8.25,3.07A26,26,0,0,0,1133,171q1.9-7.29-4.61-5.37a33.87,33.87,0,0,0-18.81,12.28c-.51.77-1.09,1.6-1.72,2.5s-1.35,2-2.11,3.26q5.37,6.53,10.55,13.24t10.94,14a151.16,151.16,0,0,1,30.51-8.44q15.93-2.69,32-5a24.58,24.58,0,0,0,1.54,3.26,26.67,26.67,0,0,1,1.53,3.26,5.68,5.68,0,0,1-1.53,1.15l-1.54.77q-8.05,2.31-16.31,4.61t-16.7,5q-5.37,1.92-10.93,4.22t-11.33,4.6c1,2.82,1.92,5.13,2.69,6.91q1.92,5,4.22,9.6a41.73,41.73,0,0,1,3.46,10q6.14,24.18-11.9,42.22a66,66,0,0,1-16.12,11.9,95.29,95.29,0,0,1-18.43,7.29q-13.44,3.45-23.41-5.76l-6.91-6.91a88.72,88.72,0,0,1-6.52-7.29q-9.22-9.58-4.23-21.11a53,53,0,0,1,5.76-10.75A129.56,129.56,0,0,1,1103,223.23c2.3-1.28,4.66-2.62,7.1-4S1115.16,216.32,1118,214.79Zm8.83,15a5.94,5.94,0,0,1-2.31.76,2.21,2.21,0,0,0-1.53.77,131.11,131.11,0,0,0-37.62,31.86,51,51,0,0,0-5.37,8.25c-1.54,3-3.07,5.82-4.61,8.64a16.48,16.48,0,0,0-1.53,5,8.61,8.61,0,0,0,1.53,5.75q3.08-.76,5.76-1.34a40.34,40.34,0,0,0,5.76-1.73,78.75,78.75,0,0,0,33-24.94Q1130.26,248.94,1126.81,229.76Z"/><path class="cls-1" d="M1232,186.77q8.83-7.68,20.73-4.61a32.07,32.07,0,0,1,11.13,5.18A54.2,54.2,0,0,1,1273,196q6.92,8.84,3.84,20.73-2.3,8.83-5,17.08t-6.14,16.31a195.07,195.07,0,0,1-13.24,24.37A127.86,127.86,0,0,1,1235,296.16a101.17,101.17,0,0,1-7.86,7.1c-2.69,2.18-5.44,4.41-8.26,6.72a22.07,22.07,0,0,1-7.29,3.83,14.34,14.34,0,0,1-8.06,0q-6.15-1.53-12.28-3.26a64.86,64.86,0,0,1-11.52-4.41,30.3,30.3,0,0,1-16.12-27.25,146.25,146.25,0,0,1,5.57-45.87q6.33-21.68,24.37-39.34A53.57,53.57,0,0,1,1207,182.93a19.74,19.74,0,0,1,10.74-3.45q5.37,0,10.75,5A13.76,13.76,0,0,0,1232,186.77Zm-36.46,117.06c2-1.27,4.09-2.42,6.14-3.45a27.61,27.61,0,0,0,5.38-3.45q4.6-4.23,9-8.64a97.43,97.43,0,0,0,8.26-9.4q7.67-10.74,15-21.69t14.2-22.07q2.29-4.22,4.22-8.44a51.77,51.77,0,0,0,3.07-8.83,47,47,0,0,0,2.5-11.13,19.93,19.93,0,0,0-2.5-11.52,10.75,10.75,0,0,0-7.1.77,46.68,46.68,0,0,0-6,3.84,92.86,92.86,0,0,0-25,29.94c-.77,1.53-1.6,3.07-2.49,4.6s-1.86,3.33-2.88,5.38c-1.79-1.28-3.46-2.43-5-3.46l-4.61-3.07c1.54-3.84,2.94-7.61,4.23-11.32s2.68-7.49,4.22-11.32a14.64,14.64,0,0,0-2.69,1.53,160.57,160.57,0,0,0-17.85,33.59,104.35,104.35,0,0,0-6.71,37.8,79.94,79.94,0,0,0,1.34,10.17A24.5,24.5,0,0,0,1195.51,303.83Z"/><path class="cls-1" d="M1516.38,233.21q-10.37,8.07-19.57,15t-17.66,14a164.74,164.74,0,0,0-15.93,15.35,145,145,0,0,0-14.39,19A91.17,91.17,0,0,0,1435,332.62a36.94,36.94,0,0,0,.38,11.9,32.32,32.32,0,0,0,4.61,11.13,73.8,73.8,0,0,0,22.45-10.55A197.09,197.09,0,0,0,1483.37,328q13.05-16.12,24.76-31.29a271.16,271.16,0,0,0,22.84-35.5,113.28,113.28,0,0,0,8.06-17.46,49.44,49.44,0,0,0,3.07-16.51,27.79,27.79,0,0,0-4.23-14.77q-4.21-6.92-14.2-12.29-11.13-6.13-21.3-12.28a188.91,188.91,0,0,1-19-13,10.7,10.7,0,0,1-4.6-8.25,23.15,23.15,0,0,1,1.53-10.17,64.64,64.64,0,0,1,7.87-18.23,116.33,116.33,0,0,1,12.67-16.89,129.65,129.65,0,0,1,15.54-14.59,173.1,173.1,0,0,1,16.5-11.7q13.44-8.07,27.26-3.84a41.22,41.22,0,0,1,7.67,3.64,49.53,49.53,0,0,1,7.68,5.57,24,24,0,0,1,5.37,6.72,8.55,8.55,0,0,1,.39,7.48,84.33,84.33,0,0,1-9.41,24.18,55.5,55.5,0,0,1-18.23,18.42,21.7,21.7,0,0,1-2.88-1.72c-.9-.64-2-1.47-3.26-2.5a196.25,196.25,0,0,0,15.35-22.26,64.35,64.35,0,0,0,7.68-23q-8.45,1.15-18.81,8.64a129.5,129.5,0,0,0-35.31,39.15q-6.53,11.32-7.68,20.15a138.76,138.76,0,0,0,15.55,11.7q9,6,17.85,11.33,14.58,8.84,19.38,21.68t4,29a104.93,104.93,0,0,1-5,27.06,159.61,159.61,0,0,1-10.75,25.14q-6.9,11.14-14.77,21.88a144.49,144.49,0,0,1-17.47,19.77A135.87,135.87,0,0,1,1497,359.1a78.2,78.2,0,0,1-24,10,66.44,66.44,0,0,1-13.24,1.73,36.25,36.25,0,0,1-13.25-2.11,62.06,62.06,0,0,1-7.29-2.69,34.79,34.79,0,0,0-7.29-2.3q-7.68-2.29-10.94-7.1t-4-12.47a83.14,83.14,0,0,1,7.29-38.77,122.73,122.73,0,0,1,14.59-23.22,175.53,175.53,0,0,1,18.23-19.58,266.2,266.2,0,0,1,20.53-17.08q10.76-8.06,21.88-16.12a10.13,10.13,0,0,1,8.64-.76A22.7,22.7,0,0,1,1516.38,233.21Z"/><path class="cls-1" d="M1656.48,193.68q-13.07,0-20.35,8.06a151.9,151.9,0,0,0-27.25,38.57q-10,20.54-8.44,46.25A36.22,36.22,0,0,0,1602,296a27.75,27.75,0,0,0,5,7.86,65.33,65.33,0,0,1,6.14-2.68,62.93,62.93,0,0,0,6.14-2.69,151.3,151.3,0,0,0,28.79-20q13-11.5,25.33-23.79,6.53-6.53,13.25-12.86T1699.85,229q5.76-5.76,13.05-1.92a22.16,22.16,0,0,0-1.35,2.3,21.15,21.15,0,0,1-1.34,2.31q-13.44,14.58-27.06,29.17T1655.71,290A122.33,122.33,0,0,1,1644,301q-6.33,5.18-12.86,10.17a26.51,26.51,0,0,1-12.86,5.18q-6.33.57-13.62-4.42-6.92-4.61-13.24-9.21a54.74,54.74,0,0,1-11.33-11.13,37.85,37.85,0,0,1-7.29-25.71q3.46-42.61,34.16-72.16,13.05-13.05,32.24-14.2,8.44-.39,13.63,3.83a34.48,34.48,0,0,1,8.63,10.75,52.29,52.29,0,0,1,6.15,18.62,33.87,33.87,0,0,1-3.46,19q-2.3,5.37-4.8,10.36a62.27,62.27,0,0,1-5.95,9.6q-3.08,4.61-5.56,4.6c-1.67,0-3.9-1.4-6.72-4.22l-1.34-1.34-1.34-1.35c-2.31-2.55-3.46-4.41-3.46-5.56s1-3.13,3.07-6q6.14-8.83,11.13-16.89a109.26,109.26,0,0,0,6.53-16.89,12.42,12.42,0,0,0,.77-4.61Z"/><path class="cls-1" d="M1732.47,174.49q4.21,3.45,6.52,5.56a14.87,14.87,0,0,1,3.27,4,7.84,7.84,0,0,1,.57,4.61,37.06,37.06,0,0,1-1.92,6.91q-3.45,10-7.29,19.76T1726,235.13q-5,12.28-9.22,24.95a215.47,215.47,0,0,0-6.91,26.1,12.9,12.9,0,0,0-.38,3.07,32.64,32.64,0,0,1-.38,4.22,32.9,32.9,0,0,1,3.45-3.07,13.44,13.44,0,0,0,2.69-2.69q13.42-15.73,27.06-31.28t27.06-31.66a14.76,14.76,0,0,0,3.07-4.61c.76-1.79,1.53-3.7,2.3-5.76a115,115,0,0,1,8.25-17.46,65.71,65.71,0,0,1,11.71-14.78,22.26,22.26,0,0,1,4.41-4q2.49-1.73,4.8-3.64,6.92,5,7.87,7.67c.63,1.8-.07,5-2.11,9.6a283.22,283.22,0,0,0-11.33,30.7q-4.8,15.75-8.25,31.86-1.14,6.92-2.11,13.63t-1.73,13.62a6.16,6.16,0,0,0-.19,2.69,40.19,40.19,0,0,1,.19,4.61q14.6-18,28.6-34.74a323.75,323.75,0,0,1,30.51-31.67c1.28,1.29,2.37,2.37,3.27,3.27a40.82,40.82,0,0,1,2.87,3.26,22.13,22.13,0,0,1-1.72,2.88,19.54,19.54,0,0,1-2.11,2.49q-12.3,17.28-24.95,33.78t-25,33.78a41.67,41.67,0,0,0-3.45,4.22q-5.76,8.83-16.13,5.37-11.13-3.45-14.58-7.87t-3.84-15.93a87.44,87.44,0,0,1,0-16.5c.51-2.81,1-5.57,1.34-8.25s.83-5.69,1.35-9c-1,.77-1.86,1.41-2.5,1.92a8.24,8.24,0,0,0-1.72,1.92q-4.62,6.14-9,12.28t-9.41,12.28q-5.37,6.92-11.51,13.43L1716,308.82a17.88,17.88,0,0,1-8.64,5.19q-4.42.94-9.79-2.12a24.88,24.88,0,0,0-4.8-2.49c-1.66-.64-3.38-1.34-5.18-2.11q-6.52-3.07-8.82-7.1t-1.54-10.94q.39-4.61,1-9a40.67,40.67,0,0,1,2.11-8.64q4.61-12.66,9-25.52a251.15,251.15,0,0,1,10.17-25.14,133.66,133.66,0,0,1,11.71-19.77q6.7-9.39,13.24-19a33.88,33.88,0,0,1,3.65-3.83Q1730.16,176.41,1732.47,174.49Z"/><path class="cls-1" d="M1854.91,235.13a18.53,18.53,0,0,0,7.1-2.69,33.19,33.19,0,0,0,5.18-4.22q6.13-6.53,11.7-12.86t11.33-12.85q6.9-7.29,14.58-.39a7.1,7.1,0,0,1,2.69,4.22,11.56,11.56,0,0,1-.38,5q-3.09,9.21-5.76,18.43t-5.76,18a143.48,143.48,0,0,0-6.14,24.56q-1.92,12.28-3.07,24.57a6.17,6.17,0,0,0,.19,1.53c.13.52.32,1.28.58,2.3a40.55,40.55,0,0,0,9-5.95,93.24,93.24,0,0,0,7.1-7.1q11.13-11.5,22.64-23L1948.56,242l3.45-3.45q1.53.76,2.88,1.53c.89.52,1.73,1,2.5,1.54-.26.51-.33.9-.2,1.15a.62.62,0,0,1-.19.76q-10,13.44-19.57,27.06a194,194,0,0,1-21.5,25.53q-4.23,4.23-8.63,8.06t-9,7.29q-7.3,6.14-15.36,1.54c-1-.51-2-1-2.87-1.35s-1.86-.82-2.88-1.34q-8.45-1.92-11.33-7.68a38.45,38.45,0,0,1-3.64-13.43,69.39,69.39,0,0,1,1.15-19.38q1.92-9.4,4.22-18.62a23,23,0,0,0,1.15-3.65c.26-1.15.64-2.49,1.15-4-1,.26-2.3.65-3.83,1.16a14.11,14.11,0,0,1-14.2-.77,51.59,51.59,0,0,0-6.53-2.69q-10.36-5-12.67-16.89a69.7,69.7,0,0,1-1.15-21.68,72.66,72.66,0,0,1,5.38-20.54A178.67,178.67,0,0,1,1849,159.71a65.4,65.4,0,0,1,17.46-18.23c1-.77,2-1.54,2.88-2.3a13.64,13.64,0,0,1,2.88-1.92q7.29-3.84,12.09-2.5t9,8.25a4.47,4.47,0,0,1,.77,4.23c-.52,1.28-1,2.56-1.54,3.83q-6.52,11.15-14.2,23.8a154.48,154.48,0,0,0-12.86,25.52,281.36,281.36,0,0,0-9,27.06A49.48,49.48,0,0,0,1854.91,235.13Z"/><path class="cls-1" d="M1995,186.77q8.84-7.68,20.73-4.61a32.07,32.07,0,0,1,11.13,5.18,53.83,53.83,0,0,1,9.21,8.64q6.92,8.84,3.84,20.73-2.3,8.83-5,17.08t-6.14,16.31a195.07,195.07,0,0,1-13.24,24.37,128.29,128.29,0,0,1-17.46,21.69,103.14,103.14,0,0,1-7.87,7.1c-2.69,2.18-5.44,4.41-8.25,6.72a22.21,22.21,0,0,1-7.3,3.83,14.34,14.34,0,0,1-8.06,0q-6.13-1.53-12.28-3.26a64.75,64.75,0,0,1-11.51-4.41,30.79,30.79,0,0,1-11.9-11.33,30.47,30.47,0,0,1-4.23-15.92,146.25,146.25,0,0,1,5.57-45.87q6.33-21.68,24.37-39.34a53.93,53.93,0,0,1,13.44-10.75,19.74,19.74,0,0,1,10.74-3.45q5.37,0,10.75,5A13.76,13.76,0,0,0,1995,186.77Zm-36.46,117.06c2-1.27,4.09-2.42,6.14-3.45a27.61,27.61,0,0,0,5.38-3.45q4.6-4.23,9-8.64a97.33,97.33,0,0,0,8.25-9.4q7.67-10.74,15-21.69t14.2-22.07q2.29-4.22,4.22-8.44a51.77,51.77,0,0,0,3.07-8.83,47,47,0,0,0,2.5-11.13,19.93,19.93,0,0,0-2.5-11.52,10.75,10.75,0,0,0-7.1.77,46.68,46.68,0,0,0-6,3.84,92.86,92.86,0,0,0-25,29.94c-.76,1.53-1.6,3.07-2.49,4.6s-1.86,3.33-2.88,5.38q-2.69-1.92-5-3.46l-4.61-3.07c1.54-3.84,2.94-7.61,4.23-11.32s2.68-7.49,4.22-11.32a14.64,14.64,0,0,0-2.69,1.53,160.57,160.57,0,0,0-17.85,33.59,104.35,104.35,0,0,0-6.71,37.8,79.94,79.94,0,0,0,1.34,10.17A24.62,24.62,0,0,0,1958.53,303.83Z"/></svg>