<svg id="Layer_1" data-name="Layer 1" xmlns="http://www.w3.org/2000/svg" viewBox="0 0 2400 410"><defs><style>.cls-1{fill:#fff;}</style></defs><path class="cls-1" d="M748,109.23q3.07-6.9,5.38-13.24a22.4,22.4,0,0,0,.38-13.62q-3.84-1.53-10.94,2.11a104.52,104.52,0,0,0-14.58,9.21q-7.49,5.57-14,11.32t-9.6,8.45Q690,126.9,677,141.28a123.37,123.37,0,0,0-20.73,30.9c1.54-.51,2.94-1,4.22-1.53l3.84-1.54q16.13-6.92,32.05-13.82a279.45,279.45,0,0,0,30.9-15.73,15.18,15.18,0,0,1,7.86-1.54q3.64.39,6.72,5.76a11.08,11.08,0,0,0,2.11,2.88,38.89,38.89,0,0,1,2.88,3.26,70.25,70.25,0,0,0-20.15,16.31Q718.42,176,710.36,186a352.6,352.6,0,0,0-43.18,63.91A333.46,333.46,0,0,0,639.35,323a81.49,81.49,0,0,0-2.49,14.59,50.13,50.13,0,0,0,1,11.13q3.06,1.53,10-1.73t15.73-14.39q18-20,31.48-34.35a288.42,288.42,0,0,0,24.56-30.13,59.88,59.88,0,0,1-8.64-15.74q-2.86-8.06-.19-18a88.38,88.38,0,0,1,17.08-29.55,96.25,96.25,0,0,1,25.53-20.35q5.76-3.83,9.78-3.07t9,6.14l3.84,4.61q1.92,2.3,3.84,4.22,7.68,7.3,2.3,16.12-6.52,11.15-13.81,21.3T756,250.1q10.74-2.68,17.85-5t12.86-4.61q5.76-2.3,11.32-4.6t13.24-5.76q3.08,3.45,7.3,8.44a107.81,107.81,0,0,1-30.32,15q-16.12,5-31.86,10.36-11.14,3.85-15.93,8.45a96.84,96.84,0,0,0-9.79,11.13q-18.42,23.81-36.85,43.95a289.55,289.55,0,0,1-39.91,36.27,14.3,14.3,0,0,1-7.3,2.3,19,19,0,0,1-6.9-1.34,47.27,47.27,0,0,1-6.72-3.26,34.67,34.67,0,0,0-6.72-3.08,21,21,0,0,1-10-8.06,37.43,37.43,0,0,1-5-12.66,42.29,42.29,0,0,1-1.15-14.78c.52-4.74,1.15-9.66,1.92-14.78a244.13,244.13,0,0,1,24.95-71.77q5-8.44,10-16.7t10-16.31a19.88,19.88,0,0,1,1.92-3.65,38.79,38.79,0,0,0,2.3-4c-4.1.52-7.1,1-9,1.35a8.51,8.51,0,0,1-4.8-.19,12.48,12.48,0,0,1-4.22-3.27q-2.31-2.49-7.29-7.1-7.68-6.9-8.64-14.39a35.69,35.69,0,0,1,2.11-16.31q2.68-5.76,5.38-11.71a65.88,65.88,0,0,1,6.52-11.32,201.76,201.76,0,0,1,30.9-34.74A163.81,163.81,0,0,1,710,72.77q3.82-1.53,10.36-4.41a72.32,72.32,0,0,1,13.43-4.42,46.14,46.14,0,0,1,12.86-1.15,11.1,11.1,0,0,1,9,5q7.68,10.75,5.76,21.69T748,109.23Zm-20,147q9.22-11.9,17.47-21.5a134.58,134.58,0,0,0,15.16-21.87,66.34,66.34,0,0,0-13.43,8.06,57.28,57.28,0,0,0-11.14,11.13,48.21,48.21,0,0,0-6.9,12.47A21.09,21.09,0,0,0,728,256.24Z"/><path class="cls-1" d="M825.89,300.38a29.62,29.62,0,0,0,10.17-5.76,73.21,73.21,0,0,0,8.25-8.44Q852,277,859.09,267.75t14-18.8A121,121,0,0,0,880.77,238l7.3-11.71,3.83.77a36.94,36.94,0,0,1,4.23,1.15,9.11,9.11,0,0,0-1,2.88,6.08,6.08,0,0,1-1,2.49q-5.38,8.83-10.17,18t-10.18,18A120.75,120.75,0,0,1,852,298.46a43.15,43.15,0,0,1-11.13,7.67,25.39,25.39,0,0,1-13.44,1.92,14.13,14.13,0,0,0-4-.19c-1.41.13-2.75.19-4,.19q-10.36-.37-16.31-4.41t-9.4-14a122,122,0,0,1-4.61-23,139.45,139.45,0,0,1,.19-36.46q2.5-18,6.72-35.7,3.45-12.27,7.87-24.37t9.79-23.61A185.81,185.81,0,0,1,855.44,91.2a51.14,51.14,0,0,1,9.79-7.11,95.78,95.78,0,0,1,10.94-5.18A8.57,8.57,0,0,1,885,80.06a44.06,44.06,0,0,1,16.12,20q5,12.28,1.92,26.87a78.22,78.22,0,0,1-13.44,32.24Q885,166,879.81,172.57t-10.55,13.05a61.75,61.75,0,0,1-26.87,18.8q-4.6,1.54-8.83,3.26t-8.44,3.65a8.16,8.16,0,0,0-5,5.76q-2.31,16.11-3.65,31.66a138.87,138.87,0,0,0,1,31.67,60.15,60.15,0,0,0,2.5,10.55A23.88,23.88,0,0,0,825.89,300.38ZM885,91.58a151.52,151.52,0,0,0-36.85,44.52,292.31,292.31,0,0,0-22.26,54.12,32.06,32.06,0,0,1,3.45-.77,162.28,162.28,0,0,0,54.89-73.69A35.73,35.73,0,0,0,885,91.58Z"/><path class="cls-1" d="M920.69,209a130.11,130.11,0,0,1-13.24-18q-5.57-9.21-10.55-19.19-4.23-9.6-2.31-16.7t11.13-12.47a35,35,0,0,1,18.43-5.38q8.43,0,11.51,5.76a58,58,0,0,1,7.68,16.12q1.53,4.6-1.35,7.68c-1.91,2.05-4.67,3.07-8.25,3.07a26,26,0,0,0,1.92-4.61c1.28-4.85-.26-6.65-4.6-5.37a33.8,33.8,0,0,0-18.81,12.28c-.52.77-1.09,1.6-1.73,2.5s-1.34,2-2.11,3.26q5.37,6.52,10.56,13.24t10.93,14a151.44,151.44,0,0,1,30.52-8.44q15.92-2.69,32.05-5A26.67,26.67,0,0,0,994,195a28.15,28.15,0,0,1,1.54,3.26,5.87,5.87,0,0,1-1.54,1.15l-1.53.77q-8.07,2.31-16.32,4.61t-16.69,5q-5.38,1.92-10.94,4.22t-11.32,4.6c1,2.82,1.92,5.13,2.68,6.91q1.92,5,4.23,9.6a42.16,42.16,0,0,1,3.45,10q6.13,24.18-11.9,42.22a65.79,65.79,0,0,1-16.12,11.9,95.45,95.45,0,0,1-18.42,7.29q-13.44,3.45-23.42-5.76l-6.9-6.91a87,87,0,0,1-6.53-7.29q-9.21-9.58-4.22-21.11a52,52,0,0,1,5.76-10.75,129.41,129.41,0,0,1,39.91-37.23c2.31-1.28,4.67-2.62,7.1-4S917.87,210.56,920.69,209Zm8.83,15a5.86,5.86,0,0,1-2.3.76,2.21,2.21,0,0,0-1.54.77,131.06,131.06,0,0,0-37.61,31.86,50.34,50.34,0,0,0-5.37,8.25c-1.54,2.95-3.08,5.82-4.61,8.64a16.22,16.22,0,0,0-1.54,5,8.57,8.57,0,0,0,1.54,5.75q3.06-.76,5.76-1.34A40.62,40.62,0,0,0,889.6,282a78.69,78.69,0,0,0,33-24.94Q933,243.18,929.52,224Z"/><path class="cls-1" d="M1050.43,290.78q3.06-3.06,6.14-6.33t5.76-6.72q9.21-12.27,18.23-24.56t18.23-24.57c1.53-2,3.2-4.15,5-6.33s3.84-4.67,6.14-7.48c.77,1.28,1.4,2.36,1.92,3.26s1.15,2,1.92,3.26q-4.23,6.52-8.44,13.43t-8.83,13.44q-7.7,11.13-15.55,22.45T1065,293.08a16.61,16.61,0,0,1-2.49,3.27,38.89,38.89,0,0,0-2.88,3.26q-3.84,3.08-6.33,3.26c-1.67.13-4.16-.44-7.49-1.73q-11.13-4.22-15.93-12.28a42.65,42.65,0,0,1-5.56-19.19,37.55,37.55,0,0,1-.58-4,47.22,47.22,0,0,0-1-5.56q-2.29,3.07-4.22,5.56c-1.28,1.67-2.43,3.26-3.45,4.8q-5,6.53-9.41,12.86t-9.78,12.86a62.52,62.52,0,0,1-5.76,5.75c-2,1.8-4.1,3.71-6.14,5.76a6.37,6.37,0,0,1-8.06.38,66.85,66.85,0,0,0-6.72-3.64,39.35,39.35,0,0,1-6.72-4q-8.82-6.13-8.82-15.74,0-5.76.38-11.51A53.76,53.76,0,0,1,956,262a177.29,177.29,0,0,1,18.42-43.38,149.85,149.85,0,0,1,30.32-36.08,43.24,43.24,0,0,1,12.48-8.25,58.26,58.26,0,0,1,14.39-4,39.6,39.6,0,0,1,14,.19,25.58,25.58,0,0,1,12.47,6.72q5-2.68,9.6-5.76t11.13-1.53a8.48,8.48,0,0,1,6.14,4q1.92,3.26,3.84,6.71a155.84,155.84,0,0,0-26.1,39.54,187,187,0,0,0-13.82,44.91,47.75,47.75,0,0,0-1.34,12.47c.13,4,.44,8.13,1,12.47A7,7,0,0,1,1050.43,290.78Zm-71.78,0,2.31,1.15q4.21-4.21,8.06-7.87t7.67-7.86q6.52-6.92,12.86-14.2t12.86-14.59a17.57,17.57,0,0,0,3.45-7.29,145,145,0,0,1,18-44.14,16.11,16.11,0,0,0,1.35-2.5,23.89,23.89,0,0,1,2.11-3.64,56.57,56.57,0,0,0-5.57,2.11c-1.41.64-2.75,1.22-4,1.72q-28,15.36-43,44.91A136.81,136.81,0,0,0,986,259.69a208.77,208.77,0,0,0-5.76,21.88c-.26,1.54-.45,3.07-.58,4.61A19.85,19.85,0,0,1,978.65,290.78Z"/><path class="cls-1" d="M1127.19,300.38a29.62,29.62,0,0,0,10.17-5.76,73.21,73.21,0,0,0,8.25-8.44q7.68-9.21,14.78-18.43t14-18.8a121,121,0,0,0,7.67-10.94l7.3-11.71,3.84.77a37.38,37.38,0,0,1,4.22,1.15,9.11,9.11,0,0,0-1,2.88,5.94,5.94,0,0,1-1,2.49q-5.38,8.83-10.17,18t-10.17,18a121.05,121.05,0,0,1-21.88,28.79,43.15,43.15,0,0,1-11.13,7.67,25.39,25.39,0,0,1-13.44,1.92,14.13,14.13,0,0,0-4-.19c-1.41.13-2.75.19-4,.19q-10.37-.37-16.31-4.41t-9.4-14a122,122,0,0,1-4.61-23,139.45,139.45,0,0,1,.19-36.46q2.51-18,6.72-35.7,3.45-12.27,7.87-24.37t9.79-23.61a185.81,185.81,0,0,1,41.83-55.26,51.45,51.45,0,0,1,9.79-7.11,95.78,95.78,0,0,1,10.94-5.18,8.57,8.57,0,0,1,8.83,1.15,44,44,0,0,1,16.12,20q5,12.28,1.92,26.87a78.09,78.09,0,0,1-13.44,32.24q-4.61,6.92-9.79,13.44t-10.55,13.05a61.75,61.75,0,0,1-26.87,18.8q-4.61,1.54-8.83,3.26t-8.44,3.65a8.16,8.16,0,0,0-5,5.76q-2.29,16.11-3.65,31.66a139.44,139.44,0,0,0,1,31.67,60.15,60.15,0,0,0,2.5,10.55A23.88,23.88,0,0,0,1127.19,300.38Zm59.11-208.8a151.52,151.52,0,0,0-36.85,44.52,292.31,292.31,0,0,0-22.26,54.12,32.06,32.06,0,0,1,3.45-.77,162.2,162.2,0,0,0,54.89-73.69A35.73,35.73,0,0,0,1186.3,91.58Z"/><path class="cls-1" d="M1202.8,290c1-1.27,1.92-2.43,2.69-3.45s1.53-2.17,2.3-3.45q9.21-14.6,18.23-29.37t17.85-29.36a11.73,11.73,0,0,0,1.53-4c.25-1.4.51-2.75.77-4a98.73,98.73,0,0,1,4.22-19.38,86.72,86.72,0,0,1,8.45-18.23q3.45-6.14,7.29-7.68t10.36,3.07a14.44,14.44,0,0,0,2.69,2.11c1,.64,2.17,1.34,3.45,2.11q-4.61,17.28-10,34a143.6,143.6,0,0,0-6.52,35.12,13.05,13.05,0,0,0,7.48.77,29.23,29.23,0,0,0,6.34-2.3c4.09-2,8-4.09,11.7-6.15s7.36-4.22,10.94-6.52q3.08-1.92,5.76-3.65t5.37-3.64q3.84-2.68,5.18-2.5c.9.13,3,1.34,6.34,3.65q-4.23,3.08-8.25,6.14t-8.26,6.14q-8.84,6.15-16.88,11.13-11.91,6.91-20.15,5.37t-18.24-8.44a57.29,57.29,0,0,1-5-4.61q-1.53,2.31-2.87,4.23t-2.5,3.83q-6.52,11.14-12.86,22.07t-12.86,21.69c-2.3,3.59-4.16,6.33-5.56,8.25a12.27,12.27,0,0,1-4.61,4,11.12,11.12,0,0,1-6,.77q-3.45-.39-9.59-1.15-7.31-.76-10.94-4.42a20.62,20.62,0,0,1-5.18-10.17,167.27,167.27,0,0,1-3.07-57.19q3.45-27.63,19.19-54.12a63.46,63.46,0,0,1,4.22-5.94,39,39,0,0,1,5-5.19,6.15,6.15,0,0,1,4-1.72,13.64,13.64,0,0,1,9.4,2.88,6,6,0,0,1,2.31,3.45,4.14,4.14,0,0,1,.19,3.26c-.39,1.15-.71,2.25-1,3.26q-2.31,11.52-5,22.84t-4.61,22.46q-1.92,12.29-3.07,24.94t-1.92,24.95a42,42,0,0,0-.19,6.91c.13,2.3.19,4.61.19,6.91a1.59,1.59,0,0,1,1,.19A.78.78,0,0,0,1202.8,290Z"/><path class="cls-1" d="M1381.28,290.78q3.06-3.06,6.14-6.33t5.76-6.72q9.21-12.27,18.23-24.56t18.23-24.57q2.29-3.06,5-6.33l6.14-7.48c.77,1.28,1.4,2.36,1.92,3.26s1.15,2,1.92,3.26q-4.23,6.52-8.45,13.43t-8.82,13.44q-7.69,11.13-15.55,22.45t-15.93,22.45a17,17,0,0,1-2.49,3.27,38.89,38.89,0,0,0-2.88,3.26q-3.84,3.08-6.34,3.26c-1.66.13-4.16-.44-7.48-1.73q-11.13-4.22-15.93-12.28a42.65,42.65,0,0,1-5.56-19.19,37.55,37.55,0,0,1-.58-4,47.22,47.22,0,0,0-1-5.56q-2.3,3.07-4.22,5.56c-1.28,1.67-2.43,3.26-3.45,4.8q-5,6.53-9.41,12.86t-9.79,12.86a61.19,61.19,0,0,1-5.75,5.75c-2,1.8-4.1,3.71-6.14,5.76a6.37,6.37,0,0,1-8.06.38,69.11,69.11,0,0,0-6.72-3.64,39.35,39.35,0,0,1-6.72-4q-8.82-6.13-8.83-15.74c0-3.84.14-7.68.39-11.51a53.76,53.76,0,0,1,1.92-11.13,177.29,177.29,0,0,1,18.42-43.38,149.85,149.85,0,0,1,30.32-36.08,43.24,43.24,0,0,1,12.48-8.25,58.26,58.26,0,0,1,14.39-4,39.6,39.6,0,0,1,14,.19,25.63,25.63,0,0,1,12.47,6.72q5-2.68,9.6-5.76t11.13-1.53a8.48,8.48,0,0,1,6.14,4q1.92,3.26,3.84,6.71a155.57,155.57,0,0,0-26.1,39.54,186.54,186.54,0,0,0-13.82,44.91,47.75,47.75,0,0,0-1.34,12.47q.18,6,1,12.47A7,7,0,0,1,1381.28,290.78Zm-71.78,0,2.31,1.15q4.21-4.21,8-7.87t7.68-7.86q6.53-6.92,12.86-14.2t12.86-14.59a17.57,17.57,0,0,0,3.45-7.29,144.71,144.71,0,0,1,18-44.14,16.11,16.11,0,0,0,1.35-2.5,23.89,23.89,0,0,1,2.11-3.64,55.6,55.6,0,0,0-5.57,2.11c-1.41.64-2.75,1.22-4,1.72q-28,15.36-43,44.91a137.86,137.86,0,0,0-8.83,21.11,211.22,211.22,0,0,0-5.75,21.88c-.26,1.54-.45,3.07-.58,4.61A19.85,19.85,0,0,1,1309.5,290.78Z"/><path class="cls-1" d="M1513.31,305q13.43-26.1,25.71-45.48a259.78,259.78,0,0,1,26.1-34.74c1,.52,2.11,1.1,3.27,1.73s2.49,1.34,4,2.11q-10.37,17.28-20.35,34.16t-18.42,34.55q-3.08,5.37-6.53,12.66a140.62,140.62,0,0,1-7.48,13.82,56.45,56.45,0,0,1-8.83,11.13q-4.8,4.6-9.78,4.61L1493,337.8a9.06,9.06,0,0,1-4-1.73,7.73,7.73,0,0,1-2.11-3.84q-.77-2.69-2.3-8.44A92,92,0,0,1,1482.6,294a252.52,252.52,0,0,0,1.54-27.44q-7.68,9.6-14,18.81a75.42,75.42,0,0,1-16.31,16.89,15.78,15.78,0,0,1-6.53,3.26,14.68,14.68,0,0,1-5.76,0,19,19,0,0,1-5.37-2.11q-2.69-1.53-5.76-3.46A22.78,22.78,0,0,1,1420,289.82a41.35,41.35,0,0,1-3.84-14,73.42,73.42,0,0,1,0-15,98.41,98.41,0,0,1,2.69-14.58q8.05-31.47,30.7-53a34,34,0,0,1,12.67-9.59,45.8,45.8,0,0,1,15.74-4,44.81,44.81,0,0,1,15.92,1.72,30.58,30.58,0,0,1,13.25,7.68,38.48,38.48,0,0,0,2.49-5.18c.64-1.66,1.34-3.27,2.11-4.8q7.68-16.5,16.51-33.2a100.54,100.54,0,0,1,22.26-28.6q5.37-4.61,8.25-4.41t6.72,6.72q-13.44,20-19.77,38.19T1534,192.52a402.08,402.08,0,0,0-13.81,53q-5,26.49-8.45,53.74a21,21,0,0,0,.77,5C1512.79,304.73,1513.05,305,1513.31,305Zm-58.73-23.41,35.7-44.91a66.33,66.33,0,0,0,7.87-19.57q2.49-10.74,5.56-20.34a24.76,24.76,0,0,0-13,.38,32.59,32.59,0,0,0-10.75,6.14q-18.42,15-26.48,32.82a167.6,167.6,0,0,0-11.9,38.57,88.64,88.64,0,0,0-1,13.24c.13,2.69.71,4.17,1.73,4.42s2.56-.58,4.61-2.5A108.77,108.77,0,0,0,1454.58,281.57Z"/><path class="cls-1" d="M1606.19,181q8.82-7.68,20.72-4.61a32.07,32.07,0,0,1,11.13,5.18,53.83,53.83,0,0,1,9.21,8.64q6.91,8.84,3.84,20.73-2.29,8.84-5,17.08T1640,244.34a195.07,195.07,0,0,1-13.24,24.37,128.29,128.29,0,0,1-17.46,21.69,101.28,101.28,0,0,1-7.87,7.1c-2.69,2.18-5.44,4.41-8.25,6.72a22.21,22.21,0,0,1-7.3,3.83,14.34,14.34,0,0,1-8.06,0q-6.13-1.53-12.28-3.26a64.75,64.75,0,0,1-11.51-4.41,30.28,30.28,0,0,1-16.13-27.25,146.54,146.54,0,0,1,5.57-45.87q6.33-21.67,24.37-39.34a53.93,53.93,0,0,1,13.44-10.75,19.74,19.74,0,0,1,10.74-3.45q5.37,0,10.75,5A13.66,13.66,0,0,0,1606.19,181Zm-36.47,117.06c2-1.27,4.09-2.42,6.14-3.45a27.61,27.61,0,0,0,5.38-3.45q4.6-4.23,9-8.64a97.33,97.33,0,0,0,8.25-9.4q7.66-10.74,15-21.69t14.2-22.07q2.29-4.22,4.22-8.44a51.77,51.77,0,0,0,3.07-8.83,47,47,0,0,0,2.5-11.13,19.93,19.93,0,0,0-2.5-11.52,10.75,10.75,0,0,0-7.1.77,46.68,46.68,0,0,0-5.95,3.84A92.86,92.86,0,0,0,1597,224c-.76,1.53-1.6,3.07-2.49,4.6s-1.86,3.33-2.88,5.38q-2.68-1.92-5-3.46l-4.61-3.07c1.54-3.84,2.94-7.61,4.23-11.32s2.68-7.49,4.22-11.32a14.64,14.64,0,0,0-2.69,1.53,160.57,160.57,0,0,0-17.85,33.59,104.35,104.35,0,0,0-6.71,37.8,79.94,79.94,0,0,0,1.34,10.17A24.62,24.62,0,0,0,1569.72,298.07Z"/><path class="cls-1" d="M1687.55,229.37a18.41,18.41,0,0,0,7.1-2.69,33.28,33.28,0,0,0,5.19-4.22q6.14-6.53,11.7-12.86t11.33-12.85q6.9-7.29,14.58-.39a7.1,7.1,0,0,1,2.69,4.22,11.42,11.42,0,0,1-.39,5q-3.07,9.21-5.75,18.43t-5.76,18a143.48,143.48,0,0,0-6.14,24.56q-1.92,12.28-3.07,24.57a6.17,6.17,0,0,0,.19,1.53c.13.52.32,1.28.58,2.3a40.55,40.55,0,0,0,9-5.95,95.1,95.1,0,0,0,7.1-7.1q11.11-11.51,22.64-23l22.65-22.64,3.45-3.45q1.53.76,2.88,1.53c.89.52,1.73,1,2.49,1.54a1.37,1.37,0,0,0-.19,1.15.62.62,0,0,1-.19.76q-10,13.44-19.57,27.06a194,194,0,0,1-21.5,25.53q-4.23,4.23-8.63,8.06t-9,7.29q-7.31,6.13-15.36,1.54c-1-.51-2-1-2.87-1.35s-1.86-.82-2.88-1.34q-8.46-1.92-11.33-7.68a38.3,38.3,0,0,1-3.64-13.43,69,69,0,0,1,1.15-19.38q1.92-9.41,4.22-18.62a24.13,24.13,0,0,0,1.15-3.65,40.71,40.71,0,0,1,1.15-4c-1,.26-2.3.65-3.83,1.16a14.13,14.13,0,0,1-14.21-.77,50.85,50.85,0,0,0-6.52-2.69q-10.37-5-12.67-16.89a69.4,69.4,0,0,1-1.15-21.68,73,73,0,0,1,5.37-20.54,178.72,178.72,0,0,1,12.1-22.45,65.53,65.53,0,0,1,17.46-18.23c1-.77,2-1.54,2.88-2.3a13.64,13.64,0,0,1,2.88-1.92q7.28-3.84,12.09-2.5t9,8.25a4.46,4.46,0,0,1,.76,4.23l-1.53,3.83q-6.53,11.15-14.2,23.8a153.7,153.7,0,0,0-12.86,25.52,275.94,275.94,0,0,0-9,27.06A48,48,0,0,0,1687.55,229.37Z"/></svg>