<svg id="Layer_1" data-name="Layer 1" xmlns="http://www.w3.org/2000/svg" viewBox="0 0 2400 410"><defs><style>.cls-1{fill:#fff;}</style></defs><path class="cls-1" d="M879.24,109.23q3.06-6.9,5.37-13.24A22.33,22.33,0,0,0,885,82.37q-3.84-1.53-10.94,2.11a105.11,105.11,0,0,0-14.58,9.21q-7.49,5.57-14,11.32t-9.6,8.45q-14.58,13.44-27.63,27.82a123.64,123.64,0,0,0-20.73,30.9c1.54-.51,2.94-1,4.23-1.53l3.83-1.54q16.13-6.92,32.05-13.82a278.58,278.58,0,0,0,30.9-15.73,15.2,15.2,0,0,1,7.87-1.54q3.64.39,6.71,5.76a11.13,11.13,0,0,0,2.12,2.88,40.82,40.82,0,0,1,2.87,3.26,70.25,70.25,0,0,0-20.15,16.31Q849.68,176,841.62,186a352.6,352.6,0,0,0-43.18,63.91A334,334,0,0,0,770.61,323a81.49,81.49,0,0,0-2.49,14.59,50.13,50.13,0,0,0,1,11.13q3.06,1.53,10-1.73t15.74-14.39q18-20,31.47-34.35a288.42,288.42,0,0,0,24.56-30.13,59.83,59.83,0,0,1-8.63-15.74q-2.88-8.06-.2-18a88.55,88.55,0,0,1,17.08-29.55,96.41,96.41,0,0,1,25.53-20.35q5.76-3.83,9.79-3.07t9,6.14c1.27,1.54,2.55,3.07,3.83,4.61s2.56,3,3.84,4.22q7.68,7.3,2.31,16.12-6.54,11.15-13.82,21.3T887.3,250.1q10.74-2.68,17.84-5T918,240.5q5.76-2.3,11.32-4.6t13.25-5.76q3.06,3.45,7.29,8.44a107.81,107.81,0,0,1-30.32,15q-16.12,5-31.86,10.36-11.13,3.85-15.93,8.45A97.81,97.81,0,0,0,862,283.49q-18.42,23.81-36.84,43.95a289.63,289.63,0,0,1-39.92,36.27,14.3,14.3,0,0,1-7.29,2.3,19,19,0,0,1-6.91-1.34,47.8,47.8,0,0,1-6.72-3.26,34.86,34.86,0,0,0-6.71-3.08,21,21,0,0,1-10-8.06,37.22,37.22,0,0,1-5-12.66,42.07,42.07,0,0,1-1.16-14.78q.78-7.11,1.92-14.78a244.13,244.13,0,0,1,24.95-71.77q5-8.44,10-16.7t10-16.31a19.88,19.88,0,0,1,1.92-3.65,35.46,35.46,0,0,0,2.3-4c-4.09.52-7.1,1-9,1.35a8.51,8.51,0,0,1-4.8-.19,12.48,12.48,0,0,1-4.22-3.27c-1.53-1.66-4-4-7.29-7.1q-7.68-6.9-8.64-14.39a35.57,35.57,0,0,1,2.12-16.31c1.78-3.84,3.58-7.74,5.37-11.71a66.54,66.54,0,0,1,6.52-11.32,201.76,201.76,0,0,1,30.9-34.74,163.81,163.81,0,0,1,37.81-25.14q3.82-1.53,10.36-4.41A72.32,72.32,0,0,1,865,63.94a46.14,46.14,0,0,1,12.86-1.15,11.08,11.08,0,0,1,9,5q7.68,10.75,5.76,21.69T879.24,109.23Zm-20,147q9.21-11.9,17.46-21.5a134,134,0,0,0,15.16-21.87,66.89,66.89,0,0,0-13.43,8.06,57,57,0,0,0-11.13,11.13,48.26,48.26,0,0,0-6.91,12.47A21,21,0,0,0,859.28,256.24Z"/><path class="cls-1" d="M930.28,375.22q-4.6,0-5.95-1.34c-.89-.9-2.74-1.34-5.56-1.34a27.32,27.32,0,0,1-1.15-3.46c-.26-1-.51-2.05-.77-3.07a178.64,178.64,0,0,1-2.5-31.47q.21-15.36,1.73-31.09a646.08,646.08,0,0,1,12.28-77.53,573.69,573.69,0,0,1,22.26-75.23,15,15,0,0,0,.58-2.31,15.82,15.82,0,0,1,1-3.07,27.56,27.56,0,0,1-3.45-.19,26.63,26.63,0,0,0-3.07-.19q-6.92-.77-13.82-1.34t-14.2-1.73a29.43,29.43,0,0,1-14.4-6.72,49,49,0,0,1-10.17-12.47,7.17,7.17,0,0,1-.57-1.73,7,7,0,0,0-.58-1.73c-.25-.51-.13-1.4.38-2.68a2.14,2.14,0,0,0,1.35.77c.38,0,.7.25,1,.76a13.4,13.4,0,0,0,6.71,6.14,44.49,44.49,0,0,0,8.64,2.31,137.58,137.58,0,0,0,24,.19,98.75,98.75,0,0,0,23.22-4.8,8.87,8.87,0,0,0,4.61-2.49,27,27,0,0,0,3.07-4.42q5.37-10.36,10.93-20.72t11.71-20.35A48,48,0,0,1,993,65.86a33,33,0,0,1,7.48-6.52,2.82,2.82,0,0,0,1.15.38,2.93,2.93,0,0,1,1.15.39q5.76,3.84,7.3,6.14a5.62,5.62,0,0,1,1,4.6,17.76,17.76,0,0,1-2.69,5.38,39.11,39.11,0,0,0-4,8.06c-1.54,3.83-3.14,7.74-4.8,11.7S996,104.25,994,108.85a30,30,0,0,1,4.22-1,13.53,13.53,0,0,0,3.45-1q12.29-5,27.06-11.13t27.06-10.75a64.37,64.37,0,0,1,7.49-2.49c2.43-.64,4.92-1.21,7.48-1.73q5.37-1.15,7.29,4.22.77,1.94,2.31,5c1.78,3.84,2.49,6.53,2.11,8.06s-2.37,3.33-6,5.38l-6.91,3.84a36.89,36.89,0,0,1-7.29,3.07q-16.9,6.52-33.4,12.47t-33.77,11.71q-6.92,2.69-8.83,9.21-11.9,36.47-23.22,74.65a730.17,730.17,0,0,0-18.23,75.81q-3.45,18.42-6.53,36.27t-6.14,36.27c-.25,1.28-.51,2.55-.77,3.84S930.8,373.43,930.28,375.22Z"/><path class="cls-1" d="M1000.14,255.47a416.59,416.59,0,0,1,32.43-36.65,113.77,113.77,0,0,1,39-25.53q5.37-1.92,9.59.19a15.2,15.2,0,0,1,6.53,6.14,21.39,21.39,0,0,1,2.69,9,18.57,18.57,0,0,1-1.54,9.22q-15.73,34.92-28.21,67.74a314.36,314.36,0,0,0-17.46,68.51v4.61q13.42-17.66,26.29-34.35t25.9-34l4.23,2.11c1.27.64,2.55,1.34,3.84,2.11a263.23,263.23,0,0,1-22.27,36.08q-12.66,17.26-24.18,34.54-1.53,2.31-3.84,5.38-3.45,4.61-5.56,7.1a8.81,8.81,0,0,1-4.41,3.07,11.19,11.19,0,0,1-5.38-.19c-2-.52-4.86-1.41-8.44-2.69a20.21,20.21,0,0,1-6.91-4,10,10,0,0,1-3.07-6.72q-.78-6.53-1.54-13.24a57.47,57.47,0,0,1,0-13.24,220.37,220.37,0,0,1,4.23-29.36,169.22,169.22,0,0,1,8.44-27.83q6.91-17.28,14.78-33.58t17.08-32q2.67-4.61,5.75-10.37-5.37,0-12.09,4.8a103.92,103.92,0,0,0-13,11.13q-6.33,6.33-11.7,12.86t-8.06,10.36q-11.14,15-20.54,29t-17.46,28.6q-7.29,11.5-19.19,3.83-4.23-2.67-3.46-8.06,1.54-8.82,2.5-17.84a167.53,167.53,0,0,1,2.88-17.85,413.84,413.84,0,0,1,12.28-43,362.15,362.15,0,0,1,17.27-41.45,27.44,27.44,0,0,1-16.5-7.49,38.86,38.86,0,0,1-9.6-14.77,46.46,46.46,0,0,1-2.69-17.85,35.85,35.85,0,0,1,4.61-16.7q3.08.78,3.26,3.07c.13,1.54.19,2.95.19,4.22a63.23,63.23,0,0,0,.2,14.78,34,34,0,0,0,4,12.48,23.59,23.59,0,0,0,8.44,8.63q5.37,3.27,13.43,2.88c.77-1.28,1.54-2.49,2.31-3.65a20.09,20.09,0,0,0,1.92-3.64,243.29,243.29,0,0,1,16.69-24.18A103.51,103.51,0,0,1,1045,117.3a52.15,52.15,0,0,1,14.21-6.72q8.05-2.49,14.2,3.64l5.18,6a37.28,37.28,0,0,1,4.41,6.34,10.58,10.58,0,0,1,1,3.83,15.32,15.32,0,0,1-.19,4.23,34.81,34.81,0,0,1-8.06,16.89,73.61,73.61,0,0,1-14.2,12.28,142.68,142.68,0,0,1-13.82,7.87q-7.29,3.64-14.58,6.71a29.68,29.68,0,0,0-4.8,2.88,9.87,9.87,0,0,0-2.88,4.42q-6.15,16.89-12.28,33.39T1000.9,252.4a3.49,3.49,0,0,0-.38,1.53A3.47,3.47,0,0,1,1000.14,255.47Zm38.76-95.57a61.36,61.36,0,0,0,11.9-6.53,80.24,80.24,0,0,0,11.32-9.4,60.13,60.13,0,0,0,8.45-10.36q3.26-5.19,3.65-9-8.07-.37-17.85,9.4T1038.9,159.9Z"/><path class="cls-1" d="M1200.11,209.8a14.25,14.25,0,0,1,2.49,1.53c.64.52,1.35,1,2.11,1.54a3.1,3.1,0,0,1-.38,1.92q-19.57,25.32-36.46,46.82a461.5,461.5,0,0,1-36.47,41.07,14.4,14.4,0,0,1-7.1,4.22,17.56,17.56,0,0,1-7.29,0,29.14,29.14,0,0,1-7.1-2.49c-2.3-1.15-4.61-2.36-6.91-3.65q-10.37-3.83-12.67-15.74-3.06-26.08,5.76-48a156.09,156.09,0,0,1,23.41-39.92q7.68-5.76,12.48-2.3a41.22,41.22,0,0,1,9,9.21,175.22,175.22,0,0,0-12.86,22.07,92.11,92.11,0,0,0-6.52,18.61,118.16,118.16,0,0,0-2.69,20.35q-.57,11.13-1,27.25a198.14,198.14,0,0,0,22.84-19q10.93-10.56,21.3-21.5T1181.88,230Q1191.27,219,1200.11,209.8Zm-30.32-59.88q-4.62,5.76-8.45,9.79t-7.48,7.67c-2.44,2.44-4.93,5-7.49,7.68s-5.37,5.82-8.44,9.4q-3.84-1.53-4.61-4a13.24,13.24,0,0,0-3.45-5.18c-1.8-2.3-2.3-5.18-1.54-8.63a38.66,38.66,0,0,1,4-10.37,56.11,56.11,0,0,1,6.72-9.59,33.1,33.1,0,0,1,6.91-6.34,16.56,16.56,0,0,1,7.67-1.72,13.52,13.52,0,0,1,6.34,1.92,23.54,23.54,0,0,1,5.18,4.22C1166.71,146.41,1168.25,148.13,1169.79,149.92Z"/><path class="cls-1" d="M1239.64,181q8.82-7.68,20.72-4.61a32,32,0,0,1,11.14,5.19,53.74,53.74,0,0,1,9.21,8.63q6.9,8.84,3.84,20.73-2.31,8.84-5,17.08t-6.15,16.31a193.78,193.78,0,0,1-13.24,24.37,128.29,128.29,0,0,1-17.46,21.69,99.48,99.48,0,0,1-7.87,7.1c-2.69,2.18-5.44,4.41-8.25,6.72a22.17,22.17,0,0,1-7.29,3.83,14.34,14.34,0,0,1-8.06,0q-6.15-1.53-12.29-3.26a65,65,0,0,1-11.51-4.41,30.25,30.25,0,0,1-16.12-27.25,146.25,146.25,0,0,1,5.56-45.87q6.34-21.67,24.38-39.34a53.68,53.68,0,0,1,13.43-10.75,19.75,19.75,0,0,1,10.75-3.45q5.37,0,10.74,5A13.66,13.66,0,0,0,1239.64,181Zm-36.46,117.06q3.06-1.9,6.14-3.45a27.83,27.83,0,0,0,5.37-3.45q4.61-4.23,9-8.64a97.33,97.33,0,0,0,8.25-9.4q7.68-10.74,15-21.69t14.2-22.07c1.54-2.81,2.94-5.62,4.23-8.44a52.65,52.65,0,0,0,3.07-8.83,47,47,0,0,0,2.49-11.13,20,20,0,0,0-2.49-11.52,10.78,10.78,0,0,0-7.11.77,46.61,46.61,0,0,0-5.94,3.84,92.86,92.86,0,0,0-25,29.94c-.77,1.53-1.6,3.07-2.5,4.6s-1.86,3.33-2.88,5.38q-2.68-1.92-5-3.46l-4.6-3.07q2.3-5.76,4.22-11.32t4.22-11.32a14.78,14.78,0,0,0-2.68,1.53,159.64,159.64,0,0,0-17.85,33.59,104.35,104.35,0,0,0-6.72,37.8A79.94,79.94,0,0,0,1198,287.9,24.65,24.65,0,0,0,1203.18,298.07Z"/><path class="cls-1" d="M1326.38,235.9a48.89,48.89,0,0,0,2.88-4,23.33,23.33,0,0,1,3.26-4,199.62,199.62,0,0,1,21.5-24.57,113.23,113.23,0,0,1,26.1-18.81,27.4,27.4,0,0,0,3.26-1.53,27.38,27.38,0,0,1,3.26-1.54q10.36-4.21,20,3.84,9.21,8.06,11.13,17.27t-1.92,20.35a321.54,321.54,0,0,1-14.39,36.46,214.28,214.28,0,0,1-19.77,33.78,4.71,4.71,0,0,1-.57,1,4.07,4.07,0,0,0-.58,1,54.16,54.16,0,0,1-6.14,7.1,15.33,15.33,0,0,1-5.57,3.46,11.27,11.27,0,0,1-6.52,0,67.51,67.51,0,0,1-9-3.26l-8.06-3.46q-6.92-2.29-6.14-9.59a105.18,105.18,0,0,1,2.88-17.08q2.1-8.25,4.79-17.08c1.54.76,2.94,1.41,4.23,1.92l3.83,1.53c-.25,3.59-.45,7-.57,10.36s-.33,6.66-.58,10a.8.8,0,0,1,.58.2.76.76,0,0,0,.57.19l3.46-4.61q4.21-8.06,8.44-15.93t8.45-15.93q4.21-7.67,8.25-15.16t7.87-15.16a72.2,72.2,0,0,0,4.6-9.4q1.92-4.8,4.22-10.17-3.08-1.16-5-.39l-3.83,1.54a82.54,82.54,0,0,0-16.32,9.4,163.59,163.59,0,0,0-14.39,12.09,198.42,198.42,0,0,0-21.88,25.91,280.39,280.39,0,0,0-17.65,28.6,89.36,89.36,0,0,0-10.17,26.29q-2.88,13.62-5.57,27.44-1.92,8.44-3.45,16.89t-3.46,16.89q-1.92,7.67-4.41,15t-5.18,15c-.77,3.08-2.94,4.86-6.53,5.38a38.12,38.12,0,0,0-3.84.19c-1.27.13-2.55.32-3.83.58a20.89,20.89,0,0,1-2.88-7.68c-.39-2.56-.83-5.12-1.35-7.68a95.58,95.58,0,0,1-.77-24q1.15-11.7,3.08-23.6A543.57,543.57,0,0,1,1288,266.6q9.6-31.47,20.73-62.56a105.54,105.54,0,0,1,6.33-12.86q3.64-6.33,7.1-12.86a26.13,26.13,0,0,1,5-6.52q3.45-3.84,6.91-1.92a24.25,24.25,0,0,1,4.22,2.69q1.92,1.53,1.15,5c-.52,3.08-1.09,6.15-1.73,9.22s-1.34,6.14-2.11,9.21l-9.21,34.54-1.15,4.61c.25.26.44.38.58.38S1326.12,235.64,1326.38,235.9Z"/><path class="cls-1" d="M1528.27,209.8a14.37,14.37,0,0,1,2.5,1.53,25.1,25.1,0,0,0,2.11,1.54,3.1,3.1,0,0,1-.38,1.92q-19.57,25.32-36.47,46.82a459.81,459.81,0,0,1-36.46,41.07,14.4,14.4,0,0,1-7.1,4.22,17.56,17.56,0,0,1-7.29,0,29.36,29.36,0,0,1-7.11-2.49c-2.3-1.15-4.6-2.36-6.9-3.65q-10.37-3.83-12.67-15.74-3.06-26.08,5.76-48a155.8,155.8,0,0,1,23.41-39.92q7.68-5.76,12.48-2.3a41.19,41.19,0,0,1,9,9.21,175,175,0,0,0-12.85,22.07,92.16,92.16,0,0,0-6.53,18.61,118.2,118.2,0,0,0-2.68,20.35q-.58,11.13-1,27.25a198,198,0,0,0,22.83-19q11-10.56,21.31-21.5T1510,230Q1519.45,219,1528.27,209.8ZM1498,149.92q-4.6,5.76-8.44,9.79t-7.49,7.67c-2.43,2.44-4.93,5-7.48,7.68s-5.38,5.82-8.45,9.4q-3.84-1.53-4.6-4a13.28,13.28,0,0,0-3.46-5.18q-2.68-3.45-1.53-8.63a38.66,38.66,0,0,1,4-10.37,56.11,56.11,0,0,1,6.72-9.59,33.08,33.08,0,0,1,6.9-6.34,16.62,16.62,0,0,1,7.68-1.72,13.51,13.51,0,0,1,6.33,1.92,23.59,23.59,0,0,1,5.19,4.22C1494.88,146.41,1496.42,148.13,1498,149.92Z"/><path class="cls-1" d="M1595.44,290.78q3.07-3.06,6.14-6.33t5.76-6.72q9.21-12.27,18.23-24.56t18.23-24.57q2.31-3.06,5-6.33t6.14-7.48c.77,1.28,1.41,2.36,1.92,3.26s1.15,2,1.92,3.26q-4.23,6.52-8.44,13.43t-8.83,13.44q-7.68,11.13-15.55,22.45T1610,293.09a17.26,17.26,0,0,1-2.5,3.26,38.89,38.89,0,0,0-2.88,3.26q-3.84,3.08-6.33,3.26c-1.67.13-4.16-.44-7.49-1.73q-11.13-4.22-15.93-12.28a42.65,42.65,0,0,1-5.56-19.19,37.55,37.55,0,0,1-.58-4,47.22,47.22,0,0,0-1-5.56q-2.29,3.07-4.22,5.56c-1.28,1.67-2.43,3.26-3.45,4.8q-5,6.53-9.41,12.86t-9.78,12.86a60.12,60.12,0,0,1-5.76,5.75q-3.08,2.7-6.14,5.76a6.37,6.37,0,0,1-8.06.38,66.85,66.85,0,0,0-6.72-3.64,39.74,39.74,0,0,1-6.72-4q-8.82-6.13-8.82-15.74,0-5.76.38-11.51A53.76,53.76,0,0,1,1501,262a177.67,177.67,0,0,1,18.42-43.38,149.66,149.66,0,0,1,30.33-36.08,43.06,43.06,0,0,1,12.47-8.25,58.26,58.26,0,0,1,14.39-4,39.6,39.6,0,0,1,14,.19,25.61,25.61,0,0,1,12.48,6.72q5-2.68,9.59-5.76t11.13-1.53a8.48,8.48,0,0,1,6.14,4c1.28,2.18,2.56,4.41,3.84,6.72a155.61,155.61,0,0,0-26.1,39.53,187,187,0,0,0-13.82,44.91,47.75,47.75,0,0,0-1.34,12.47c.13,4,.44,8.13,1,12.47A7,7,0,0,1,1595.44,290.78Zm-71.77,0,2.3,1.15q4.21-4.21,8.06-7.87t7.67-7.86q6.52-6.92,12.86-14.2t12.86-14.59a17.57,17.57,0,0,0,3.46-7.29,144.68,144.68,0,0,1,18-44.14,16.11,16.11,0,0,0,1.35-2.5,23.89,23.89,0,0,1,2.11-3.64,57.57,57.57,0,0,0-5.57,2.11c-1.41.64-2.75,1.22-4,1.72q-28,15.36-43,44.91a135.89,135.89,0,0,0-8.83,21.11,211.26,211.26,0,0,0-5.76,21.88c-.26,1.54-.45,3.07-.58,4.61A19.83,19.83,0,0,1,1523.67,290.78Z"/></svg>