<svg id="Layer_1" data-name="Layer 1" xmlns="http://www.w3.org/2000/svg" viewBox="0 0 2400 410"><defs><style>.cls-1{fill:#fff;}</style></defs><path class="cls-1" d="M779.91,240.12a17.48,17.48,0,0,0-16.12,1,49.1,49.1,0,0,0-14,12.47A83.78,83.78,0,0,0,739.23,271a75.28,75.28,0,0,0-5.37,15.17,160.11,160.11,0,0,0-1.92,24.18q0,11.5,8.82,20.72a76.58,76.58,0,0,0,15.55-9.59,124.8,124.8,0,0,0,14.78-13.63A169.92,169.92,0,0,0,784,292.13a157.34,157.34,0,0,0,10.17-15.93q11.5-18,25.14-40.69t27.63-46.06q14-23.4,27.25-46.06t24-40.87Q908.87,84.3,916,72.2t9-14.4a15.37,15.37,0,0,1,2.11,3.84q1.33,3.08,2.69,6.72t2.3,7.1c.64,2.3.83,3.84.58,4.6q-4.6,28.8-9.41,54.51t-9.21,49.89q-4.41,24.18-7.87,47T900.82,277q33.39-57.18,66.4-110.54T1036.69,57.8c.77-1,1.79-.63,3.07,1.15a34.59,34.59,0,0,1,3.65,6.91,40.92,40.92,0,0,1,2.49,9,20.19,20.19,0,0,1,0,7.87q-5.37,17.28-10.36,32.82t-10,31.09q-5,15.54-9.79,31.09t-10.17,32.81q-3.45,11.91-7.48,27.25t-7.68,30.9q-3.65,15.56-6,30.13a162.65,162.65,0,0,0-2.3,24.57l3.45-3.46a29.54,29.54,0,0,0,2.69-3.07A571.49,571.49,0,0,0,1030,264.49q20.54-29,38.58-55.46c1.28.51,2.55,1.09,3.84,1.73s2.81,1.34,4.6,2.11q-16.89,28.78-35.5,57t-37,53.55a51.83,51.83,0,0,1-8.44,9.21,16.42,16.42,0,0,1-8.06,3.64,27,27,0,0,1-9-.38q-4.81-1-11.71-2.88a13.84,13.84,0,0,1-6.72-5,23.28,23.28,0,0,1-3.64-7.87,43.17,43.17,0,0,1-1.35-9.21q-.19-4.8-.57-8.25a245.3,245.3,0,0,1,3.64-56.42A439.34,439.34,0,0,1,971.82,191q.76-3.08,1.54-6a26.32,26.32,0,0,0,.77-6.72q-9.6,18.42-20.54,37.62l-21.87,38.38q-11,19.2-21.11,38.19T892,329.93c-1.28,3.32-2.56,5.63-3.84,6.91s-3.71,2.05-7.29,2.3a17.7,17.7,0,0,1-6.91-1.92,43,43,0,0,1-8.06-4.79,29.47,29.47,0,0,1-6.33-6.34c-1.67-2.3-2.24-4.48-1.73-6.52q.76-10,2.11-20.34t2.88-20.73A589.27,589.27,0,0,1,874,214.4q7.29-31.47,13-63.33-17.26,31.1-34.93,61.8t-35.31,61.79q-11.13,18.42-22.26,33.59a120.6,120.6,0,0,1-25.72,25.9q-8.82,6.53-17.27,6a66.27,66.27,0,0,1-17.27-3.64q-13.82-5-19-15.36a45.46,45.46,0,0,1-4.6-22.83A79.25,79.25,0,0,1,716,273.32,100.32,100.32,0,0,1,727,252q9.59-15,24.95-20.35a25.31,25.31,0,0,1,15-.76,48.63,48.63,0,0,1,13.44,6.14,2,2,0,0,1,.77,2.3C780.81,240.38,780.42,240.63,779.91,240.12Z"/><path class="cls-1" d="M1074.3,249a150.27,150.27,0,0,0-1,19.57,52.24,52.24,0,0,0,3.65,18q1.92,5.38,3.46,6.33t6.9.2a28.2,28.2,0,0,0,16.13-6.15q8.82-8.06,17.84-15.93t17.85-15.92q10-8.84,19.38-18.23t19-18.62a7.64,7.64,0,0,1,4.8-2.49,15.56,15.56,0,0,1,6,.95c-.77,1.29-1.48,2.44-2.11,3.46s-1.35,2.05-2.11,3.07q-13.44,15.36-26.29,30.51t-26.3,30.13a112.27,112.27,0,0,1-8.83,8.64q-4.61,4-9.59,7.87a31,31,0,0,1-14.39,6.52q-7.48,1.16-15.55-3.84-5.37-3.45-10.94-6.9t-10.94-6.53a31.21,31.21,0,0,1-11.13-11.71,41.09,41.09,0,0,1-4.22-15.16q-5.76-53.34,36.46-84a35.58,35.58,0,0,1,4.23-2.88,36.28,36.28,0,0,0,4.22-2.88,23.66,23.66,0,0,1,10.75-5.37,39,39,0,0,1,12.28-.39,9.9,9.9,0,0,1,4,1,8.32,8.32,0,0,1,3.26,2.5l9.21,11.51a104.56,104.56,0,0,1,8.45,12.28,27.46,27.46,0,0,1,3.64,14.2,40,40,0,0,1-3.26,14.59,50.1,50.1,0,0,1-12.09,18.23,73.21,73.21,0,0,1-17.85,12.47,30.41,30.41,0,0,1-15.35,3.46,27.26,27.26,0,0,1-15-5.76,5.29,5.29,0,0,0-1.73-1.15A22.84,22.84,0,0,1,1074.3,249Zm1.92-6.53q19.2,1.54,31.86-10.36a61.87,61.87,0,0,0,11.32-14.2,97.27,97.27,0,0,0,7.49-16.51,28.76,28.76,0,0,0,1.15-5q.38-2.67.77-5.76a3.31,3.31,0,0,0-1.16-3.45,4.82,4.82,0,0,0-3.83-.77,21.14,21.14,0,0,0-4.61.77,28.17,28.17,0,0,0-13,6.14,124.46,124.46,0,0,0-10.36,10,57.83,57.83,0,0,0-12.09,17.66A145.37,145.37,0,0,0,1076.22,242.42Z"/><path class="cls-1" d="M1191,300.38a29.53,29.53,0,0,0,10.17-5.76,73.29,73.29,0,0,0,8.26-8.44q7.66-9.21,14.77-18.43t14-18.8a119.12,119.12,0,0,0,7.68-10.94q3.45-5.56,7.29-11.71l3.84.77a36.27,36.27,0,0,1,4.22,1.15,9.64,9.64,0,0,0-1,2.88,5.94,5.94,0,0,1-1,2.49q-5.37,8.83-10.17,18t-10.17,18a120.79,120.79,0,0,1-21.88,28.79,43.28,43.28,0,0,1-11.13,7.68,25.47,25.47,0,0,1-13.43,1.91,14.15,14.15,0,0,0-4-.19c-1.41.13-2.75.19-4,.19q-10.37-.37-16.31-4.41t-9.41-14a122,122,0,0,1-4.6-23,139,139,0,0,1,.19-36.46q2.51-18,6.72-35.7,3.45-12.27,7.86-24.37t9.79-23.6a185.6,185.6,0,0,1,41.84-55.27,51.39,51.39,0,0,1,9.78-7.11,99.2,99.2,0,0,1,10.94-5.18,8.59,8.59,0,0,1,8.83,1.15,44,44,0,0,1,16.12,20q5,12.3,1.92,26.87a78.07,78.07,0,0,1-13.43,32.24q-4.6,6.92-9.79,13.44t-10.55,13.05a61.75,61.75,0,0,1-26.87,18.8q-4.6,1.54-8.83,3.26t-8.44,3.65a8.11,8.11,0,0,0-5,5.76q-2.31,16.13-3.65,31.66a138.3,138.3,0,0,0,1,31.67A59.92,59.92,0,0,0,1185,291,24,24,0,0,0,1191,300.38Zm59.11-208.8a151.67,151.67,0,0,0-36.85,44.52A293,293,0,0,0,1191,190.22a32.52,32.52,0,0,1,3.46-.77,162.25,162.25,0,0,0,54.88-73.69A35.67,35.67,0,0,0,1250.09,91.58Z"/><path class="cls-1" d="M1300,181q8.82-7.68,20.72-4.61a31.83,31.83,0,0,1,11.13,5.19,53.43,53.43,0,0,1,9.22,8.63q6.9,8.84,3.83,20.73-2.3,8.84-5,17.08t-6.14,16.31a195.07,195.07,0,0,1-13.24,24.37,128.29,128.29,0,0,1-17.46,21.69,99.48,99.48,0,0,1-7.87,7.1c-2.69,2.18-5.44,4.41-8.25,6.72a22.21,22.21,0,0,1-7.3,3.83,14.34,14.34,0,0,1-8.06,0q-6.13-1.53-12.28-3.26a64.75,64.75,0,0,1-11.51-4.41,30.25,30.25,0,0,1-16.12-27.25,146.25,146.25,0,0,1,5.56-45.87q6.33-21.67,24.37-39.34A53.93,53.93,0,0,1,1275,177.17a19.74,19.74,0,0,1,10.74-3.45q5.37,0,10.75,5A13.66,13.66,0,0,0,1300,181Zm-36.47,117.06c2-1.27,4.09-2.42,6.14-3.45a27.61,27.61,0,0,0,5.38-3.45q4.61-4.23,9-8.64a97.33,97.33,0,0,0,8.25-9.4q7.68-10.74,15-21.69t14.2-22.07q2.31-4.22,4.22-8.44a50.92,50.92,0,0,0,3.07-8.83,47,47,0,0,0,2.5-11.13,19.93,19.93,0,0,0-2.5-11.52,10.75,10.75,0,0,0-7.1.77,46.68,46.68,0,0,0-6,3.84A92.94,92.94,0,0,0,1290.78,224c-.77,1.53-1.61,3.07-2.5,4.6s-1.86,3.33-2.88,5.38q-2.69-1.92-5-3.46l-4.6-3.07q2.3-5.76,4.22-11.32t4.22-11.32a15,15,0,0,0-2.69,1.53,160.06,160.06,0,0,0-17.84,33.59,104.35,104.35,0,0,0-6.72,37.8,79.94,79.94,0,0,0,1.34,10.17A24.62,24.62,0,0,0,1263.52,298.07Z"/><path class="cls-1" d="M1379.05,275.05q8.07,2.68,16.12,4.79t15,4.42a34.12,34.12,0,0,0,19.58,1.15,65.11,65.11,0,0,0,19.38-8.06,127.5,127.5,0,0,0,18.23-13.63q8.82-7.86,16.51-15.93t14-15.16q6.35-7.09,10.56-10.94a29.66,29.66,0,0,0,5.18,5.38c1.41,1,1.09,2.56-1,4.6q-8.83,9.6-14.2,16.51t-11.51,14q-6.15,7.11-15.17,16.12t-25.13,22.45a26.35,26.35,0,0,1-5.57,3.07q-2.88,1.16-6,2.31-14.6,6.12-30.71,0a156.69,156.69,0,0,0-40.3-9.22,16.25,16.25,0,0,0-9.59,2.31,54.67,54.67,0,0,1-13.44,7.67c-3.07,1-5.3,1.15-6.71.39s-2.88-2.69-4.42-5.76l-1.53-3.07c-.51-1-1-2-1.54-3.07q-3.06-5.37-1.92-9.6a23.22,23.22,0,0,1,4.61-8.44l2.3-2.3a15.05,15.05,0,0,1,2.31-1.92q12.28-9.21,24.37-19t24.37-19.39q12.28-9.59,24.95-18.42a275.12,275.12,0,0,1,26.1-16.12,101.46,101.46,0,0,0-13.82-.77,101.59,101.59,0,0,1-13.82-.76,31.34,31.34,0,0,0-11.51.57,36.81,36.81,0,0,0-10.36,4.41,51.23,51.23,0,0,0-8.45,6.15,35.29,35.29,0,0,0-6.91,8.82c-2.82-4.85-4.22-8.44-4.22-10.74s1.4-5.12,4.22-8.45a53.63,53.63,0,0,1,17.47-14.58q9.78-5,22.83-3.46,8.84.78,18,1.35t18.43,1.34a69.4,69.4,0,0,0,12.66.38,51.75,51.75,0,0,0,12.29-2.3q4.21-1.16,5.37-.19c.77.64,1.53,2.37,2.3,5.18a70.21,70.21,0,0,1,1.92,9,11.23,11.23,0,0,1-.57,5.57,11.47,11.47,0,0,1-3.65,4.41q-2.69,2.11-7.68,5.57-23,15.74-44.9,30.7T1379.05,275.05Z"/><path class="cls-1" d="M1591.3,209.8a14.37,14.37,0,0,1,2.5,1.53,25.1,25.1,0,0,0,2.11,1.54,3.1,3.1,0,0,1-.38,1.92q-19.59,25.32-36.47,46.82a459.81,459.81,0,0,1-36.46,41.07,14.4,14.4,0,0,1-7.1,4.22,17.61,17.61,0,0,1-7.3,0,29.44,29.44,0,0,1-7.1-2.49c-2.3-1.15-4.6-2.36-6.9-3.65q-10.37-3.83-12.67-15.74-3.06-26.08,5.76-48a155.8,155.8,0,0,1,23.41-39.92q7.68-5.76,12.47-2.3a41,41,0,0,1,9,9.21,175,175,0,0,0-12.85,22.07,91.55,91.55,0,0,0-6.53,18.61,119.15,119.15,0,0,0-2.69,20.35q-.57,11.13-1,27.25a197.29,197.29,0,0,0,22.84-19q10.93-10.56,21.3-21.5T1573.07,230Q1582.48,219,1591.3,209.8ZM1561,149.92q-4.61,5.76-8.44,9.79t-7.49,7.67c-2.43,2.44-4.93,5-7.48,7.68s-5.38,5.82-8.45,9.4q-3.84-1.53-4.6-4a13.28,13.28,0,0,0-3.46-5.18q-2.68-3.45-1.53-8.63a38.66,38.66,0,0,1,4-10.37,55.56,55.56,0,0,1,6.72-9.59,33.08,33.08,0,0,1,6.9-6.34,16.62,16.62,0,0,1,7.68-1.72,13.51,13.51,0,0,1,6.33,1.92,23.31,23.31,0,0,1,5.18,4.22C1557.91,146.41,1559.45,148.13,1561,149.92Z"/><path class="cls-1" d="M1630.83,181q8.84-7.68,20.73-4.61a31.91,31.91,0,0,1,11.13,5.19,53.74,53.74,0,0,1,9.21,8.63q6.91,8.84,3.84,20.73-2.29,8.84-5,17.08t-6.14,16.31a195.07,195.07,0,0,1-13.24,24.37,127.86,127.86,0,0,1-17.47,21.69,101.17,101.17,0,0,1-7.86,7.1c-2.69,2.18-5.44,4.41-8.26,6.72a22.07,22.07,0,0,1-7.29,3.83,14.34,14.34,0,0,1-8.06,0q-6.15-1.53-12.28-3.26a64.86,64.86,0,0,1-11.52-4.41,30.3,30.3,0,0,1-16.12-27.25,146.25,146.25,0,0,1,5.57-45.87q6.33-21.67,24.37-39.34a53.57,53.57,0,0,1,13.44-10.75,19.74,19.74,0,0,1,10.74-3.45q5.37,0,10.75,5A13.76,13.76,0,0,0,1630.83,181Zm-36.46,117.06c2.05-1.27,4.09-2.42,6.14-3.45a27.61,27.61,0,0,0,5.38-3.45q4.6-4.23,9-8.64a97.43,97.43,0,0,0,8.26-9.4q7.66-10.74,15-21.69t14.2-22.07q2.3-4.22,4.22-8.44a51.77,51.77,0,0,0,3.07-8.83,47,47,0,0,0,2.5-11.13,19.93,19.93,0,0,0-2.5-11.52,10.75,10.75,0,0,0-7.1.77,46.68,46.68,0,0,0-6,3.84,93,93,0,0,0-25,29.94c-.77,1.53-1.6,3.07-2.49,4.6s-1.86,3.33-2.88,5.38c-1.79-1.28-3.46-2.43-5-3.46l-4.61-3.07c1.54-3.84,2.94-7.61,4.23-11.32s2.68-7.49,4.22-11.32a14.64,14.64,0,0,0-2.69,1.53,160.57,160.57,0,0,0-17.85,33.59,104.35,104.35,0,0,0-6.71,37.8,79.94,79.94,0,0,0,1.34,10.17A24.5,24.5,0,0,0,1594.37,298.07Z"/></svg>